<?xml version="1.0" encoding="UTF-8" standalone="no"?>
<!DOCTYPE svg PUBLIC "-//W3C//DTD SVG 1.1//EN" "http://www.w3.org/Graphics/SVG/1.1/DTD/svg11.dtd">
<svg version="1.1" xmlns="http://www.w3.org/2000/svg" xmlns:xlink="http://www.w3.org/1999/xlink" preserveAspectRatio="xMidYMid meet" viewBox="0 0 640 186.67" width="640" height="187"><defs><path d="M640 0C640 0 640 0 640 0C640 112 640 174.22 640 186.67C640 186.67 640 186.67 640 186.67C256 186.67 42.67 186.67 0 186.67C0 186.67 0 186.67 0 186.67C0 74.67 0 12.44 0 0C0 0 0 0 0 0C384 0 597.33 0 640 0Z" id="h13AKfdGCC"></path><linearGradient id="gradientf23nFouG2i" gradientUnits="userSpaceOnUse" x1="320" y1="0" x2="320" y2="186.67"><stop style="stop-color: #292929;stop-opacity: 1" offset="0%"></stop><stop style="stop-color: #242424;stop-opacity: 1" offset="100%"></stop></linearGradient><path d="M565.53 101.49L565.97 101.52L566.41 101.56L566.85 101.61L567.29 101.67L567.72 101.74L568.15 101.82L568.58 101.92L569 102.02L569.43 102.13L569.84 102.26L570.26 102.39L570.67 102.54L571.07 102.7L571.47 102.86L571.87 103.04L572.26 103.23L572.65 103.42L573.04 103.63L573.41 103.84L573.79 104.07L574.15 104.3L574.51 104.55L574.87 104.8L575.22 105.06L575.56 105.33L575.89 105.62L576.22 105.9L576.55 106.2L576.86 106.51L577.17 106.83L577.47 107.15L577.76 107.48L578.04 107.82L578.32 108.17L578.59 108.53L578.85 108.9L579.06 109.22L579.26 109.55L579.46 109.88L579.65 110.21L579.84 110.55L580.02 110.88L580.2 111.22L580.37 111.57L580.54 111.91L580.7 112.26L580.85 112.61L581 112.96L581.15 113.31L581.29 113.67L581.42 114.03L581.55 114.38L581.67 114.75L581.79 115.11L581.9 115.47L582 115.84L582.1 116.21L582.2 116.58L582.29 116.95L582.37 117.32L582.45 117.7L582.52 118.07L582.58 118.45L582.64 118.82L582.7 119.2L582.75 119.58L582.79 119.96L582.83 120.34L582.86 120.72L582.88 121.11L582.9 121.49L582.92 121.87L582.93 122.26L582.93 122.64L582.92 123.03L582.91 123.41L582.91 123.53L582.92 123.65L582.92 123.76L582.92 123.88L582.92 124L582.91 124.11L582.91 124.23L582.91 124.35L582.91 124.46L582.9 124.58L582.9 124.7L582.9 124.81L582.89 124.93L582.89 125.05L582.88 125.16L582.87 125.28L582.86 125.4L582.86 125.51L582.85 125.63L582.84 125.75L582.83 125.86L582.82 125.98L582.81 126.1L582.8 126.21L582.79 126.33L582.77 126.44L582.76 126.56L582.75 126.68L582.73 126.79L582.72 126.91L582.7 127.02L582.69 127.14L582.67 127.25L582.65 127.37L582.64 127.49L582.62 127.6L582.6 127.72L582.58 127.83L582.56 127.95L582.54 128.06L551.8 128.06L551.79 128.36L551.79 128.66L551.79 128.95L551.81 129.25L551.83 129.54L551.85 129.84L551.88 130.13L551.92 130.42L551.97 130.71L552.02 131L552.07 131.28L552.14 131.57L552.21 131.85L552.28 132.13L552.36 132.41L552.45 132.69L552.55 132.97L552.65 133.24L552.75 133.51L552.86 133.78L552.98 134.05L553.1 134.31L553.23 134.57L553.37 134.83L553.51 135.09L553.65 135.34L553.8 135.59L553.96 135.83L554.12 136.08L554.29 136.32L554.46 136.55L554.64 136.79L554.82 137.01L555.01 137.24L555.21 137.46L555.41 137.68L555.61 137.89L555.82 138.1L556.04 138.31L556.26 138.51L556.47 138.67L556.69 138.83L556.91 138.99L557.13 139.15L557.36 139.3L557.59 139.44L557.82 139.58L558.05 139.72L558.29 139.85L558.52 139.98L558.76 140.1L559 140.22L559.25 140.34L559.49 140.45L559.74 140.55L559.99 140.66L560.24 140.75L560.49 140.85L560.74 140.94L561 141.02L561.25 141.1L561.51 141.17L561.77 141.24L562.03 141.31L562.29 141.37L562.55 141.43L562.82 141.48L563.08 141.53L563.35 141.57L563.61 141.61L563.88 141.64L564.15 141.67L564.42 141.7L564.69 141.72L564.96 141.73L565.23 141.74L565.5 141.75L565.77 141.75L566.04 141.74L566.31 141.73L566.63 141.73L566.95 141.73L567.27 141.73L567.58 141.73L567.9 141.72L568.22 141.7L568.54 141.69L568.85 141.67L569.17 141.65L569.49 141.63L569.8 141.6L570.12 141.57L570.44 141.54L570.75 141.5L571.07 141.46L571.38 141.42L571.69 141.38L572.01 141.33L572.32 141.28L572.63 141.22L572.95 141.17L573.26 141.11L573.57 141.05L573.88 140.98L574.19 140.91L574.5 140.84L574.81 140.77L575.11 140.69L575.42 140.61L575.73 140.53L576.03 140.45L576.34 140.36L576.64 140.27L576.95 140.17L577.25 140.08L577.55 139.98L577.85 139.87L578.15 139.77L578.45 139.66L578.75 139.55L580.36 146.66L579.99 146.81L579.62 146.96L579.25 147.1L578.88 147.23L578.5 147.37L578.13 147.5L577.75 147.62L577.37 147.74L577 147.86L576.62 147.97L576.24 148.08L575.86 148.19L575.47 148.29L575.09 148.39L574.71 148.48L574.32 148.57L573.94 148.66L573.55 148.74L573.16 148.81L572.77 148.89L572.38 148.96L571.99 149.02L571.6 149.09L571.21 149.14L570.82 149.2L570.43 149.25L570.04 149.29L569.64 149.33L569.25 149.37L568.85 149.4L568.46 149.43L568.06 149.46L567.67 149.48L567.27 149.5L566.88 149.51L566.48 149.52L566.08 149.52L565.69 149.53L565.29 149.52L564.89 149.51L564.43 149.54L563.96 149.55L563.49 149.55L563.02 149.54L562.56 149.52L562.09 149.49L561.63 149.46L561.17 149.41L560.71 149.35L560.25 149.29L559.8 149.21L559.34 149.13L558.89 149.04L558.44 148.93L558 148.82L557.55 148.7L557.11 148.57L556.67 148.43L556.24 148.28L555.81 148.13L555.38 147.96L554.95 147.79L554.53 147.6L554.11 147.41L553.7 147.21L553.29 147L552.88 146.78L552.48 146.56L552.08 146.32L551.69 146.08L551.3 145.83L550.92 145.57L550.54 145.3L550.16 145.03L549.8 144.74L549.43 144.45L549.08 144.15L548.73 143.84L548.38 143.53L548.04 143.2L547.73 142.86L547.42 142.5L547.12 142.14L546.83 141.78L546.55 141.41L546.28 141.04L546.01 140.66L545.75 140.27L545.5 139.89L545.26 139.49L545.02 139.1L544.8 138.7L544.58 138.29L544.37 137.88L544.16 137.47L543.97 137.05L543.78 136.63L543.61 136.21L543.44 135.78L543.28 135.35L543.13 134.92L542.98 134.48L542.85 134.04L542.72 133.6L542.61 133.15L542.5 132.71L542.4 132.26L542.31 131.8L542.22 131.35L542.15 130.9L542.09 130.44L542.03 129.98L541.99 129.52L541.95 129.06L541.92 128.59L541.9 128.13L541.89 127.66L541.89 127.2L541.9 126.73L541.92 126.26L541.91 125.79L541.9 125.32L541.91 124.85L541.92 124.38L541.94 123.92L541.97 123.45L542.01 122.98L542.05 122.52L542.11 122.05L542.17 121.59L542.24 121.13L542.31 120.67L542.4 120.22L542.49 119.76L542.6 119.31L542.71 118.86L542.82 118.41L542.95 117.96L543.08 117.51L543.22 117.07L543.37 116.63L543.53 116.19L543.69 115.76L543.86 115.33L544.04 114.9L544.23 114.47L544.42 114.05L544.63 113.63L544.83 113.22L545.05 112.81L545.28 112.4L545.51 111.99L545.75 111.59L545.99 111.19L546.25 110.8L546.51 110.41L546.78 110.03L547.05 109.64L547.33 109.27L547.62 108.9L547.92 108.53L548.22 108.18L548.53 107.83L548.85 107.49L549.18 107.16L549.51 106.84L549.85 106.53L550.19 106.23L550.55 105.93L550.91 105.64L551.27 105.36L551.64 105.1L552.02 104.84L552.4 104.58L552.79 104.34L553.18 104.11L553.58 103.89L553.98 103.67L554.39 103.47L554.8 103.27L555.22 103.09L555.64 102.91L556.07 102.75L556.49 102.59L556.93 102.44L557.36 102.31L557.8 102.18L558.25 102.07L558.69 101.96L559.14 101.87L559.59 101.78L560.05 101.71L560.5 101.64L560.96 101.59L561.42 101.55L561.88 101.52L562.35 101.49L562.81 101.48L563.28 101.49L563.75 101.5L564.2 101.48L564.64 101.47L565.09 101.48L565.53 101.49ZM562.1 108.63L561.24 108.73L560.39 108.91L559.57 109.16L558.77 109.48L558 109.87L557.28 110.33L556.59 110.85L555.95 111.44L555.36 112.08L554.83 112.78L554.37 113.42L553.94 114.09L553.56 114.77L553.2 115.47L552.89 116.19L552.61 116.92L552.37 117.66L552.17 118.42L552 119.19L551.88 119.97L551.79 120.75L573.14 120.75L573.03 119.78L572.91 118.85L572.77 117.98L572.62 117.16L572.45 116.39L572.27 115.68L572.08 115.01L571.87 114.4L571.64 113.84L571.4 113.33L571.15 112.88L570.65 112.14L570.08 111.46L569.45 110.84L568.77 110.3L568.04 109.82L567.27 109.42L566.46 109.09L565.62 108.84L564.76 108.68L563.88 108.6L562.98 108.6L562.1 108.63Z" id="a2Tu03Zry4"></path><path d="M537.08 111.54C536.01 111.35 534.93 111.26 533.85 111.26C530.55 111.11 527.4 112.65 525.49 115.35C523.7 118.04 522.81 121.23 522.93 124.46C522.93 126.07 522.93 134.14 522.93 148.66L512.69 148.66C512.75 129.7 512.78 119.16 512.79 117.06C512.79 111.74 512.66 106.9 512.4 102.54L521.33 102.54L521.7 111.36C521.87 111.36 521.97 111.36 521.98 111.36C522.95 108.48 524.73 105.95 527.11 104.06C529.25 102.46 531.84 101.59 534.52 101.58C535.37 101.58 536.23 101.64 537.08 101.77C537.08 103.73 537.08 109.59 537.08 111.54Z" id="b2pV7abYz9"></path><path d="M481.55 101.59L482.19 101.57L482.82 101.58L483.46 101.6L484.09 101.64L484.71 101.7L485.34 101.78L485.96 101.87L486.57 101.99L487.19 102.12L487.79 102.27L488.39 102.44L488.99 102.63L489.58 102.83L490.16 103.05L490.74 103.29L491.31 103.54L491.87 103.82L492.42 104.1L492.97 104.41L493.51 104.73L494.03 105.07L494.55 105.42L495.06 105.79L495.56 106.18L496.04 106.58L496.52 106.99L496.98 107.42L497.43 107.87L497.87 108.33L498.29 108.82L498.68 109.32L499.07 109.82L499.44 110.34L499.79 110.86L500.13 111.4L500.46 111.94L500.77 112.48L501.07 113.04L501.35 113.6L501.62 114.17L501.87 114.75L502.11 115.33L502.33 115.91L502.54 116.51L502.73 117.11L502.9 117.71L503.06 118.32L503.21 118.93L503.34 119.54L503.45 120.16L503.55 120.79L503.63 121.41L503.69 122.04L503.74 122.67L503.77 123.31L503.79 123.94L503.79 124.58L503.77 125.22L503.78 125.87L503.78 126.53L503.77 127.19L503.73 127.84L503.68 128.5L503.62 129.15L503.53 129.79L503.43 130.44L503.31 131.08L503.18 131.71L503.03 132.35L502.87 132.97L502.68 133.6L502.49 134.21L502.27 134.83L502.04 135.44L501.8 136.04L501.54 136.63L501.26 137.22L500.97 137.8L500.67 138.38L500.35 138.94L500.01 139.5L499.66 140.05L499.3 140.6L498.92 141.13L498.52 141.66L498.11 142.17L497.69 142.68L497.24 143.16L496.77 143.62L496.29 144.07L495.8 144.51L495.3 144.92L494.78 145.33L494.26 145.71L493.72 146.08L493.18 146.43L492.62 146.77L492.06 147.08L491.49 147.38L490.91 147.67L490.32 147.93L489.72 148.18L489.11 148.41L488.5 148.62L487.89 148.82L487.26 148.99L486.63 149.15L486 149.29L485.36 149.41L484.72 149.51L484.07 149.59L483.42 149.65L482.77 149.69L482.11 149.72L481.45 149.72L480.79 149.7L480.16 149.72L479.53 149.72L478.9 149.7L478.27 149.66L477.65 149.6L477.03 149.52L476.41 149.43L475.8 149.31L475.19 149.18L474.59 149.03L473.99 148.86L473.4 148.68L472.82 148.48L472.24 148.25L471.67 148.02L471.1 147.76L470.55 147.49L470 147.2L469.46 146.9L468.93 146.57L468.41 146.24L467.89 145.88L467.39 145.51L466.9 145.13L466.42 144.73L465.95 144.31L465.49 143.88L465.05 143.43L464.62 142.97L464.2 142.48L463.8 141.98L463.41 141.47L463.03 140.95L462.67 140.42L462.33 139.89L462 139.35L461.68 138.79L461.38 138.24L461.09 137.67L460.82 137.1L460.56 136.52L460.32 135.94L460.09 135.34L459.88 134.75L459.69 134.15L459.5 133.54L459.34 132.93L459.19 132.31L459.06 131.69L458.94 131.07L458.84 130.44L458.75 129.81L458.68 129.18L458.63 128.54L458.6 127.9L458.58 127.26L458.57 126.62L458.59 125.98L458.57 125.31L458.57 124.65L458.59 123.99L458.62 123.33L458.67 122.67L458.74 122.02L458.83 121.37L458.93 120.72L459.05 120.07L459.19 119.43L459.34 118.79L459.51 118.16L459.7 117.54L459.9 116.91L460.12 116.3L460.35 115.69L460.6 115.08L460.87 114.48L461.15 113.89L461.45 113.31L461.76 112.73L462.09 112.16L462.43 111.6L462.79 111.05L463.16 110.51L463.55 109.97L463.95 109.45L464.37 108.93L464.8 108.43L465.26 107.96L465.72 107.5L466.2 107.06L466.68 106.63L467.18 106.23L467.7 105.83L468.22 105.46L468.75 105.1L469.29 104.75L469.84 104.42L470.4 104.11L470.97 103.82L471.54 103.54L472.13 103.29L472.72 103.04L473.32 102.82L473.92 102.61L474.53 102.43L475.15 102.26L475.77 102.11L476.4 101.97L477.03 101.86L477.67 101.76L478.31 101.68L478.95 101.63L479.6 101.59L480.25 101.57L480.9 101.57L481.55 101.59ZM479.89 109.13L479.25 109.21L478.62 109.33L478.01 109.49L477.41 109.69L476.82 109.92L476.25 110.19L475.69 110.49L475.16 110.83L474.65 111.2L474.16 111.6L473.69 112.03L473.25 112.49L472.84 112.97L472.46 113.49L472.11 114.03L471.79 114.6L471.47 115.17L471.18 115.75L470.91 116.33L470.65 116.92L470.41 117.52L470.19 118.13L469.99 118.74L469.81 119.36L469.64 119.98L469.5 120.61L469.37 121.24L469.27 121.87L469.18 122.51L469.11 123.15L469.06 123.8L469.03 124.44L469.03 125.09L469.04 125.74L469.03 126.38L469.04 127.01L469.07 127.65L469.12 128.28L469.19 128.91L469.28 129.54L469.38 130.16L469.51 130.78L469.65 131.4L469.82 132.01L470 132.62L470.2 133.22L470.42 133.81L470.66 134.4L470.91 134.98L471.19 135.56L471.48 136.12L471.79 136.68L472.28 137.5L472.83 138.26L473.43 138.96L474.09 139.59L474.8 140.16L475.55 140.66L476.33 141.1L477.15 141.46L477.99 141.75L478.86 141.97L479.74 142.12L480.64 142.19L481.54 142.19L482.44 142.1L483.34 141.94L484.23 141.69L485.11 141.37L485.97 140.95L486.27 140.78L486.57 140.6L486.86 140.41L487.15 140.22L487.42 140.01L487.69 139.79L487.96 139.57L488.21 139.33L488.46 139.09L488.7 138.84L488.93 138.59L489.15 138.32L489.36 138.05L489.57 137.77L489.76 137.48L489.95 137.19L490.13 136.89L490.29 136.58L490.61 136.02L490.91 135.45L491.19 134.87L491.45 134.29L491.7 133.7L491.92 133.1L492.13 132.49L492.32 131.88L492.48 131.26L492.63 130.64L492.76 130.02L492.88 129.39L492.97 128.75L493.04 128.12L493.09 127.48L493.13 126.83L493.14 126.19L493.13 125.55L493.14 124.91L493.13 124.27L493.1 123.64L493.05 123L492.98 122.37L492.9 121.74L492.79 121.12L492.66 120.5L492.52 119.88L492.35 119.27L492.17 118.67L491.97 118.07L491.75 117.47L491.52 116.88L491.26 116.3L490.99 115.73L490.69 115.16L490.39 114.6L490.08 114.04L489.73 113.5L489.36 112.99L488.96 112.51L488.53 112.05L488.08 111.62L487.6 111.23L487.1 110.86L486.58 110.52L486.03 110.22L485.47 109.95L484.9 109.72L484.31 109.52L483.7 109.35L483.09 109.23L482.46 109.14L481.83 109.09L481.19 109.08L480.53 109.09L479.89 109.13Z" id="g1zIfCTAPE"></path><path d="M452.8 110.22L441.5 110.22C441.5 123.66 441.5 131.13 441.5 132.62C441.5 141.16 446.89 140.31 447.48 141.16C449.02 141.19 450.54 141.03 452.04 140.68C452.06 141.46 452.29 147.69 452.32 148.47C449.75 149.31 447.05 149.69 444.35 149.6C440.8 149.8 437.34 148.45 434.86 145.9C432.24 142.31 431.02 137.89 431.44 133.46C431.44 131.91 431.44 124.16 431.44 110.21L424.71 110.21L424.71 102.52L431.44 102.52L431.44 94.08L441.5 91.04L441.5 102.52L452.8 102.52L452.8 110.22Z" id="baCtIFdva"></path><path d="M413.23 144.01C408.33 147.99 402.11 149.99 395.81 149.61C390.02 149.88 384.27 148.5 379.23 145.62C379.47 144.77 381.37 137.93 381.61 137.08C386.07 139.79 391.2 141.21 396.42 141.17C399.64 141.36 402.83 140.44 405.44 138.55C407.56 136.87 408.76 134.27 408.66 131.56C408.72 129.1 407.76 126.73 406 125.01C403.44 122.77 400.43 121.08 397.18 120.06C380.38 113.79 382.06 103.55 380.38 101.72C380.26 96.73 382.43 91.97 386.27 88.79C390.7 85.26 396.27 83.46 401.93 83.75C406.95 83.58 411.93 84.62 416.45 86.79C416.19 87.63 414.15 94.31 413.89 95.15C410.12 93.15 405.91 92.13 401.65 92.21C398.6 92.02 395.6 92.97 393.21 94.86C391.55 96.33 390.62 98.44 390.65 100.66C390.6 103.09 391.68 105.4 393.58 106.92C396.4 109.05 399.54 110.72 402.89 111.86C407.48 113.48 411.64 116.14 415.04 119.63C417.67 122.72 419.05 126.67 418.92 130.72C419.09 135.77 417 140.64 413.23 144.01Z" id="a1KGiLTGyY"></path><path d="M341.37 101.62L342.08 101.67L342.78 101.76L343.48 101.87L344.18 102.01L344.87 102.18L345.56 102.38L346.25 102.6L346.93 102.85L347.6 103.14L348.27 103.45L348.92 103.79L349.57 104.16L350.21 104.55L350.32 104.63L350.43 104.7L350.54 104.78L350.65 104.85L350.75 104.93L350.86 105L350.97 105.08L351.08 105.16L351.18 105.24L351.29 105.32L351.39 105.4L351.49 105.48L351.6 105.56L351.7 105.64L351.8 105.73L351.9 105.81L352.01 105.89L352.11 105.98L352.21 106.07L352.3 106.15L352.4 106.24L352.5 106.33L352.6 106.42L352.69 106.51L352.79 106.6L352.89 106.69L352.98 106.78L353.07 106.87L353.17 106.97L353.26 107.06L353.35 107.15L353.44 107.25L353.53 107.35L353.62 107.44L353.71 107.54L353.8 107.64L353.89 107.74L353.98 107.84L354.06 107.94L354.15 108.04L354.43 108.4L354.71 108.77L354.97 109.14L355.23 109.52L355.49 109.9L355.73 110.28L355.97 110.67L356.2 111.07L356.43 111.46L356.65 111.86L356.86 112.27L357.06 112.67L357.25 113.08L357.44 113.5L357.62 113.91L357.8 114.33L357.96 114.76L358.12 115.18L358.27 115.61L358.41 116.04L358.54 116.47L358.67 116.91L358.79 117.34L358.9 117.78L359.01 118.23L359.1 118.67L359.19 119.12L359.27 119.56L359.34 120.01L359.41 120.46L359.46 120.91L359.51 121.37L359.55 121.82L359.58 122.28L359.6 122.73L359.62 123.19L359.63 123.65L359.63 124.11L359.62 124.57L359.6 125.03L359.62 125.54L359.64 126.05L359.64 126.55L359.63 127.06L359.62 127.57L359.59 128.07L359.55 128.57L359.51 129.08L359.45 129.58L359.39 130.08L359.32 130.57L359.23 131.07L359.14 131.56L359.04 132.05L358.92 132.54L358.8 133.03L358.67 133.51L358.53 133.99L358.39 134.47L358.23 134.95L358.06 135.42L357.89 135.89L357.7 136.35L357.51 136.82L357.31 137.27L357.09 137.73L356.87 138.18L356.65 138.63L356.41 139.07L356.16 139.51L355.91 139.94L355.64 140.37L355.37 140.8L355.09 141.22L354.8 141.63L354.51 142.04L354.2 142.45L353.89 142.84L353.56 143.24L353.23 143.63L352.96 143.92L352.68 144.21L352.4 144.49L352.11 144.77L351.81 145.03L351.51 145.29L351.2 145.55L350.89 145.8L350.58 146.04L350.26 146.27L349.93 146.49L349.6 146.71L349.27 146.92L348.93 147.13L348.59 147.32L348.24 147.51L347.89 147.7L347.54 147.87L347.18 148.04L346.82 148.2L346.46 148.35L346.09 148.49L345.73 148.63L345.35 148.76L344.98 148.88L344.6 148.99L344.22 149.09L343.84 149.19L343.45 149.28L343.06 149.36L342.67 149.43L342.28 149.5L341.89 149.55L341.49 149.6L341.1 149.64L340.7 149.67L340.3 149.69L339.9 149.7L339.5 149.71L339.1 149.7L338.7 149.73L338.31 149.74L337.92 149.75L337.53 149.74L337.14 149.73L336.76 149.7L336.37 149.66L335.99 149.61L335.61 149.55L335.23 149.48L334.86 149.41L334.49 149.32L334.12 149.22L333.75 149.11L333.39 148.99L333.03 148.86L332.68 148.73L332.33 148.58L331.98 148.42L331.64 148.26L331.3 148.08L330.97 147.9L330.64 147.71L330.31 147.5L330 147.29L329.69 147.08L329.38 146.85L329.08 146.61L328.78 146.37L328.5 146.12L328.21 145.85L327.94 145.59L327.67 145.31L327.41 145.02L327.16 144.73L326.91 144.43L326.67 144.12L326.44 143.81L326.22 143.49L326 143.16L325.81 143.16L325.81 167.45L315.56 167.45L315.56 117.72L315.56 117.35L315.56 116.98L315.56 116.61L315.56 116.23L315.56 115.86L315.55 115.49L315.55 115.12L315.55 114.74L315.54 114.37L315.54 113.99L315.53 113.62L315.53 113.24L315.52 112.87L315.52 112.49L315.51 112.11L315.5 111.74L315.49 111.36L315.49 110.98L315.48 110.6L315.47 110.22L315.46 109.84L315.45 109.46L315.44 109.08L315.43 108.7L315.41 108.32L315.4 107.94L315.39 107.55L315.38 107.17L315.36 106.79L315.35 106.4L315.34 106.02L315.32 105.63L315.3 105.25L315.29 104.86L315.27 104.47L315.26 104.09L315.24 103.7L315.22 103.31L315.2 102.92L315.18 102.53L324.2 102.53L324.77 109.84L324.96 109.84L325.39 109.22L325.83 108.62L326.3 108.05L326.78 107.5L327.28 106.97L327.8 106.46L328.34 105.98L328.89 105.53L329.46 105.09L330.05 104.68L330.64 104.3L331.25 103.94L331.87 103.61L332.51 103.3L333.15 103.01L333.8 102.75L334.46 102.52L335.13 102.31L335.81 102.13L336.49 101.97L337.18 101.84L337.87 101.74L338.57 101.66L339.27 101.61L339.97 101.58L340.67 101.59L341.37 101.62ZM336.31 109.78L335.88 109.82L335.44 109.89L335.01 109.97L334.58 110.07L334.16 110.18L333.74 110.31L333.33 110.47L332.93 110.63L332.53 110.82L332.14 111.02L331.75 111.23L331.38 111.46L331.02 111.71L330.66 111.98L330.32 112.25L329.96 112.56L329.62 112.87L329.29 113.2L328.97 113.54L328.67 113.89L328.39 114.26L328.12 114.63L327.86 115.01L327.62 115.41L327.4 115.81L327.19 116.22L326.99 116.64L326.82 117.07L326.66 117.51L326.52 117.95L326.39 118.4L326.29 118.85L326.24 119.03L326.19 119.22L326.15 119.4L326.11 119.58L326.07 119.76L326.04 119.94L326 120.13L325.97 120.31L325.95 120.49L325.92 120.68L325.9 120.86L325.88 121.05L325.86 121.23L325.84 121.42L325.83 121.61L325.82 121.79L325.81 121.98L325.81 129.67L325.81 130.22L325.83 130.77L325.88 131.31L325.95 131.85L326.04 132.39L326.16 132.91L326.29 133.44L326.46 133.96L326.64 134.46L326.85 134.96L327.07 135.46L327.32 135.94L327.6 136.41L327.89 136.87L328.2 137.31L328.53 137.75L328.89 138.17L329.25 138.56L329.64 138.94L330.04 139.29L330.46 139.61L330.89 139.92L331.34 140.2L331.8 140.46L332.27 140.69L332.76 140.9L333.25 141.09L333.75 141.24L334.27 141.38L334.79 141.48L335.31 141.56L335.84 141.61L336.38 141.64L336.92 141.64L337.54 141.64L338.17 141.61L338.78 141.54L339.39 141.44L339.99 141.3L340.58 141.13L341.15 140.93L341.72 140.69L342.26 140.42L342.79 140.11L343.31 139.78L343.8 139.42L344.27 139.02L344.72 138.6L345.15 138.15L345.55 137.68L345.93 137.17L346.32 136.55L346.69 135.92L347.04 135.27L347.36 134.62L347.65 133.95L347.92 133.27L348.16 132.59L348.38 131.9L348.57 131.19L348.74 130.49L348.88 129.77L348.99 129.05L349.08 128.33L349.14 127.6L349.17 126.87L349.18 126.14L349.16 125.4L349.17 124.71L349.16 124.02L349.13 123.33L349.07 122.64L348.99 121.96L348.88 121.28L348.74 120.61L348.59 119.94L348.41 119.28L348.2 118.63L347.97 117.98L347.72 117.34L347.44 116.71L347.15 116.09L346.83 115.48L346.48 114.89L346.12 114.3L345.75 113.79L345.35 113.31L344.93 112.86L344.49 112.44L344.02 112.04L343.54 111.67L343.03 111.33L342.51 111.03L341.96 110.75L341.41 110.51L340.84 110.29L340.25 110.11L339.66 109.97L339.06 109.86L338.44 109.78L337.82 109.74L337.2 109.74L336.76 109.75L336.31 109.78Z" id="i5zKvxAKDq"></path><path d="M288.31 101.61L289.01 101.67L289.72 101.76L290.42 101.87L291.11 102.01L291.81 102.18L292.5 102.37L293.18 102.6L293.86 102.85L294.54 103.13L295.2 103.44L295.86 103.78L296.5 104.15L297.14 104.55L297.25 104.62L297.36 104.7L297.47 104.77L297.58 104.85L297.69 104.92L297.8 105L297.9 105.08L298.01 105.15L298.12 105.23L298.22 105.31L298.33 105.39L298.43 105.47L298.53 105.56L298.64 105.64L298.74 105.72L298.84 105.81L298.94 105.89L299.04 105.98L299.14 106.06L299.24 106.15L299.34 106.24L299.44 106.33L299.53 106.42L299.63 106.51L299.73 106.6L299.82 106.69L299.92 106.78L300.01 106.87L300.1 106.96L300.2 107.06L300.29 107.15L300.38 107.25L300.47 107.34L300.56 107.44L300.65 107.54L300.74 107.64L300.83 107.74L300.91 107.84L301 107.94L301.09 108.04L301.37 108.4L301.64 108.77L301.91 109.14L302.17 109.52L302.43 109.9L302.68 110.28L302.92 110.67L303.15 111.06L303.37 111.46L303.59 111.86L303.8 112.26L304 112.67L304.2 113.08L304.39 113.49L304.57 113.91L304.74 114.33L304.91 114.75L305.06 115.18L305.21 115.61L305.36 116.04L305.49 116.47L305.62 116.91L305.74 117.34L305.85 117.78L305.95 118.22L306.05 118.67L306.14 119.11L306.22 119.56L306.29 120.01L306.35 120.46L306.41 120.91L306.46 121.37L306.5 121.82L306.53 122.28L306.55 122.73L306.57 123.19L306.57 123.65L306.57 124.11L306.56 124.57L306.55 125.03L306.57 125.54L306.58 126.05L306.58 126.55L306.58 127.06L306.56 127.57L306.54 128.07L306.5 128.57L306.45 129.08L306.4 129.58L306.34 130.08L306.26 130.57L306.18 131.07L306.08 131.56L305.98 132.05L305.87 132.54L305.75 133.03L305.62 133.51L305.48 133.99L305.33 134.47L305.18 134.95L305.01 135.42L304.83 135.89L304.65 136.35L304.46 136.81L304.25 137.27L304.04 137.73L303.82 138.18L303.59 138.63L303.36 139.07L303.11 139.51L302.86 139.94L302.59 140.37L302.32 140.8L302.04 141.22L301.75 141.63L301.46 142.04L301.15 142.44L300.84 142.84L300.52 143.24L300.19 143.63L299.91 143.92L299.63 144.21L299.35 144.49L299.06 144.77L298.76 145.03L298.46 145.29L298.15 145.55L297.84 145.79L297.53 146.03L297.21 146.27L296.88 146.49L296.55 146.71L296.22 146.92L295.88 147.13L295.54 147.32L295.19 147.51L294.84 147.7L294.49 147.87L294.13 148.04L293.77 148.2L293.41 148.35L293.04 148.49L292.67 148.63L292.3 148.76L291.93 148.88L291.55 148.99L291.17 149.09L290.78 149.19L290.4 149.28L290.01 149.36L289.62 149.43L289.23 149.49L288.84 149.55L288.44 149.6L288.05 149.64L287.65 149.67L287.25 149.69L286.85 149.7L286.45 149.71L286.04 149.7L285.65 149.73L285.26 149.74L284.87 149.75L284.48 149.74L284.09 149.73L283.7 149.7L283.32 149.66L282.94 149.61L282.56 149.55L282.18 149.48L281.81 149.41L281.43 149.32L281.06 149.22L280.7 149.11L280.34 148.99L279.98 148.86L279.62 148.72L279.27 148.58L278.92 148.42L278.58 148.26L278.24 148.08L277.91 147.9L277.58 147.71L277.26 147.5L276.94 147.29L276.63 147.08L276.32 146.85L276.02 146.61L275.73 146.37L275.44 146.11L275.16 145.85L274.88 145.59L274.61 145.31L274.35 145.02L274.1 144.73L273.85 144.43L273.61 144.12L273.38 143.81L273.16 143.49L272.95 143.16L272.75 143.16L272.75 167.45L262.51 167.45L262.51 117.72L262.51 117.35L262.51 116.98L262.5 116.61L262.5 116.23L262.5 115.86L262.5 115.49L262.5 115.12L262.49 114.74L262.49 114.37L262.48 113.99L262.48 113.62L262.47 113.24L262.47 112.87L262.46 112.49L262.45 112.11L262.45 111.74L262.44 111.36L262.43 110.98L262.42 110.6L262.41 110.22L262.4 109.84L262.39 109.46L262.38 109.08L262.37 108.7L262.36 108.32L262.35 107.94L262.33 107.55L262.32 107.17L262.31 106.79L262.29 106.4L262.28 106.02L262.26 105.63L262.25 105.25L262.23 104.86L262.22 104.47L262.2 104.09L262.18 103.7L262.16 103.31L262.15 102.92L262.13 102.53L271.14 102.53L271.71 109.84L271.9 109.84L272.33 109.22L272.77 108.62L273.24 108.05L273.72 107.5L274.22 106.97L274.74 106.46L275.28 105.98L275.83 105.53L276.4 105.09L276.99 104.69L277.58 104.3L278.19 103.94L278.81 103.61L279.44 103.3L280.09 103.01L280.74 102.75L281.4 102.52L282.07 102.31L282.74 102.13L283.43 101.97L284.11 101.84L284.81 101.74L285.5 101.66L286.2 101.61L286.9 101.58L287.61 101.58L288.31 101.61ZM283.26 109.78L282.82 109.82L282.38 109.89L281.95 109.97L281.53 110.07L281.1 110.18L280.69 110.31L280.28 110.47L279.87 110.63L279.47 110.82L279.08 111.02L278.7 111.23L278.33 111.46L277.96 111.71L277.61 111.98L277.26 112.25L276.91 112.56L276.56 112.87L276.24 113.2L275.92 113.54L275.62 113.89L275.33 114.26L275.06 114.63L274.81 115.01L274.57 115.41L274.34 115.81L274.13 116.22L273.94 116.64L273.76 117.07L273.6 117.51L273.46 117.95L273.34 118.4L273.23 118.85L273.18 119.03L273.14 119.22L273.09 119.4L273.05 119.58L273.01 119.76L272.98 119.94L272.95 120.13L272.91 120.31L272.89 120.49L272.86 120.68L272.84 120.86L272.82 121.05L272.8 121.23L272.78 121.42L272.77 121.61L272.76 121.79L272.75 121.98L272.75 129.67L272.75 130.22L272.77 130.77L272.82 131.31L272.89 131.85L272.98 132.39L273.1 132.92L273.24 133.44L273.4 133.96L273.59 134.47L273.79 134.97L274.02 135.46L274.27 135.94L274.54 136.41L274.84 136.87L275.15 137.31L275.49 137.75L275.84 138.17L276.21 138.56L276.59 138.94L276.99 139.29L277.41 139.61L277.84 139.92L278.29 140.2L278.75 140.46L279.22 140.69L279.7 140.9L280.2 141.09L280.7 141.24L281.21 141.38L281.73 141.48L282.26 141.56L282.79 141.61L283.32 141.64L283.86 141.64L284.49 141.64L285.11 141.61L285.72 141.54L286.33 141.44L286.93 141.3L287.52 141.13L288.1 140.93L288.66 140.69L289.21 140.42L289.74 140.11L290.25 139.78L290.74 139.42L291.22 139.02L291.67 138.6L292.09 138.15L292.5 137.68L292.87 137.17L293.27 136.55L293.64 135.92L293.98 135.28L294.3 134.62L294.6 133.95L294.87 133.28L295.11 132.59L295.33 131.9L295.52 131.19L295.69 130.49L295.83 129.77L295.94 129.05L296.03 128.33L296.09 127.6L296.12 126.87L296.13 126.14L296.11 125.4L296.12 124.71L296.11 124.02L296.08 123.33L296.02 122.64L295.93 121.96L295.82 121.29L295.69 120.61L295.53 119.94L295.35 119.28L295.15 118.63L294.92 117.98L294.67 117.34L294.39 116.71L294.1 116.09L293.77 115.48L293.43 114.89L293.07 114.3L292.7 113.79L292.3 113.31L291.88 112.86L291.44 112.44L290.97 112.04L290.48 111.67L289.98 111.34L289.45 111.03L288.91 110.75L288.35 110.51L287.78 110.29L287.2 110.11L286.6 109.97L286 109.86L285.39 109.78L284.77 109.74L284.14 109.74L283.7 109.75L283.26 109.78Z" id="d81NDhXi3t"></path><path d="M242.67 148.66L236.69 129.87L215.91 129.87L210.21 148.66L199.58 148.66L220.17 84.69L232.89 84.69L253.59 148.66L242.67 148.66ZM225.93 93.79L225.79 94.39L225.64 95.02L225.48 95.68L225.31 96.38L225.12 97.12L224.93 97.88L224.73 98.69L224.52 99.53L224.29 100.4L224.06 101.31L223.82 102.25L223.56 103.22L223.3 104.24L223.02 105.28L217.71 121.99L234.89 121.99L229.48 105.28L229.36 104.91L229.23 104.48L229.08 103.98L228.92 103.42L228.74 102.8L228.55 102.12L228.35 101.38L228.14 100.58L227.91 99.71L227.67 98.79L227.41 97.8L227.14 96.75L226.86 95.64L226.56 94.46L226.26 93.23L226.06 93.23L225.93 93.79Z" id="g76IgXbyoY"></path><path d="M570.3 38.66L570.75 38.73L571.2 38.81L571.63 38.92L572.07 39.05L572.49 39.2L572.9 39.38L573.3 39.58L573.7 39.8L574.08 40.04L574.44 40.3L574.8 40.58L575.14 40.88L575.46 41.2L575.77 41.53L576.06 41.89L576.33 42.26L576.55 42.6L576.75 42.94L576.94 43.29L577.12 43.64L577.29 44L577.45 44.36L577.59 44.73L577.73 45.1L577.85 45.48L577.95 45.86L578.05 46.24L578.13 46.63L578.2 47.02L578.26 47.41L578.3 47.8L578.33 48.2L578.35 48.59L578.36 48.99L578.35 49.39L578.35 49.51L578.35 49.63L578.35 49.75L578.35 49.87L578.34 50L578.34 50.12L578.33 50.24L578.33 50.36L578.32 50.48L578.31 50.6L578.3 50.72L578.28 50.84L578.27 50.96L578.26 51.08L578.24 51.2L578.22 51.32L578.2 51.44L578.18 51.56L578.16 51.67L563.06 51.67L563.05 51.98L563.06 52.29L563.09 52.59L563.13 52.89L563.18 53.19L563.25 53.48L563.33 53.77L563.42 54.06L563.52 54.34L563.64 54.62L563.77 54.89L563.92 55.15L564.07 55.41L564.24 55.66L564.42 55.91L564.61 56.15L564.81 56.37L565.02 56.59L565.24 56.8L565.47 56.97L565.7 57.13L565.93 57.28L566.17 57.43L566.42 57.56L566.67 57.68L566.92 57.8L567.18 57.9L567.44 57.99L567.71 58.08L567.97 58.15L568.24 58.22L568.52 58.27L568.79 58.32L569.07 58.35L569.35 58.38L569.63 58.39L569.91 58.4L570.19 58.39L570.52 58.39L570.85 58.39L571.18 58.37L571.5 58.36L571.83 58.33L572.16 58.3L572.48 58.26L572.81 58.22L573.13 58.17L573.46 58.11L573.78 58.05L574.1 57.98L574.42 57.9L574.73 57.82L575.05 57.73L575.37 57.64L575.68 57.54L575.99 57.43L576.3 57.32L577.09 60.82L576.7 60.97L576.32 61.11L575.93 61.25L575.54 61.37L575.15 61.49L574.75 61.6L574.36 61.7L573.96 61.79L573.56 61.87L573.16 61.94L572.75 62.01L572.35 62.07L571.94 62.11L571.53 62.15L571.12 62.18L570.71 62.2L570.3 62.22L569.89 62.22L569.48 62.22L569 62.23L568.52 62.23L568.04 62.2L567.56 62.15L567.09 62.09L566.62 62L566.15 61.89L565.7 61.76L565.24 61.62L564.8 61.45L564.36 61.26L563.93 61.06L563.51 60.83L563.1 60.59L562.7 60.33L562.31 60.05L561.93 59.76L561.56 59.45L561.21 59.12L560.89 58.75L560.59 58.38L560.3 57.99L560.03 57.6L559.78 57.19L559.55 56.78L559.33 56.35L559.13 55.92L558.95 55.48L558.79 55.03L558.65 54.58L558.52 54.12L558.42 53.66L558.33 53.19L558.27 52.72L558.22 52.24L558.2 51.76L558.19 51.28L558.21 50.8L558.2 50.31L558.21 49.82L558.23 49.34L558.28 48.86L558.34 48.38L558.42 47.91L558.52 47.44L558.64 46.97L558.77 46.51L558.92 46.05L559.09 45.6L559.27 45.16L559.47 44.72L559.68 44.29L559.92 43.87L560.16 43.45L560.43 43.05L560.71 42.65L561 42.26L561.31 41.89L561.64 41.54L561.98 41.2L562.34 40.89L562.71 40.59L563.09 40.31L563.49 40.05L563.9 39.82L564.32 39.6L564.75 39.4L565.18 39.23L565.63 39.07L566.08 38.94L566.54 38.83L567.01 38.74L567.48 38.68L567.96 38.64L568.44 38.62L568.92 38.63L569.39 38.62L569.85 38.63L570.3 38.66ZM566.72 42.45L565.9 42.87L565.16 43.45L564.55 44.17L564.08 44.88L563.69 45.63L563.39 46.42L563.18 47.25L563.06 48.09L573.54 48.09L573.54 47.28L573.43 46.47L573.24 45.69L572.95 44.94L572.57 44.22L571.98 43.46L571.26 42.85L570.43 42.42L569.52 42.17L568.56 42.12L567.62 42.2L566.72 42.45Z" id="hh0nYYFQR"></path><path d="M550.84 61.79L545.8 61.79C545.8 54.06 545.8 49.77 545.8 48.91C545.8 42.82 541.69 43.43 541.24 42.82C539.01 42.74 537.02 44.2 536.43 46.35C536.26 46.94 536.19 47.55 536.2 48.16C536.2 49.07 536.2 53.61 536.2 61.79L531.16 61.79L531.16 28.74L536.2 28.74L536.2 42.39C536.25 42.39 536.28 42.39 536.29 42.39C537.71 40 540.32 38.57 543.1 38.67C545.03 38.61 546.91 39.35 548.28 40.72C550.12 42.8 551.05 45.54 550.84 48.32C550.84 50.12 550.84 54.61 550.84 61.79Z" id="bBq3jR48q"></path><path d="M518.63 42.91C518.63 49.51 518.63 53.18 518.63 53.91C518.63 56.71 519.61 58.11 521.56 58.11C522.32 58.13 523.07 58.05 523.81 57.88C523.82 58.26 523.93 61.31 523.94 61.7C522.68 62.11 521.35 62.3 520.03 62.26C518.28 62.36 516.58 61.69 515.37 60.44C514.07 58.68 513.48 56.51 513.68 54.33C513.68 53.57 513.68 49.76 513.68 42.91L510.37 42.91L510.37 39.13L513.68 39.13L513.68 34.98L518.62 33.49L518.62 39.13L524.17 39.13L524.17 42.91L518.63 42.91Z" id="aICP5FSzq"></path><path d="M490.27 61.79L485.24 61.79C485.24 54.01 485.24 49.68 485.24 48.81C485.24 42.82 481.12 43.42 480.67 42.82C479.26 42.77 477.92 43.38 477.03 44.46C476.11 45.54 475.61 46.93 475.63 48.35C475.63 49.24 475.63 53.72 475.63 61.79L470.59 61.79C470.59 52.08 470.59 46.69 470.59 45.61C470.59 43.62 470.53 41.46 470.41 39.12C470.71 39.12 472.18 39.12 474.84 39.12L475.07 42.67C475.15 42.67 475.2 42.67 475.21 42.67C475.83 41.54 476.73 40.6 477.82 39.93C479.19 39.08 480.78 38.64 482.39 38.66C484.35 38.6 486.26 39.34 487.66 40.71C489.53 42.74 490.48 45.46 490.27 48.22C490.27 50.03 490.27 54.55 490.27 61.79Z" id="b2f6xGv9mE"></path><path d="M452.92 38.67L453.57 38.7L454.2 38.77L454.83 38.88L455.45 39.03L456.05 39.22L456.65 39.44L457.23 39.7L457.79 40L458.33 40.33L458.86 40.69L459.36 41.09L459.84 41.52L460.29 41.98L460.7 42.48L461.08 43L461.43 43.54L461.75 44.1L462.04 44.67L462.3 45.25L462.53 45.85L462.72 46.46L462.88 47.08L463.01 47.71L463.11 48.34L463.17 48.98L463.19 49.63L463.18 50.28L463.19 50.95L463.16 51.61L463.1 52.28L463 52.93L462.87 53.58L462.7 54.22L462.5 54.85L462.27 55.47L462 56.07L461.7 56.66L461.37 57.24L461.01 57.8L460.62 58.34L460.2 58.86L459.73 59.34L459.23 59.78L458.71 60.2L458.17 60.58L457.61 60.92L457.03 61.23L456.43 61.5L455.81 61.73L455.18 61.93L454.54 62.09L453.89 62.2L453.23 62.28L452.57 62.31L451.89 62.31L451.25 62.32L450.61 62.28L449.98 62.21L449.36 62.1L448.74 61.95L448.14 61.76L447.55 61.54L446.98 61.28L446.42 60.98L445.88 60.65L445.36 60.29L444.86 59.89L444.39 59.46L443.94 59L443.53 58.49L443.14 57.97L442.79 57.43L442.46 56.87L442.17 56.29L441.9 55.71L441.67 55.1L441.47 54.49L441.31 53.87L441.18 53.24L441.08 52.6L441.01 51.95L440.98 51.3L440.99 50.65L440.98 49.97L441.01 49.3L441.07 48.64L441.17 47.97L441.31 47.32L441.48 46.68L441.68 46.04L441.92 45.42L442.2 44.82L442.5 44.22L442.84 43.65L443.21 43.09L443.61 42.55L444.04 42.03L444.51 41.56L445 41.12L445.52 40.71L446.06 40.34L446.62 40.01L447.2 39.71L447.79 39.44L448.4 39.22L449.02 39.03L449.66 38.88L450.3 38.76L450.95 38.69L451.61 38.66L452.28 38.67L452.92 38.67ZM450.68 42.51L450.01 42.73L449.39 43.04L448.82 43.44L448.3 43.91L447.85 44.45L447.47 45.06L447.14 45.69L446.85 46.35L446.61 47.02L446.42 47.7L446.27 48.4L446.17 49.1L446.12 49.81L446.12 50.53L446.12 51.24L446.18 51.94L446.28 52.63L446.42 53.31L446.62 53.99L446.86 54.64L447.14 55.29L447.47 55.91L447.84 56.51L448.29 57.05L448.8 57.52L449.37 57.91L449.99 58.22L450.64 58.45L451.33 58.58L452.04 58.62L452.75 58.58L453.43 58.43L454.08 58.2L454.69 57.88L455.26 57.49L455.76 57.01L456.2 56.47L456.56 55.86L456.9 55.23L457.19 54.59L457.44 53.93L457.64 53.25L457.79 52.56L457.9 51.86L457.96 51.15L457.96 50.44L457.96 49.73L457.91 49.03L457.81 48.34L457.66 47.66L457.46 46.98L457.23 46.33L456.94 45.68L456.61 45.06L456.25 44.46L455.81 43.92L455.3 43.45L454.74 43.06L454.13 42.75L453.48 42.52L452.79 42.39L452.09 42.35L451.37 42.38L450.68 42.51Z" id="gNF81dPoK"></path><path d="M419.92 55.99L419.92 56.29L419.92 56.58L419.93 56.87L419.93 57.17L419.93 57.46L419.94 57.74L419.94 58.03L419.95 58.31L419.96 58.59L419.97 58.87L419.97 59.15L419.98 59.42L419.99 59.69L420 59.96L420.02 60.23L420.03 60.5L420.04 60.76L420.05 61.02L420.07 61.28L420.08 61.54L420.1 61.79L415.63 61.79L415.39 58.15L415.25 58.15L415.06 58.52L414.85 58.87L414.62 59.21L414.37 59.53L414.11 59.84L413.83 60.13L413.54 60.41L413.23 60.66L412.92 60.91L412.59 61.13L412.25 61.34L411.89 61.52L411.53 61.69L411.16 61.84L410.79 61.98L410.4 62.09L410.01 62.18L409.61 62.25L409.21 62.29L408.8 62.32L408.39 62.33L407.98 62.31L407.62 62.31L407.26 62.29L406.9 62.26L406.55 62.21L406.2 62.15L405.86 62.07L405.51 61.99L405.18 61.88L404.85 61.77L404.52 61.64L404.2 61.49L403.88 61.33L403.58 61.17L403.27 60.98L402.98 60.79L402.7 60.58L402.42 60.36L402.15 60.13L401.89 59.89L401.64 59.63L401.4 59.37L401.17 59.09L400.92 58.77L400.68 58.43L400.45 58.09L400.24 57.75L400.03 57.39L399.84 57.03L399.66 56.67L399.49 56.3L399.34 55.93L399.2 55.55L399.06 55.16L398.95 54.78L398.84 54.38L398.75 53.99L398.67 53.59L398.6 53.19L398.54 52.79L398.5 52.38L398.47 51.98L398.46 51.57L398.46 51.16L398.47 50.75L398.45 50.31L398.46 49.87L398.47 49.43L398.5 49L398.55 48.56L398.61 48.13L398.68 47.7L398.77 47.28L398.87 46.85L398.99 46.44L399.11 46.02L399.26 45.61L399.41 45.21L399.58 44.81L399.77 44.42L399.96 44.03L400.17 43.65L400.39 43.27L400.63 42.9L400.87 42.54L401.13 42.19L401.4 41.84L401.65 41.57L401.9 41.3L402.16 41.05L402.43 40.81L402.71 40.59L403 40.37L403.3 40.17L403.6 39.97L403.91 39.79L404.22 39.63L404.55 39.47L404.88 39.33L405.21 39.2L405.55 39.09L405.89 38.99L406.24 38.9L406.59 38.82L406.95 38.76L407.31 38.72L407.67 38.69L408.03 38.67L408.4 38.67L408.74 38.64L409.09 38.63L409.43 38.64L409.77 38.67L410.11 38.71L410.44 38.77L410.77 38.85L411.09 38.94L411.41 39.05L411.72 39.17L412.02 39.31L412.32 39.46L412.61 39.63L412.89 39.81L413.17 40L413.43 40.21L413.68 40.44L413.93 40.67L414.16 40.92L414.38 41.18L414.59 41.46L414.78 41.74L414.88 41.74L414.88 28.74L419.92 28.74L419.92 55.69L419.92 55.99ZM408.25 42.71L407.64 42.88L407.05 43.14L406.49 43.46L405.98 43.85L405.52 44.31L405.12 44.83L404.72 45.47L404.37 46.15L404.09 46.85L403.85 47.56L403.68 48.3L403.56 49.04L403.5 49.8L403.5 50.56L403.5 51.29L403.55 52L403.66 52.72L403.83 53.41L404.05 54.1L404.33 54.76L404.66 55.4L405.05 56.02L405.45 56.53L405.91 56.98L406.42 57.37L406.97 57.69L407.55 57.94L408.16 58.12L408.8 58.23L409.45 58.25L410.03 58.24L410.59 58.15L411.14 58L411.66 57.79L412.16 57.52L412.62 57.2L413.05 56.82L413.43 56.38L413.77 55.94L414.07 55.46L414.33 54.96L414.53 54.44L414.69 53.91L414.81 53.36L414.87 52.8L414.88 52.24L414.88 48.46L414.88 48.26L414.88 48.06L414.87 47.86L414.85 47.66L414.83 47.46L414.81 47.27L414.78 47.07L414.74 46.87L414.62 46.43L414.47 46.01L414.29 45.6L414.07 45.2L413.83 44.82L413.55 44.47L413.25 44.13L412.92 43.82L412.56 43.53L412.17 43.28L411.77 43.06L411.35 42.89L410.91 42.75L410.47 42.65L410.01 42.6L409.55 42.59L408.89 42.6L408.25 42.71Z" id="d1xYgWF71d"></path><path d="M383.17 38.7L384.03 38.78L384.84 38.91L385.6 39.09L386.32 39.32L386.98 39.61L387.6 39.94L388.16 40.33L388.68 40.78L389.15 41.27L389.57 41.81L389.94 42.41L390.26 43.06L390.53 43.76L390.75 44.51L390.92 45.32L391.05 46.18L391.12 47.09L391.15 48.05L391.15 56.39L391.14 56.68L391.14 56.96L391.14 57.25L391.15 57.53L391.15 57.82L391.16 58.1L391.17 58.39L391.18 58.67L391.2 58.96L391.22 59.24L391.24 59.52L391.26 59.81L391.28 60.09L391.31 60.38L391.34 60.66L391.37 60.94L391.4 61.23L391.44 61.51L391.47 61.79L386.95 61.79L386.58 59.18L386.44 59.18L386.19 59.5L385.92 59.81L385.64 60.1L385.34 60.37L385.04 60.63L384.72 60.87L384.39 61.09L384.05 61.3L383.7 61.49L383.34 61.66L382.97 61.81L382.6 61.94L382.21 62.05L381.83 62.15L381.43 62.22L381.03 62.27L380.63 62.31L380.23 62.32L379.82 62.31L379.51 62.31L379.21 62.31L378.91 62.29L378.61 62.25L378.31 62.2L378.01 62.14L377.72 62.07L377.44 61.98L377.15 61.89L376.87 61.78L376.6 61.65L376.33 61.52L376.07 61.37L375.82 61.21L375.57 61.04L375.32 60.86L375.09 60.67L374.86 60.47L374.65 60.25L374.46 60.06L374.29 59.85L374.13 59.64L373.97 59.42L373.83 59.19L373.69 58.97L373.57 58.73L373.45 58.49L373.35 58.25L373.25 58L373.17 57.75L373.09 57.49L373.03 57.24L372.97 56.98L372.93 56.71L372.9 56.45L372.88 56.18L372.87 55.91L372.87 55.64L372.87 55.23L372.89 54.83L372.93 54.43L373 54.03L373.08 53.64L373.19 53.26L373.32 52.89L373.47 52.52L373.64 52.16L373.83 51.82L374.04 51.48L374.27 51.16L374.51 50.85L374.78 50.55L375.06 50.27L375.36 50L375.67 49.75L376 49.52L376.35 49.3L376.82 49.05L377.3 48.82L377.79 48.6L378.28 48.39L378.78 48.2L379.29 48.03L379.79 47.87L380.31 47.73L380.82 47.6L381.34 47.48L381.86 47.38L382.39 47.3L382.92 47.23L383.45 47.18L383.98 47.14L384.51 47.12L385.05 47.12L385.58 47.13L386.12 47.16L386.12 46.73L386.09 46.07L385.99 45.48L385.83 44.96L385.63 44.51L385.39 44.11L385.1 43.78L384.79 43.5L384.46 43.26L384.12 43.07L383.77 42.91L383.41 42.78L383.07 42.68L382.73 42.6L382.42 42.53L382.14 42.48L381.89 42.43L381.68 42.38L381.52 42.32L381.41 42.26L381.08 42.26L380.75 42.27L380.43 42.29L380.1 42.32L379.77 42.35L379.45 42.4L379.13 42.46L378.81 42.53L378.49 42.61L378.18 42.7L377.87 42.8L377.56 42.91L377.25 43.03L376.95 43.16L376.65 43.29L376.36 43.44L376.07 43.6L375.79 43.76L375.51 43.94L374.48 40.63L374.86 40.42L375.24 40.22L375.62 40.03L376.01 39.86L376.41 39.69L376.81 39.54L377.21 39.4L377.61 39.27L378.02 39.16L378.44 39.05L378.85 38.96L379.27 38.88L379.69 38.81L380.12 38.76L380.54 38.72L380.97 38.69L381.4 38.67L381.83 38.66L382.25 38.67L383.17 38.7ZM379.95 51.93L378.8 53.23L378.3 54.41L377.91 55.08L377.91 55.66L378.02 56.24L378.21 56.78L378.5 57.28L378.87 57.74L379.3 58.06L379.77 58.32L380.27 58.5L380.8 58.6L381.34 58.62L382 58.58L382.65 58.45L383.27 58.23L383.86 57.94L384.42 57.57L385.05 57.02L385.57 56.37L385.94 55.64L386.17 54.84L386.24 54.01L386.24 50.51L382.26 50.89L379.95 51.93Z" id="bUk5nk2ex"></path><path d="M356.82 38.67L357.47 38.7L358.1 38.77L358.73 38.88L359.35 39.03L359.96 39.22L360.55 39.44L361.13 39.7L361.7 40L362.24 40.33L362.77 40.69L363.27 41.09L363.75 41.52L364.2 41.98L364.61 42.48L364.99 43L365.34 43.54L365.66 44.1L365.95 44.67L366.21 45.25L366.44 45.85L366.63 46.46L366.79 47.08L366.92 47.71L367.02 48.34L367.08 48.98L367.1 49.63L367.09 50.28L367.1 50.95L367.07 51.61L367.01 52.28L366.91 52.93L366.78 53.58L366.61 54.22L366.41 54.85L366.18 55.47L365.91 56.07L365.61 56.66L365.28 57.24L364.92 57.8L364.53 58.34L364.11 58.86L363.64 59.34L363.14 59.78L362.62 60.2L362.08 60.58L361.52 60.92L360.94 61.23L360.34 61.5L359.72 61.73L359.09 61.93L358.45 62.09L357.8 62.2L357.14 62.28L356.48 62.31L355.8 62.31L355.16 62.32L354.52 62.28L353.89 62.21L353.27 62.1L352.65 61.95L352.05 61.76L351.46 61.54L350.89 61.28L350.33 60.98L349.79 60.65L349.27 60.29L348.77 59.89L348.3 59.46L347.85 59L347.44 58.49L347.05 57.97L346.7 57.43L346.37 56.87L346.08 56.29L345.81 55.71L345.58 55.1L345.38 54.49L345.22 53.87L345.09 53.24L344.99 52.6L344.92 51.95L344.89 51.3L344.9 50.65L344.89 49.97L344.92 49.3L344.98 48.64L345.08 47.97L345.22 47.32L345.39 46.68L345.59 46.04L345.83 45.42L346.11 44.82L346.41 44.22L346.75 43.65L347.12 43.09L347.52 42.55L347.95 42.03L348.42 41.56L348.91 41.12L349.43 40.71L349.97 40.34L350.52 40.01L351.1 39.71L351.7 39.44L352.3 39.22L352.93 39.03L353.56 38.88L354.2 38.77L354.86 38.69L355.51 38.66L356.18 38.67L356.82 38.67ZM354.59 42.51L353.92 42.73L353.3 43.04L352.72 43.43L352.21 43.91L351.75 44.45L351.38 45.06L351.05 45.69L350.76 46.35L350.52 47.02L350.32 47.7L350.18 48.4L350.08 49.1L350.03 49.81L350.03 50.53L350.03 51.24L350.08 51.94L350.18 52.63L350.33 53.31L350.52 53.99L350.76 54.64L351.05 55.29L351.38 55.91L351.75 56.51L352.2 57.05L352.71 57.52L353.28 57.91L353.9 58.22L354.55 58.45L355.24 58.58L355.95 58.62L356.65 58.58L357.34 58.43L357.99 58.2L358.6 57.88L359.16 57.49L359.66 57.01L360.1 56.47L360.46 55.86L360.8 55.24L361.1 54.59L361.34 53.93L361.54 53.25L361.7 52.56L361.8 51.86L361.86 51.15L361.86 50.44L361.86 49.73L361.81 49.03L361.71 48.34L361.56 47.66L361.37 46.98L361.13 46.33L360.84 45.68L360.51 45.06L360.15 44.46L359.71 43.92L359.21 43.45L358.64 43.06L358.03 42.75L357.38 42.52L356.7 42.39L356 42.35L355.28 42.38L354.59 42.51Z" id="b5p4J1ebt"></path><path d="M337.43 61.79L332.4 61.79L332.4 28.74L337.43 28.74L337.43 61.79Z" id="a2DHyWpYzD"></path><path d="M323.54 61.79L318.51 61.79C318.51 54.01 318.51 49.68 318.51 48.81C318.51 42.82 314.4 43.42 313.94 42.82C312.54 42.77 311.19 43.38 310.3 44.46C309.38 45.55 308.88 46.93 308.9 48.35C308.9 49.24 308.9 53.72 308.9 61.79L303.87 61.79C303.87 52.08 303.87 46.69 303.87 45.61C303.87 43.62 303.8 41.46 303.68 39.12C303.98 39.12 305.45 39.12 308.11 39.12L308.34 42.67C308.43 42.67 308.47 42.67 308.48 42.67C309.1 41.54 310 40.6 311.09 39.93C312.46 39.08 314.05 38.64 315.66 38.66C317.62 38.6 319.53 39.34 320.93 40.71C322.81 42.74 323.75 45.46 323.54 48.22C323.54 50.03 323.54 54.55 323.54 61.79Z" id="d1C7aEiJVO"></path><path d="M290.34 61.79L285.72 61.79C283.96 55.89 282.98 52.61 282.79 51.95C282.05 49.55 281.44 47.1 280.96 44.63C280.95 44.63 280.88 44.63 280.87 44.63C280.44 47.11 279.83 49.56 279.05 51.95C278.84 52.61 277.8 55.89 275.93 61.79L271.26 61.79L264.6 39.13L269.77 39.13C271.31 45.6 272.16 49.19 272.33 49.91C272.95 52.45 273.47 54.88 273.87 57.18C273.93 57.18 273.96 57.18 273.96 57.18C274.34 55.29 274.96 52.88 275.83 49.95L279.05 39.14L283.16 39.14C285 45.49 286.03 49.02 286.24 49.72C286.98 52.31 287.59 54.79 288.05 57.18C288.14 57.18 288.18 57.18 288.19 57.18C288.57 54.67 289.09 52.18 289.73 49.72C289.91 49.02 290.83 45.49 292.48 39.14L297.43 39.14L290.34 61.79Z" id="a1nRwDFgV"></path><path d="M249.4 38.67L250.04 38.7L250.68 38.77L251.31 38.88L251.93 39.03L252.53 39.22L253.13 39.44L253.71 39.7L254.27 40L254.81 40.33L255.34 40.69L255.84 41.09L256.32 41.52L256.77 41.98L257.18 42.48L257.57 43L257.92 43.54L258.24 44.1L258.52 44.67L258.78 45.25L259.01 45.85L259.2 46.46L259.36 47.08L259.49 47.71L259.59 48.34L259.65 48.98L259.67 49.63L259.66 50.28L259.67 50.95L259.64 51.61L259.58 52.28L259.48 52.93L259.35 53.58L259.18 54.22L258.98 54.85L258.75 55.47L258.48 56.07L258.18 56.66L257.85 57.24L257.49 57.8L257.1 58.34L256.68 58.86L256.21 59.34L255.71 59.78L255.19 60.2L254.65 60.58L254.09 60.92L253.51 61.23L252.91 61.5L252.29 61.73L251.66 61.93L251.02 62.09L250.37 62.2L249.71 62.28L249.05 62.31L248.38 62.31L247.73 62.32L247.09 62.28L246.46 62.21L245.84 62.1L245.22 61.95L244.62 61.76L244.03 61.54L243.46 61.28L242.9 60.98L242.36 60.65L241.84 60.29L241.35 59.89L240.87 59.46L240.43 59L240.01 58.49L239.62 57.97L239.27 57.43L238.94 56.87L238.65 56.29L238.38 55.71L238.15 55.1L237.96 54.49L237.79 53.87L237.66 53.24L237.56 52.6L237.49 51.95L237.46 51.3L237.47 50.65L237.46 49.97L237.49 49.3L237.55 48.64L237.65 47.97L237.79 47.32L237.96 46.68L238.16 46.04L238.4 45.42L238.68 44.82L238.98 44.22L239.32 43.65L239.69 43.09L240.09 42.55L240.52 42.03L240.99 41.56L241.48 41.12L242 40.71L242.54 40.34L243.1 40.01L243.67 39.71L244.27 39.44L244.88 39.22L245.5 39.03L246.13 38.88L246.78 38.77L247.43 38.69L248.09 38.66L248.75 38.67L249.4 38.67ZM247.16 42.51L246.49 42.73L245.87 43.04L245.29 43.44L244.78 43.91L244.32 44.45L243.95 45.06L243.62 45.69L243.33 46.35L243.09 47.02L242.9 47.7L242.75 48.4L242.65 49.1L242.6 49.81L242.6 50.53L242.6 51.24L242.66 51.94L242.76 52.63L242.9 53.31L243.1 53.99L243.34 54.64L243.62 55.29L243.95 55.91L244.32 56.51L244.77 57.05L245.28 57.52L245.85 57.91L246.47 58.22L247.12 58.45L247.81 58.58L248.52 58.62L249.23 58.58L249.91 58.43L250.56 58.2L251.17 57.88L251.73 57.49L252.24 57.01L252.68 56.47L253.04 55.86L253.38 55.24L253.67 54.59L253.92 53.93L254.12 53.25L254.27 52.56L254.38 51.86L254.43 51.15L254.44 50.44L254.43 49.73L254.38 49.03L254.28 48.34L254.13 47.66L253.94 46.98L253.7 46.33L253.42 45.68L253.09 45.06L252.72 44.46L252.28 43.92L251.78 43.45L251.22 43.06L250.6 42.75L249.95 42.52L249.27 42.39L248.57 42.35L247.85 42.38L247.16 42.51Z" id="b1j4aci1rm"></path><path d="M217 30.13L217.66 30.18L218.32 30.26L218.97 30.37L219.62 30.49L220.26 30.64L220.89 30.81L221.52 31.01L222.14 31.22L222.76 31.46L223.36 31.72L223.96 32L224.55 32.3L225.13 32.63L225.7 32.97L226.25 33.34L226.8 33.72L227.27 34.17L227.72 34.65L228.15 35.14L228.56 35.64L228.94 36.17L229.29 36.71L229.63 37.26L229.93 37.82L230.21 38.4L230.47 38.99L230.69 39.59L230.9 40.2L231.07 40.82L231.22 41.45L231.34 42.09L231.43 42.73L231.49 43.37L231.52 44.02L231.53 44.68L231.5 45.33L231.54 46.05L231.54 46.77L231.51 47.49L231.45 48.2L231.35 48.9L231.23 49.6L231.07 50.29L230.89 50.97L230.67 51.64L230.42 52.3L230.15 52.95L229.84 53.59L229.51 54.21L229.15 54.82L228.76 55.42L228.34 55.99L227.9 56.55L227.43 57.09L226.94 57.61L226.41 58.11L225.83 58.53L225.23 58.93L224.63 59.3L224.01 59.65L223.37 59.98L222.73 60.29L222.08 60.57L221.42 60.83L220.75 61.07L220.08 61.28L219.4 61.47L218.71 61.63L218.01 61.78L217.31 61.89L216.61 61.98L215.9 62.05L215.19 62.09L214.47 62.11L213.75 62.1L213.04 62.07L212.67 62.07L212.3 62.07L211.93 62.07L211.56 62.07L211.19 62.06L210.82 62.05L210.45 62.04L210.08 62.03L209.72 62.01L209.35 61.99L208.98 61.97L208.61 61.95L208.24 61.93L207.87 61.9L207.51 61.87L207.14 61.84L206.77 61.81L206.4 61.77L206.03 61.74L205.67 61.7L205.67 30.78L206.1 30.72L206.53 30.66L206.96 30.6L207.39 30.54L207.83 30.49L208.26 30.44L208.69 30.4L209.13 30.36L209.56 30.32L209.99 30.28L210.43 30.25L210.86 30.22L211.3 30.2L211.73 30.18L212.17 30.16L212.6 30.15L213.04 30.14L213.48 30.13L213.91 30.13L214.35 30.13L215.01 30.09L215.68 30.08L216.34 30.09L217 30.13ZM214.45 34.09L214.14 34.1L213.82 34.1L213.51 34.11L213.2 34.13L212.88 34.15L212.57 34.18L212.26 34.21L211.95 34.24L211.64 34.28L211.32 34.32L211.01 34.37L210.71 34.42L210.71 57.92L210.97 57.95L211.23 57.97L211.49 57.99L211.75 58.01L212.01 58.03L212.27 58.04L212.54 58.05L212.8 58.06L213.06 58.07L213.32 58.07L213.58 58.07L213.85 58.07L214.11 58.06L214.87 58.09L215.62 58.06L216.37 57.99L217.11 57.87L217.84 57.71L218.55 57.5L219.25 57.25L219.94 56.95L220.6 56.61L221.25 56.23L221.87 55.81L222.47 55.35L223.04 54.85L223.54 54.24L224 53.6L224.41 52.94L224.79 52.26L225.13 51.56L225.42 50.84L225.66 50.11L225.87 49.36L226.02 48.6L226.14 47.82L226.2 47.05L226.22 46.26L226.19 45.47L226.21 44.76L226.19 44.05L226.13 43.35L226.03 42.65L225.88 41.97L225.69 41.29L225.47 40.63L225.2 39.98L224.89 39.35L224.54 38.74L224.16 38.15L223.74 37.58L223.28 37.03L222.73 36.57L222.15 36.14L221.56 35.75L220.94 35.4L220.3 35.09L219.65 34.81L218.98 34.58L218.3 34.4L217.61 34.25L216.91 34.14L216.2 34.08L215.48 34.07L214.76 34.1L214.45 34.09Z" id="cXBAu2wC4"></path><path d="M153.82 68.94C148.66 61.57 140.33 57.07 131.34 56.79C121.88 55.79 112.71 62.45 107.9 62.45C102.98 62.45 95.57 56.89 87.57 57.05C77.06 57.39 67.5 63.22 62.38 72.41C51.49 91.27 59.61 118.98 70.05 134.22C75.27 141.69 81.37 150.02 89.36 149.73C97.17 149.41 100.09 144.75 109.51 144.75C118.85 144.75 121.59 149.73 129.74 149.54C138.12 149.41 143.4 142.04 148.43 134.51C152.19 129.19 155.07 123.32 156.99 117.1C147.03 112.88 140.56 103.13 140.54 92.32C140.67 82.77 145.68 73.94 153.82 68.94Z" id="a404Jjxa4"></path><path d="M131.44 27.11C124.46 27.84 118.01 31.18 113.38 36.45C108.8 41.66 106.48 48.47 106.93 55.38C114.01 55.45 120.73 52.28 125.16 46.76C129.73 41.28 131.99 34.23 131.44 27.11Z" id="dpHce7bCm"></path></defs><g><g><use xlink:href="#h13AKfdGCC" opacity="1" fill="url(#gradientf23nFouG2i)"></use><g><use xlink:href="#h13AKfdGCC" opacity="1" fill-opacity="0" stroke="#000000" stroke-width="1" stroke-opacity="0"></use></g></g><g><use xlink:href="#a2Tu03Zry4" opacity="1" fill="#ffffff" fill-opacity="1"></use><g><use xlink:href="#a2Tu03Zry4" opacity="1" fill-opacity="0" stroke="#000000" stroke-width="1" stroke-opacity="0"></use></g></g><g><use xlink:href="#b2pV7abYz9" opacity="1" fill="#ffffff" fill-opacity="1"></use><g><use xlink:href="#b2pV7abYz9" opacity="1" fill-opacity="0" stroke="#000000" stroke-width="1" stroke-opacity="0"></use></g></g><g><use xlink:href="#g1zIfCTAPE" opacity="1" fill="#ffffff" fill-opacity="1"></use><g><use xlink:href="#g1zIfCTAPE" opacity="1" fill-opacity="0" stroke="#000000" stroke-width="1" stroke-opacity="0"></use></g></g><g><use xlink:href="#baCtIFdva" opacity="1" fill="#ffffff" fill-opacity="1"></use><g><use xlink:href="#baCtIFdva" opacity="1" fill-opacity="0" stroke="#000000" stroke-width="1" stroke-opacity="0"></use></g></g><g><use xlink:href="#a1KGiLTGyY" opacity="1" fill="#ffffff" fill-opacity="1"></use><g><use xlink:href="#a1KGiLTGyY" opacity="1" fill-opacity="0" stroke="#000000" stroke-width="1" stroke-opacity="0"></use></g></g><g><use xlink:href="#i5zKvxAKDq" opacity="1" fill="#ffffff" fill-opacity="1"></use><g><use xlink:href="#i5zKvxAKDq" opacity="1" fill-opacity="0" stroke="#000000" stroke-width="1" stroke-opacity="0"></use></g></g><g><use xlink:href="#d81NDhXi3t" opacity="1" fill="#ffffff" fill-opacity="1"></use><g><use xlink:href="#d81NDhXi3t" opacity="1" fill-opacity="0" stroke="#000000" stroke-width="1" stroke-opacity="0"></use></g></g><g><use xlink:href="#g76IgXbyoY" opacity="1" fill="#ffffff" fill-opacity="1"></use><g><use xlink:href="#g76IgXbyoY" opacity="1" fill-opacity="0" stroke="#000000" stroke-width="1" stroke-opacity="0"></use></g></g><g><use xlink:href="#hh0nYYFQR" opacity="1" fill="#ffffff" fill-opacity="1"></use><g><use xlink:href="#hh0nYYFQR" opacity="1" fill-opacity="0" stroke="#000000" stroke-width="1" stroke-opacity="0"></use></g></g><g><use xlink:href="#bBq3jR48q" opacity="1" fill="#ffffff" fill-opacity="1"></use><g><use xlink:href="#bBq3jR48q" opacity="1" fill-opacity="0" stroke="#000000" stroke-width="1" stroke-opacity="0"></use></g></g><g><use xlink:href="#aICP5FSzq" opacity="1" fill="#ffffff" fill-opacity="1"></use><g><use xlink:href="#aICP5FSzq" opacity="1" fill-opacity="0" stroke="#000000" stroke-width="1" stroke-opacity="0"></use></g></g><g><use xlink:href="#b2f6xGv9mE" opacity="1" fill="#ffffff" fill-opacity="1"></use><g><use xlink:href="#b2f6xGv9mE" opacity="1" fill-opacity="0" stroke="#000000" stroke-width="1" stroke-opacity="0"></use></g></g><g><use xlink:href="#gNF81dPoK" opacity="1" fill="#ffffff" fill-opacity="1"></use><g><use xlink:href="#gNF81dPoK" opacity="1" fill-opacity="0" stroke="#000000" stroke-width="1" stroke-opacity="0"></use></g></g><g><use xlink:href="#d1xYgWF71d" opacity="1" fill="#ffffff" fill-opacity="1"></use><g><use xlink:href="#d1xYgWF71d" opacity="1" fill-opacity="0" stroke="#000000" stroke-width="1" stroke-opacity="0"></use></g></g><g><use xlink:href="#bUk5nk2ex" opacity="1" fill="#ffffff" fill-opacity="1"></use><g><use xlink:href="#bUk5nk2ex" opacity="1" fill-opacity="0" stroke="#000000" stroke-width="1" stroke-opacity="0"></use></g></g><g><use xlink:href="#b5p4J1ebt" opacity="1" fill="#ffffff" fill-opacity="1"></use><g><use xlink:href="#b5p4J1ebt" opacity="1" fill-opacity="0" stroke="#000000" stroke-width="1" stroke-opacity="0"></use></g></g><g><use xlink:href="#a2DHyWpYzD" opacity="1" fill="#ffffff" fill-opacity="1"></use><g><use xlink:href="#a2DHyWpYzD" opacity="1" fill-opacity="0" stroke="#000000" stroke-width="1" stroke-opacity="0"></use></g></g><g><use xlink:href="#d1C7aEiJVO" opacity="1" fill="#ffffff" fill-opacity="1"></use><g><use xlink:href="#d1C7aEiJVO" opacity="1" fill-opacity="0" stroke="#000000" stroke-width="1" stroke-opacity="0"></use></g></g><g><use xlink:href="#a1nRwDFgV" opacity="1" fill="#ffffff" fill-opacity="1"></use><g><use xlink:href="#a1nRwDFgV" opacity="1" fill-opacity="0" stroke="#000000" stroke-width="1" stroke-opacity="0"></use></g></g><g><use xlink:href="#b1j4aci1rm" opacity="1" fill="#ffffff" fill-opacity="1"></use><g><use xlink:href="#b1j4aci1rm" opacity="1" fill-opacity="0" stroke="#000000" stroke-width="1" stroke-opacity="0"></use></g></g><g><use xlink:href="#cXBAu2wC4" opacity="1" fill="#ffffff" fill-opacity="1"></use><g><use xlink:href="#cXBAu2wC4" opacity="1" fill-opacity="0" stroke="#000000" stroke-width="1" stroke-opacity="0"></use></g></g><g><use xlink:href="#a404Jjxa4" opacity="1" fill="#ffffff" fill-opacity="1"></use><g><use xlink:href="#a404Jjxa4" opacity="1" fill-opacity="0" stroke="#000000" stroke-width="1" stroke-opacity="0"></use></g></g><g><use xlink:href="#dpHce7bCm" opacity="1" fill="#ffffff" fill-opacity="1"></use><g><use xlink:href="#dpHce7bCm" opacity="1" fill-opacity="0" stroke="#000000" stroke-width="1" stroke-opacity="0"></use></g></g></g></svg>