<?xml version="1.0" encoding="UTF-8" standalone="no"?>
<svg
   viewBox="0 0 120 35"
   version="1.1"
   id="svg2"
   sodipodi:docname="downloadOnTheAppStore.svg"
   inkscape:version="1.4 (e7c3feb100, 2024-10-09)"
   xmlns:inkscape="http://www.inkscape.org/namespaces/inkscape"
   xmlns:sodipodi="http://sodipodi.sourceforge.net/DTD/sodipodi-0.dtd"
   xmlns="http://www.w3.org/2000/svg"
   xmlns:svg="http://www.w3.org/2000/svg">
  <sodipodi:namedview
     id="namedview2"
     pagecolor="#505050"
     bordercolor="#eeeeee"
     borderopacity="1"
     inkscape:showpageshadow="0"
     inkscape:pageopacity="0"
     inkscape:pagecheckerboard="0"
     inkscape:deskcolor="#d1d1d1"
     inkscape:zoom="7.1270471"
     inkscape:cx="35.919504"
     inkscape:cy="38.024163"
     inkscape:window-width="2560"
     inkscape:window-height="1363"
     inkscape:window-x="0"
     inkscape:window-y="0"
     inkscape:window-maximized="1"
     inkscape:current-layer="download_on_the_app_store" />
  <defs
     id="defs1">
    <style
       id="style1">.cls-1{fill:#fff;}</style>
  </defs>
  <title
     id="title1">downloadOnTheAppStore</title>
  <g
     id="download_on_the_app_store"
     data-name="download on the app store">
    <g
       id="app_store"
       data-name="app store">
      <path
         id="e"
         class="cls-1"
         d="M109.2962,23.14a4.5054,4.5054,0,0,1-.07.8716h-5.7646a2.5091,2.5091,0,0,0,.8364,1.9585,2.8554,2.8554,0,0,0,1.8855.6047,6.3775,6.3775,0,0,0,2.3325-.4091l.301,1.3339a7.2109,7.2109,0,0,1-2.8994.5344,4.2,4.2,0,0,1-3.16-1.1834,4.37,4.37,0,0,1-1.1474-3.1761,4.9551,4.9551,0,0,1,1.0689-3.2564,3.6829,3.6829,0,0,1,3.0239-1.3871,3.2229,3.2229,0,0,1,2.8309,1.3871A4.6773,4.6773,0,0,1,109.2962,23.14Zm-1.8323-.4984a2.61,2.61,0,0,0-.3731-1.4772,1.6786,1.6786,0,0,0-1.5313-.8013,1.8228,1.8228,0,0,0-1.5295.7833,2.8669,2.8669,0,0,0-.5687,1.4943h4.0026Z" />
      <path
         id="r"
         class="cls-1"
         d="M100.7024,20.9146a3.3408,3.3408,0,0,0-.6057-.0532,1.8157,1.8157,0,0,0-1.5664.7661,2.8794,2.8794,0,0,0-.48,1.708v4.538H96.1293l.018-5.9251q0-1.4952-.0721-2.7228h1.6737l.07,1.6548h.0532a2.9573,2.9573,0,0,1,.9607-1.37,2.324,2.324,0,0,1,1.3889-.4633,3.0885,3.0885,0,0,1,.48.0352Z" />
      <path
         id="o"
         class="cls-1"
         d="M94.4564,23.4779a4.7443,4.7443,0,0,1-1.1392,3.2744,4.067,4.067,0,0,1-3.1689,1.3168,3.8675,3.8675,0,0,1-3.0329-1.2627,4.5989,4.5989,0,0,1-1.13-3.1852A4.6978,4.6978,0,0,1,87.1506,20.33a4.0332,4.0332,0,0,1,3.14-1.2817,3.95,3.95,0,0,1,3.0608,1.2637A4.5464,4.5464,0,0,1,94.4564,23.4779Zm-1.9936.0622a3.89,3.89,0,0,0-.5156-2.0523,1.8979,1.8979,0,0,0-1.725-1.0346A1.9271,1.9271,0,0,0,88.46,21.4878a3.9653,3.9653,0,0,0-.5155,2.0883,3.8847,3.8847,0,0,0,.5155,2.0514,1.9639,1.9639,0,0,0,3.47-.018A3.9047,3.9047,0,0,0,92.4628,23.54Z" />
      <path
         id="t"
         class="cls-1"
         d="M84.9,20.6668H82.782v4.1991q0,1.602,1.1212,1.6016a3.4213,3.4213,0,0,0,.8535-.0892l.0532,1.4592a4.3536,4.3536,0,0,1-1.4943.2127,2.306,2.306,0,0,1-1.78-.694,3.4094,3.4094,0,0,1-.6408-2.3317v-4.36H79.6329V19.2229h1.2618V17.6393l1.8873-.57v2.1532H84.9Z" />
      <path
         id="s"
         class="cls-1"
         d="M78.5468,24.51a3.197,3.197,0,0,1-1.0653,2.4912,4.7216,4.7216,0,0,1-3.2672,1.05,5.72,5.72,0,0,1-3.1086-.7472l.4453-1.6016a5.2676,5.2676,0,0,0,2.7778.7661,2.626,2.626,0,0,0,1.6917-.49,1.601,1.601,0,0,0,.6039-1.3105,1.6708,1.6708,0,0,0-.4985-1.2294,4.6332,4.6332,0,0,0-1.6547-.9274q-3.15-1.1748-3.1491-3.4393a3.0435,3.0435,0,0,1,1.104-2.4236,4.3528,4.3528,0,0,1,2.9365-.9446,5.8213,5.8213,0,0,1,2.7219.57l-.48,1.5664a4.7232,4.7232,0,0,0-2.2956-.5516,2.3239,2.3239,0,0,0-1.5827.4984,1.4242,1.4242,0,0,0-.48,1.0861,1.4662,1.4662,0,0,0,.5507,1.1744,6.2256,6.2256,0,0,0,1.7449.9256,5.92,5.92,0,0,1,2.2776,1.4583A3.0466,3.0466,0,0,1,78.5468,24.51Z" />
      <path
         id="p"
         class="cls-1"
         d="M67.4249,23.4427A4.9112,4.9112,0,0,1,66.2315,26.93a3.4834,3.4834,0,0,1-2.6507,1.1392,2.649,2.649,0,0,1-2.4551-1.2276H61.09v4.5561H59.1681V22.0719q0-1.387-.0712-2.8472h1.69l.1073,1.3709h.036a3.42,3.42,0,0,1,5.4727-.3389A4.7782,4.7782,0,0,1,67.4249,23.4427Zm-1.9577.07a3.56,3.56,0,0,0-.5705-2.0819,1.9645,1.9645,0,0,0-1.6719-.8545,2.0006,2.0006,0,0,0-1.2906.4714,2.1853,2.1853,0,0,0-.7553,1.2375,2.5636,2.5636,0,0,0-.0892.5858v1.4421a2.3176,2.3176,0,0,0,.5768,1.5935,1.9219,1.9219,0,0,0,1.5051.65,1.9673,1.9673,0,0,0,1.69-.8364A3.6809,3.6809,0,0,0,65.4672,23.513Z" />
      <path
         id="p-2"
         data-name="p"
         class="cls-1"
         d="M57.4773,23.4427A4.9152,4.9152,0,0,1,56.2849,26.93a3.4868,3.4868,0,0,1-2.6516,1.1392,2.6516,2.6516,0,0,1-2.4561-1.2276h-.036v4.5561H49.22V22.0719q0-1.387-.0712-2.8472h1.69l.1072,1.3709h.0361a3.4188,3.4188,0,0,1,5.4717-.3389A4.7648,4.7648,0,0,1,57.4773,23.4427Zm-1.9576.07a3.5605,3.5605,0,0,0-.57-2.0819,1.9672,1.9672,0,0,0-1.6728-.8545,1.9987,1.9987,0,0,0-1.29.4714,2.1872,2.1872,0,0,0-.7562,1.2375,2.5143,2.5143,0,0,0-.0892.5858v1.4421a2.3109,2.3109,0,0,0,.5786,1.5935,1.9181,1.9181,0,0,0,1.5034.65,1.9673,1.9673,0,0,0,1.69-.8364A3.6809,3.6809,0,0,0,55.52,23.513Z" />
      <path
         id="a"
         class="cls-1"
         d="M47.5477,27.8735H45.5009L44.38,24.35H40.4825l-1.068,3.5232H37.4217l3.8611-11.9944h2.3849Zm-3.506-5.0013-1.014-3.132q-.1608-.48-.6047-2.26h-.0361q-.177.7652-.57,2.26l-.9959,3.132Z" />
    </g>
    <g
       id="download_on_the"
       data-name="download on the">
      <path
         id="e-2"
         data-name="e"
         class="cls-1"
         d="M108.4409,9.2609a2.2847,2.2847,0,0,1-.0351.4281H105.573a1.2387,1.2387,0,0,0,.41.9617,1.4069,1.4069,0,0,0,.9274.2974,3.13,3.13,0,0,0,1.1456-.201l.1478.6562a3.5585,3.5585,0,0,1-1.4259.2622,2.059,2.059,0,0,1-1.5511-.5813,2.1416,2.1416,0,0,1-.5633-1.56,2.4316,2.4316,0,0,1,.5246-1.6,1.8062,1.8062,0,0,1,1.4853-.6814,1.58,1.58,0,0,1,1.3889.6814A2.2685,2.2685,0,0,1,108.4409,9.2609Zm-.9013-.2443a1.2723,1.2723,0,0,0-.1829-.7255.825.825,0,0,0-.7517-.3939.8967.8967,0,0,0-.7517.3849,1.43,1.43,0,0,0-.28.7345Z" />
      <path
         id="h"
         class="cls-1"
         d="M103.2828,11.5862h-.9454V9.1708q0-1.1424-.8554-1.1429a.9017.9017,0,0,0-.9013.6625,1.1884,1.1884,0,0,0-.0441.34v2.5551h-.9437V5.388h.9437V7.9486h.018a1.4277,1.4277,0,0,1,1.2762-.6985,1.3162,1.3162,0,0,1,.9716.3849,1.9346,1.9346,0,0,1,.48,1.4249Z" />
      <path
         id="t-2"
         data-name="t"
         class="cls-1"
         d="M98.2824,8.0451h-1.04V10.109c0,.5246.1848.7868.5507.7868a1.6651,1.6651,0,0,0,.4209-.0441l.0244.7165a2.1222,2.1222,0,0,1-.7337.1055,1.1292,1.1292,0,0,1-.8733-.3407,1.6666,1.6666,0,0,1-.3155-1.1456V8.0451h-.621V7.3375h.621V6.5588l.9256-.2794V7.3366h1.04v.7085Z" />
      <path
         id="n"
         class="cls-1"
         d="M91.9256,11.5862H90.982V9.1527q0-1.1247-.8572-1.1248a.8492.8492,0,0,0-.6813.3092,1.092,1.092,0,0,0-.2623.7282v2.52h-.9455V8.5516c0-.3732-.0108-.7778-.0333-1.2159h.8292L89.0757,8h.0262a1.3784,1.3784,0,0,1,.4894-.5129,1.5994,1.5994,0,0,1,.8571-.2388,1.3551,1.3551,0,0,1,.9878.3849,1.8662,1.8662,0,0,1,.4894,1.4078Z" />
      <path
         id="o-2"
         data-name="o"
         class="cls-1"
         d="M86.8468,9.4267a2.33,2.33,0,0,1-.56,1.6088,1.996,1.996,0,0,1-1.5565.6472,1.9012,1.9012,0,0,1-1.4907-.621,2.2615,2.2615,0,0,1-.5543-1.5647A2.3076,2.3076,0,0,1,83.2579,7.88a1.9856,1.9856,0,0,1,1.5439-.6291,1.9413,1.9413,0,0,1,1.5034.62A2.2432,2.2432,0,0,1,86.8468,9.4267Zm-.9788.0307a1.9221,1.9221,0,0,0-.2532-1.0086.9341.9341,0,0,0-.8482-.5083.9493.9493,0,0,0-.8661.5083,1.9478,1.9478,0,0,0-.2533,1.0257,1.9218,1.9218,0,0,0,.2533,1.0085.9533.9533,0,0,0,.8571.5084.9437.9437,0,0,0,.8481-.5174A1.9172,1.9172,0,0,0,85.868,9.4574Z" />
      <path
         id="d"
         class="cls-1"
         d="M78.7685,11.5862H77.93l-.0441-.6822H77.86a1.4122,1.4122,0,0,1-1.3645.7787,1.5991,1.5991,0,0,1-1.2763-.603,2.35,2.35,0,0,1-.5065-1.5646,2.4634,2.4634,0,0,1,.5507-1.67A1.693,1.693,0,0,1,76.5748,7.25a1.2734,1.2734,0,0,1,1.1969.5768h.018V5.388h.9455v5.0536Q78.7352,11.0621,78.7685,11.5862ZM77.79,9.7945V9.086a1.3923,1.3923,0,0,0-.0261-.2974,1.0756,1.0756,0,0,0-.3416-.5723.9285.9285,0,0,0-.6318-.2316.9693.9693,0,0,0-.831.42A1.8,1.8,0,0,0,75.6564,9.48a1.6779,1.6779,0,0,0,.29,1.023.9722.9722,0,0,0,.8256.4191.91.91,0,0,0,.7462-.35A1.1641,1.1641,0,0,0,77.79,9.7945Z" />
      <path
         id="a-2"
         data-name="a"
         class="cls-1"
         d="M73.4013,11.5862h-.8481l-.07-.4894h-.0261a1.4545,1.4545,0,0,1-1.2411.5859,1.2808,1.2808,0,0,1-.97-.3849,1.2066,1.2066,0,0,1-.3326-.8652,1.32,1.32,0,0,1,.6517-1.1888,3.3818,3.3818,0,0,1,1.8323-.402V8.7625q0-.84-.8824-.8391a1.9762,1.9762,0,0,0-1.1077.3145l-.1919-.62a2.7248,2.7248,0,0,1,1.4574-.3668q1.6654,0,1.6673,1.7575v1.5647A6.6419,6.6419,0,0,0,73.4013,11.5862Zm-.9806-1.46V9.4709q-1.5628-.027-1.5628.8562a.64.64,0,0,0,.1811.4984.6606.6606,0,0,0,.4615.1659.9537.9537,0,0,0,.5777-.1965.8061.8061,0,0,0,.3425-.6688Z" />
      <path
         id="o-3"
         data-name="o"
         class="cls-1"
         d="M68.83,9.4267a2.33,2.33,0,0,1-.56,1.6088,1.9988,1.9988,0,0,1-1.5566.6472,1.896,1.896,0,0,1-1.4907-.621,2.262,2.262,0,0,1-.5543-1.5647A2.308,2.308,0,0,1,65.241,7.88a1.9845,1.9845,0,0,1,1.5421-.6291,1.945,1.945,0,0,1,1.5052.62A2.2433,2.2433,0,0,1,68.83,9.4267Zm-.9806.0307a1.9222,1.9222,0,0,0-.2533-1.0086.9314.9314,0,0,0-.8463-.5083.9456.9456,0,0,0-.8662.5083A1.9478,1.9478,0,0,0,65.63,9.4745a1.9218,1.9218,0,0,0,.2532,1.0085.9533.9533,0,0,0,.8572.5084.9412.9412,0,0,0,.8463-.5174A1.9018,1.9018,0,0,0,67.8494,9.4574Z" />
      <path
         id="l"
         class="cls-1"
         d="M63.269,11.5862h-.9437V5.388h.9437Z" />
      <path
         id="n-2"
         data-name="n"
         class="cls-1"
         d="M60.6643,11.5862H59.72V9.1527q0-1.1247-.8562-1.1248a.8525.8525,0,0,0-.6823.3092,1.0966,1.0966,0,0,0-.2623.7282v2.52h-.9445V8.5516c0-.3732-.0118-.7778-.0343-1.2159h.83L57.8144,8h.0261a1.3652,1.3652,0,0,1,.4894-.5129,1.5968,1.5968,0,0,1,.8562-.2388,1.356,1.356,0,0,1,.9888.3849,1.87,1.87,0,0,1,.4894,1.4078Z" />
      <path
         id="w"
         class="cls-1"
         d="M55.7675,7.3375l-1.3294,4.2487h-.8652l-.5507-1.8449a13.8008,13.8008,0,0,1-.3416-1.3727h-.0171a10.05,10.05,0,0,1-.3416,1.3727l-.585,1.8449h-.8751l-1.25-4.2487h.9707l.48,2.02q.1743.7165.2884,1.3637h.0171q.1055-.5327.3506-1.3547l.603-2.0279h.77l.5777,1.9847q.21.726.3407,1.3988h.0261a13.3648,13.3648,0,0,1,.2885-1.3988L54.84,7.3384h.9274Z" />
      <path
         id="o-4"
         data-name="o"
         class="cls-1"
         d="M48.687,9.4267a2.33,2.33,0,0,1-.56,1.6088,1.9975,1.9975,0,0,1-1.5566.6472,1.8986,1.8986,0,0,1-1.4907-.621,2.262,2.262,0,0,1-.5543-1.5647A2.308,2.308,0,0,1,45.098,7.88a1.9851,1.9851,0,0,1,1.543-.6291,1.9432,1.9432,0,0,1,1.5043.62A2.2433,2.2433,0,0,1,48.687,9.4267Zm-.98.0307a1.9222,1.9222,0,0,0-.2533-1.0086.9327.9327,0,0,0-.8472-.5083.9475.9475,0,0,0-.8662.5083,1.9478,1.9478,0,0,0-.2532,1.0257,1.9218,1.9218,0,0,0,.2532,1.0085.9533.9533,0,0,0,.8572.5084.9425.9425,0,0,0,.8472-.5174A1.91,1.91,0,0,0,47.7073,9.4574Z" />
      <path
         id="d-2"
         data-name="d"
         class="cls-1"
         d="M43.4063,8.5a2.9587,2.9587,0,0,1-.9536,2.3956,3.7922,3.7922,0,0,1-2.5083.7427,11.6232,11.6232,0,0,1-1.3817-.07V5.772A10.1988,10.1988,0,0,1,40.19,5.6494a3.5064,3.5064,0,0,1,2.3343.6733A2.7205,2.7205,0,0,1,43.4063,8.5Zm-.9959.0261a2.1541,2.1541,0,0,0-.5462-1.5826A2.1527,2.1527,0,0,0,40.268,6.393a3.9943,3.9943,0,0,0-.7607.0613v4.4064a4.9947,4.9947,0,0,0,.6381.0261,2.2346,2.2346,0,0,0,1.6737-.6029A2.4148,2.4148,0,0,0,42.41,8.5263Z" />
    </g>
    <g
       id="apple">
      <path
         class="cls-1"
         d="M26.352,17.31a5.2245,5.2245,0,0,1,2.4885-4.3838A5.3512,5.3512,0,0,0,24.626,10.648c-1.7728-.1866-3.4925,1.0608-4.3956,1.0608-.9211,0-2.3118-1.0428-3.8106-1.0121a5.6108,5.6108,0,0,0-4.7228,2.88c-2.0423,3.5358-.5192,8.7317,1.4375,11.59.9789,1.4,2.1226,2.9626,3.62,2.9076,1.4646-.06,2.0117-.9337,3.7792-.9337,1.7512,0,2.2649.9337,3.7917.8985,1.5719-.0252,2.5615-1.406,3.506-2.8183a11.5626,11.5626,0,0,0,1.6034-3.2654A5.0507,5.0507,0,0,1,26.352,17.31Z"
         id="path1" />
      <path
         class="cls-1"
         d="M23.4679,8.7679A5.1427,5.1427,0,0,0,24.645,5.0825a5.2385,5.2385,0,0,0-3.3871,1.7521A4.8939,4.8939,0,0,0,20.05,10.3839,4.3271,4.3271,0,0,0,23.4679,8.7679Z"
         id="path2" />
    </g>
  </g>
</svg>
