<svg version="1.1" viewBox="0 0 1024 1024" xml:space="preserve" xmlns="http://www.w3.org/2000/svg"><path d="m573.10965 0-56.25288 272.53563c-23.47127-7.36018-51.17678-10.42853-80.47018-9.02531l7.82809-260.7055811a513.79237 513.43958 0 0 0-105.6067 28.5625061l65.32751 235.744975c-19.75669 2.41579-44.57084 8.62191-62.18176 17.88412l-106.88654-201.28311a513.79237 513.43958 0 0 0-77.23429 64.14666l156.47164 151.54599c-12.97896 7.43516-38.52807 27.22651-53.47366 44.06104l-174.679676-108.18223a513.79237 513.43958 0 0 0-35.579197 66.56359l192.966133 63.1458c-10.54299 13.02597-25.58216 39.5186-31.02228 56.39248l-195.890401-9.37002a513.79237 513.43958 0 0 0-9.425459 79.7059l200.19251-44.73284c-1.23616 6.83566-3.01269 23.45763-3.27509 29.55553 0 0-80.38817 28.07604-100.72639 36.38914-16.466506 6.73048-62.435872 33.97147-73.761221 73.17391-4.021732 13.92115-6.99679 27.06149-9.501898 39.0842a513.79237 513.43958 0 0 0 499.516009 398.80762 513.79237 513.43958 0 0 0 491.94848-366.02626h-70.59578c-2.45043-73.93015-36.73989-108.30993-74.07089-128.85738-44.4886-24.48785-156.59512-35.55086-156.59512-35.55086l-17.81605 4.09547s-19.05276-0.23504-20.22486-0.23504c-0.14791-5.17438-6.63839-39.41911-6.63839-39.41911s292.04891-59.07309 328.21725-66.04063c7.88554-1.51906 15.67264-4.77693 23.33144-9.19179a513.79237 513.43958 0 0 0-47.05286-118.8704c1.85234 8.86107 3.10238 18.65625 3.2359 29.89436 0.59915 50.42939-24.68624 85.61765-56.56059 88.7175-31.87499 3.09978-58.88272-15.30158-76.51301-57.02121-30.46507 8.73846-372.20861 111.22593-372.20861 111.22593s28.03509 24.30965 53.46581 19.72522c25.43078-4.58456 92.03787-18.13287 92.03787-18.13287s16.74783 50.33439 16.05994 67.09828c-7.87925-2.89026-25.33247-4.68524-29.62092-4.78489-21.64222-20.23154-22.43946-19.33441-24.6328-20.63012-57.34535-15.44772-139.08462-33.85958-175.75571-32.73239-36.67117 1.12715-164.06648 34.92605-164.06648 34.92605s2.54708-65.58417 56.40183-119.00359c53.85475-53.41906 93.35021-63.38654 155.58181-62.58955 62.23108 0.79706 90.15631 25.5149 90.15631 25.5149s334.83141-127.91025 345.50216-131.79727c2.66782-0.97177 6.28999-1.55155 10.47404-1.67462 10.74566-0.31608 25.01434 2.63445 36.55525 9.41899a513.79237 513.43958 0 0 0-99.10157-99.64853c-114.97625 81.7713-245.39958 174.49875-267.51526 190.20713-0.56526-0.44799-13.5551-8.24331-19.3507-10.7293l152.93782-253.021929a513.79237 513.43958 0 0 0-123.92058-28.866091zm323.88377 218.05474c-18.62594 0.22559-32.12587 14.1278-35.8281 25.90075-4.38776 13.95304-3.51617 42.36486-2.20693 49.78607l88.80199-28.20211c-6.28326-19.58363-14.945-39.50142-39.92052-46.10192-3.77113-0.99661-7.39714-1.42456-10.84644-1.38279zm-62.17 61.56715c-3.54032 1.34552-381.81047 126.42675-381.81047 126.42675 0.63448 6.97699 4.02019 14.37687 4.79603 15.08135 3.45579-0.98662 377.01444-119.73219 377.01444-119.73219-1.19662-10.01596-0.14997-20.1315 0-21.77591zm-427.40508 182.92304 144.51391 28.05327s20.71567 15.946 29.66404 37.19805c-34.70678-5.58127-138.60855-24.90969-138.60855-24.90969-13.8643-20.16161-24.03251-30.50557-35.5694-40.34163zm-52.87194 58.3374c35.17367-0.7011 49.08562 60.19935 48.37187 92.68173-0.85841 39.06497-19.55265 98.34119-57.79929 102.10856-38.50925 3.79323-54.45579-77.99048-50.7885-110.40722 3.66727-32.4165 17.69939-79.02627 56.74483-84.12061 1.17911-0.1535 2.33645-0.23972 3.47109-0.26246zm90.74823 4.83582 145.07053 25.90467c11.86435 27.05211 12.32022 57.22812 11.8264 70.54741-59.16689-7.25883-144.85885-19.42556-144.85885-19.42556-5.64127-49.89488-7.8555-63.14197-12.03808-77.02652zm300.99141 1.93904 90.61886 20.01509s27.09706 14.00734 43.60916 35.76631c-78.36176-13.51118-103.48601-17.94681-103.48601-17.94681-4.5599-10.22156-15.15844-29.74777-30.74201-37.83459zm-503.53392 2.319c19.62683-0.29639 23.61279 29.71243 21.61642 45.32434-2.32589 18.18907-14.22831 46.98125-34.06415 46.71105-19.97203-0.27214-22.80905-39.57345-19.36051-54.51026 3.44854-14.93666 11.4979-37.21832 31.80824-37.52513zm-74.18458 17.05367c15.86144-0.27175 19.08444 27.21185 17.47109 41.50897-1.87967 16.65719-11.49926 43.02365-27.52962 42.77618-16.14041-0.24939-18.43529-36.24251-15.64834-49.92122 2.78694-13.67889 9.29304-34.08296 25.70687-34.36393zm-75.936785 14.02566c18.398245 0.49715 22.900065 49.71632 21.053915 75.72402-2.22025 31.27776-14.670951 78.21663-34.81285 80.08392-20.28021 1.88023-24.897935-64.13448-21.512547-90.00039 3.38537-25.86579 12.827559-62.79316 33.446757-65.69983 0.622666-0.0879 1.23123-0.12402 1.824725-0.10772zm691.415925 25.39346 110.23612 17.55116c10.16418 20.95985 12.189 42.49282 12.189 54.19101-62.05799-7.61138-117.2077-13.95319-117.2077-13.95319-1.55166-39.4648-2.11416-47.2184-5.21742-57.78898zm-327.51952 45.0658 145.58797 16.80297c-0.7976 36.37692-3.19045 55.21414-15.15835 75.24614-79.38649-3.98672-150.0312-8.33783-150.0312-8.33783 8.67683-18.83687 18.55737-50.41723 19.60158-83.71128zm330.64761 36.23442 117.77022 11.27575c-3.38533 22.97429-21.43807 51.58604-21.43807 51.58604-29.61903-1.12787-114.38536-2.5364-114.38536-2.5364s13.96297-27.48575 18.05321-60.32539zm-364.76271 72.90166 151.9108 4.61646s-14.17401 28.04856-31.73376 30.58576c-17.56002 2.53724-144.18796 3.4103-165.90884 0.73252 6.14045-2.93286 36.11796-16.42098 45.7318-35.93474zm330.26346 7.77962 117.23122 0.27618c-3.57413 3.99179-14.64581 11.61815-20.18565 15.31246-15.17751 10.1213-18.33097 10.81932-53.71669 10.60003-44.08127-0.27328-74.0023-0.49945-74.0023-0.49945 14.46095-10.46431 22.84953-16.59788 30.67342-25.68922z" fill="var(--icon-color)" style="paint-order:markers stroke fill"/></svg>
