<svg width="16" height="16" aria-hidden="true" data-view-component="true" version="1.1" viewBox="0 0 16 16" xmlns="http://www.w3.org/2000/svg">
	<path d="m13.2 10.2q0 0.859-0.35 1.54-0.342 0.676-0.946 1.12-0.7 0.525-1.54 0.748-0.835 0.223-2.12 0.223h-5.17v-11.8h4.6q1.43 0 2.09 0.0954 0.668 0.0954 1.32 0.422 0.676 0.342 1 0.923 0.334 0.573 0.334 1.31 0 0.859-0.453 1.52-0.453 0.652-1.28 1.02v0.0636q1.16 0.231 1.84 0.954 0.684 0.724 0.684 1.91zm-3.91-4.87q0-0.294-0.151-0.589-0.143-0.294-0.517-0.437-0.334-0.127-0.835-0.135-0.493-0.0159-1.39-0.0159h-0.286v2.51h0.477q0.724 0 1.23-0.0239 0.509-0.0239 0.803-0.159 0.414-0.183 0.541-0.469 0.127-0.294 0.127-0.676zm0.748 4.82q0-0.565-0.223-0.867-0.215-0.31-0.74-0.461-0.358-0.103-0.986-0.111t-1.31-0.00795h-0.668v2.95h0.223q1.29 0 1.85-8e-3 0.557-8e-3 1.03-0.207 0.477-0.199 0.652-0.525 0.183-0.334 0.183-0.764z"/>
</svg>
