<svg width="16" height="16" aria-hidden="true" data-view-component="true" version="1.1" viewBox="0 0 16 16" xmlns="http://www.w3.org/2000/svg">
	<path d="m4.91 1.02c-0.429 0-0.738 0.0244-0.928 0.0742-0.279 0.08-0.508 0.197-0.688 0.352-0.179 0.149-0.332 0.353-0.457 0.607-0.12 0.255-0.201 0.591-0.246 1.01-0.0249 0.267-0.0399 0.815-0.0449 1.65-0.00467 0.836-0.047 1.43-0.127 1.77-0.0793 0.344-0.242 0.615-0.486 0.814-0.239 0.195-0.552 0.297-0.936 0.307l0.00391 1.2c0.384 0.01 0.694 0.113 0.934 0.312 0.244 0.199 0.406 0.472 0.486 0.816 0.0797 0.34 0.122 0.959 0.127 1.86 5e-3 0.899 0.0378 1.55 0.0977 1.94 0.0647 0.394 0.201 0.72 0.41 0.975 0.209 0.259 0.474 0.446 0.793 0.561 0.218 0.08 0.572 0.119 1.06 0.119h0.42v-1.17h-0.232c-0.474 0-0.794-0.0665-0.959-0.201-0.159-0.135-0.259-0.372-0.299-0.711-0.0199-0.187-0.0293-0.767-0.0293-1.74 0-1.07-0.124-1.84-0.373-2.31-0.245-0.471-0.643-0.819-1.19-1.05 0.465-0.225 0.807-0.482 1.02-0.771 0.219-0.287 0.373-0.697 0.463-1.23 0.0549-0.347 0.082-1.17 0.082-2.48 0-0.649 0.0846-1.07 0.254-1.25 0.168-0.189 0.513-0.283 1.03-0.283h0.23v-1.17h-0.418zm5.36 0.0332v1.17h0.232c0.474 0 0.79 0.0685 0.949 0.203 0.164 0.13 0.266 0.361 0.301 0.695 0.0249 0.187 0.0371 0.767 0.0371 1.74 0 1.07 0.117 1.84 0.352 2.29 0.233 0.446 0.636 0.806 1.21 1.08-0.441 0.185-0.78 0.445-1.02 0.779-0.239 0.327-0.399 0.767-0.479 1.32-0.0449 0.333-0.0684 1.12-0.0684 2.37 0 0.655-0.0846 1.08-0.254 1.26-0.168 0.189-0.511 0.285-1.03 0.285h-0.232v1.17h0.42c0.429 0 0.738-0.0291 0.928-0.084 0.279-0.08 0.508-0.197 0.688-0.352 0.179-0.149 0.329-0.351 0.449-0.605 0.124-0.249 0.209-0.586 0.254-1.01 0.0249-0.267 0.0399-0.817 0.0449-1.65 0.00467-0.834 0.047-1.42 0.127-1.76 0.08-0.344 0.239-0.615 0.479-0.814 0.245-0.199 0.559-0.304 0.943-0.314v-1.2c-0.384-0.01-0.699-0.115-0.943-0.314-0.239-0.199-0.399-0.467-0.479-0.807-0.0797-0.34-0.122-0.961-0.127-1.86-0.00513-0.899-0.0406-1.55-0.105-1.94-0.06-0.394-0.193-0.721-0.402-0.98-0.209-0.259-0.476-0.443-0.795-0.553-0.218-0.08-0.57-0.121-1.06-0.121h-0.42z"/>
</svg>
