<svg width="16" height="16" aria-hidden="true" data-view-component="true" version="1.1" viewBox="0 0 16 16" xmlns="http://www.w3.org/2000/svg">
	<path d="m2 1c-0.552 0-1 0.448-1 1v12c0 0.552 0.448 1 1 1h12c0.552 0 1-0.448 1-1v-12c0-0.552-0.448-1-1-1h-12zm0.5 1.5h11v7.45l-1.52-1.14c-0.239-0.18-0.567-0.184-0.811-0.00977l-2.05 1.47c-0.236 0.169-0.56 0.144-0.768-0.0586l-2.19-2.13c-0.102-0.0998-0.231-0.153-0.365-0.158-0.134-0.00559-0.273 0.0361-0.383 0.127l-2.91 2.39v-6.94l-0.00391-1zm7.58 1.22c-1.2 0.0299-2.16 1.01-2.16 2.22-5.67e-4 1.23 0.993 2.22 2.22 2.22 1.23-4.45e-4 2.22-0.993 2.22-2.22-4.45e-4 -1.23-0.99-2.22-2.22-2.22-0.0228-1.05e-5 -0.0412-3.85e-4 -0.0566 0h-0.00391zm0.0566 1.2c0.561-9.1e-5 1.02 0.459 1.02 1.02 9.1e-5 0.561-0.459 1.02-1.02 1.02-0.561 9.08e-5 -1.02-0.46-1.02-1.02-9.09e-5 -0.561 0.459-1.02 1.02-1.02zm-4.39 4.99-0.00195 0.00586c0.138 0.00591 0.268 0.0633 0.365 0.16l2.17 2.15c0.204 0.203 0.527 0.226 0.758 0.0527l2.14-1.61c0.236-0.176 0.56-0.172 0.791 0.00977l1.53 1.21v1.61h-11v-1.1l2.87-2.36c0.105-0.0884 0.239-0.134 0.377-0.129z" style="-inkscape-stroke:none"/>
</svg>
