<svg width="16" height="16" aria-hidden="true" data-view-component="true" version="1.1" viewBox="0 0 16 16" xmlns="http://www.w3.org/2000/svg">
	<path d="m11.7 1a3.5 3.5 0 0 0-2.66 1.02l-1.25 1.25a0.75 0.75 0 0 0 1.06 1.06l1.25-1.25a2 2 0 0 1 2.83 2.83l-2.5 2.5a2 2 0 0 1-2.83 0 0.75 0.75 0 0 0-1.06 1.06 3.5 3.5 0 0 0 4.95 0l2.5-2.5a3.5 3.5 0 0 0-2.29-5.97zm-4.68 4.5a3.5 3.5 0 0 0-2.47 1.03l-2.5 2.5a3.5 3.5 0 0 0 4.95 4.95l1.25-1.25a0.75 0.75 0 0 0-1.06-1.06l-1.25 1.25a2 2 0 0 1-2.83 0 2 2 0 0 1 0-2.83l2.5-2.5a2 2 0 0 1 2.83 0 0.75 0.75 0 0 0 1.06-1.06 3.5 3.5 0 0 0-2.47-1.03z"/>
</svg>
