<svg width="16" height="16" aria-hidden="true" data-view-component="true" version="1.1" viewBox="0 0 16 16" xmlns="http://www.w3.org/2000/svg">
	<title>Plaintext</title>
	<path d="m2 3.75a1 1 0 0 0-1 1v0.219 6.06 0.219a1 1 0 0 0 1 1h12a1 1 0 0 0 1-1v-0.219-6.06-0.219a1 1 0 0 0-1-1h-12zm0 1.7h1.3 1.29 1.29 1.58l0.535 1.02 0.535-1.02h1.58 1.3 1.29 1.3v1.25h-1.3v3.85h-1.29v-3.85h-1.3v-1.25l-1.32 2.52 1.36 2.58h-1.58l-0.566-1.08-0.566 1.08h-1.58l1.36-2.58-1.32-2.52v1.25h-1.29v3.85h-1.29v-3.85h-1.3v-1.25z"/>
</svg>
