<svg width="16" height="16" version="1.1" viewBox="0 0 16 16" xmlns="http://www.w3.org/2000/svg">
	<title>Preview</title>
	<g>
		<path d="m8 5a3 3 0 0 0-3 3 3 3 0 0 0 3 3 3 3 0 0 0 3-3 3 3 0 0 0-3-3zm0 1.2a1.8 1.8 0 0 1 1.8 1.8 1.8 1.8 0 0 1-1.8 1.8 1.8 1.8 0 0 1-1.8-1.8 1.8 1.8 0 0 1 1.8-1.8z" stop-color="#000000" style="-inkscape-stroke:none"/>
		<path d="m7.48 3.02c-2.64 0.196-5.12 1.84-6.87 4.55-0.149 0.232-0.149 0.619 5.47e-5 0.851 1.75 2.72 4.23 4.36 6.87 4.55 0.275 0.0204 0.724 0.0214 0.999 0.0023 2.66-0.184 5.15-1.83 6.9-4.56 0.149-0.232 0.149-0.619-5.7e-5 -0.851-1.76-2.73-4.25-4.37-6.9-4.56-0.275-0.0191-0.724-0.0181-0.999 0.0023zm0.999 1.2c2.05 0.167 3.99 1.36 5.48 3.37 0.164 0.222 0.164 0.595-4.2e-5 0.817-1.49 2.01-3.43 3.2-5.48 3.37-0.275 0.0225-0.724 0.0209-0.999-0.0035-2.04-0.181-3.96-1.37-5.44-3.37-0.164-0.222-0.164-0.595 3.88e-5 -0.817 1.48-2 3.4-3.19 5.44-3.37 0.275-0.0244 0.724-0.026 0.999-0.0035z" stop-color="#000000" style="-inkscape-stroke:none"/>
	</g>
</svg>
