<svg width="16" height="16" aria-hidden="true" data-view-component="true" version="1.1" viewBox="0 0 16 16" xmlns="http://www.w3.org/2000/svg">
	<title>Strikethrough</title>
	<path d="m7.96 1.97 0.0117 0.00586c-0.854 0-1.63 0.129-2.32 0.389-0.697 0.261-1.23 0.644-1.6 1.15-0.363 0.5-0.545 1.04-0.545 1.62 0 0.527 0.147 1 0.441 1.43 0.3 0.422 0.753 0.777 1.36 1.06 0.467 0.224 1.28 0.463 2.45 0.719 1.17 0.251 1.92 0.437 2.26 0.557 0.53 0.182 0.909 0.406 1.14 0.678 0.231 0.266 0.348 0.58 0.348 0.939 0 0.354-0.121 0.682-0.363 0.986-0.236 0.297-0.6 0.531-1.09 0.703-0.49 0.172-1.05 0.26-1.69 0.26-0.72 0-1.36-0.114-1.94-0.338-0.576-0.23-1-0.526-1.28-0.891-0.271-0.37-0.445-0.841-0.52-1.41l-1.59 0.125c0.0231 0.766 0.256 1.45 0.693 2.06 0.444 0.605 1.05 1.06 1.83 1.36 0.778 0.302 1.74 0.451 2.89 0.451 0.905 0 1.72-0.146 2.44-0.443 0.727-0.302 1.28-0.724 1.67-1.26 0.386-0.542 0.578-1.12 0.578-1.73 0-0.615-0.176-1.16-0.527-1.62-0.352-0.474-0.895-0.865-1.64-1.18-0.507-0.209-1.44-0.452-2.81-0.729-1.36-0.281-2.21-0.555-2.53-0.82-0.329-0.266-0.492-0.605-0.492-1.02 0-0.474 0.23-0.877 0.691-1.21 0.467-0.339 1.21-0.508 2.23-0.508 0.974 0 1.71 0.185 2.21 0.555 0.502 0.37 0.796 0.918 0.883 1.64l1.61-0.111c-0.0289-0.672-0.239-1.27-0.625-1.8s-0.938-0.932-1.66-1.21c-0.715-0.276-1.54-0.414-2.49-0.414zm-6.97 4.51v2.6h5.63c-0.741-0.214-1.31-0.425-1.75-0.674l-0.00195-0.00195c-0.671-0.374-1.22-0.869-1.6-1.49-0.00309-0.00288-0.00477-0.0049-0.00781-0.00781-0.08-0.137-0.15-0.281-0.213-0.426h-2.05zm9.71 0c0.246 0.0864 0.464 0.173 0.652 0.264 0.00126 7.21e-4 0.00265 0.00122 0.00391 0.00195 0.801 0.392 1.46 0.926 1.89 1.62 0.143 0.225 0.262 0.466 0.357 0.715h1.55v-2.6l-4.46-0.00195z"/>
</svg>
