<svg width="16" height="16" aria-hidden="true" data-view-component="true" version="1.1" viewBox="0 0 16 16" xmlns="http://www.w3.org/2000/svg">
	<title>Subscript</title>
	<path d="m1.21 3.49 2.91 4.13-3.15 4.48 1.76 0.00391 2.26-3.4 0.471 0.723 1.77 2.68h1.79l-3.2-4.56 2.98-4.05h-1.74l-1.45 2.03c-0.2 0.276-0.42 0.593-0.658 0.949-0.151-0.259-0.351-0.581-0.6-0.965l-1.32-2.02h-1.82zm10.9 4.17c-0.731 1e-7 -1.31 0.192-1.75 0.574-0.436 0.38-0.687 0.933-0.754 1.66l0.977 0.0996c0.00333-0.486 0.142-0.865 0.416-1.14 0.277-0.274 0.643-0.412 1.1-0.412 0.433 0 0.782 0.131 1.05 0.391 0.271 0.257 0.406 0.573 0.406 0.949 0 0.356-0.148 0.737-0.443 1.14-0.293 0.4-0.859 0.942-1.7 1.63-0.539 0.443-0.952 0.833-1.24 1.17-0.285 0.339-0.491 0.683-0.621 1.03-0.081 0.211-0.118 0.43-0.111 0.658h5.11v-0.912l-3.81 0.00977c0.105-0.172 0.239-0.343 0.4-0.512 0.164-0.172 0.53-0.497 1.1-0.975 0.682-0.577 1.17-1.03 1.46-1.36 0.295-0.33 0.506-0.643 0.633-0.941 0.127-0.299 0.189-0.603 0.189-0.912 1e-6 -0.609-0.214-1.12-0.646-1.53-0.433-0.411-1.02-0.617-1.76-0.617z"/>
</svg>
