<svg width="16" height="16" aria-hidden="true" data-view-component="true" version="1.1" viewBox="0 0 16 16" xmlns="http://www.w3.org/2000/svg">
	<title>Underline</title>
	<path d="m3.04 2v6.73c0 1.23 0.164 2.21 0.492 2.92 0.327 0.711 0.874 1.25 1.64 1.63s1.75 0.564 2.96 0.564c1.25 0 2.25-0.216 3.01-0.645 0.767-0.433 1.3-0.993 1.59-1.68 0.293-0.687 0.439-1.62 0.439-2.79v-6.73h-1.7l-0.0137 6.72c0 1.46-0.267 2.45-0.801 2.96-0.533 0.513-1.43 0.77-2.68 0.77-0.73 0-1.35-0.129-1.86-0.389-0.503-0.257-0.86-0.623-1.07-1.1-0.205-0.48-0.309-1.23-0.309-2.24v-6.72h-1.7zm-1.36 12.5v1.33h12.9v-1.33h-12.9z"/>
</svg>
