<svg version="1.1" viewBox="0 0 512 512" xmlns="http://www.w3.org/2000/svg" xmlns:xlink="http://www.w3.org/1999/xlink">
	<defs xmlns="http://www.w3.org/2000/svg">
        <linearGradient id="stroke" gradientTransform="rotate(45)">
            <stop offset="0%" stop-color="#fff" stop-opacity="0.6" />
            <stop offset="100%" stop-color="#333" stop-opacity="0" />
        </linearGradient>
        <radialGradient xmlns="http://www.w3.org/2000/svg" id="fill" gradientUnits="userSpaceOnUse" cy="100%" cx="100%" gradientTransform="skewX(-40) skewY(-40)">
            <stop xmlns="http://www.w3.org/2000/svg" offset="0%" stop-color="#fff" stop-opacity="1.0"/>
            <stop xmlns="http://www.w3.org/2000/svg" offset="100%" stop-color="#fff" stop-opacity="0.25"/>
            <animate xmlns="http://www.w3.org/2000/svg" repeatCount="indefinite" attributeName="cy" to="-100%" from="300%" dur="8000ms"/>
            <animate xmlns="http://www.w3.org/2000/svg" repeatCount="indefinite" attributeName="cx" to="-100%" from="300%" dur="8000ms"/>
        </radialGradient>
	</defs>
	<path d="m 171.81419,35.454426 c -10.93204,2.342621 -22.20787,2.561226 -33.09935,5.129558 -3.86595,-1.011966 -8.75469,-4.85073 -12.19726,-0.826172 -4.94803,3.870698 -13.62384,-2.384285 -10.67188,-8.169921 2.95354,-1.65643 3.73256,-4.966368 -0.50379,-3.165249 -11.79329,3.285944 -23.195956,8.350625 -33.015738,15.727749 -3.92051,9.552525 0.627976,19.722649 3.732422,28.804687 3.553512,7.961486 8.678471,15.141043 14.523436,21.570313 3.03456,-4.422327 -1.740893,-8.793435 -3.419921,-12.683594 -2.802918,-6.069368 -5.85116,-12.511844 -5.228515,-19.380859 5.415958,2.573318 6.177022,9.257484 9.951176,13.355468 2.77466,-1.578868 -1.09816,-6.101284 2.36132,-7.140625 3.57034,2.481324 3.77292,7.578376 7.28516,10.101563 1.68602,-1.373754 0.58902,-4.534014 3.22461,-5.294922 3.67699,-1.436018 7.41717,1.118638 11.16907,1.074465 8.32323,1.385766 16.8339,2.399466 24.75866,5.40991 5.63003,9.507698 2.67818,21.996423 -4.20117,30.050783 -1.06806,5.02569 -8.02403,7.89014 -12.06445,4.43945 -2.84891,-0.41248 -4.26469,3.69793 -2.37109,5.53125 -0.53991,3.68495 -6.55898,3.80268 -7.62305,0.40234 -4.77213,-4.01099 -12.44107,-0.6607 -14.5586,4.71485 -6.78668,8.22077 -10.254562,18.54619 -12.849605,28.74023 7.466455,-9.91197 11.990525,-21.76917 19.931645,-31.34765 3.33301,-0.89524 5.87995,4.05032 3.46289,6.37695 -0.0765,7.47191 10.84612,11.05835 15.73046,5.72852 13.21294,-7.12677 23.31182,-19.7307 38.1875,-23.74805 3.91346,-2.53303 3.37808,-8.60528 0.10352,-11.404298 0.0991,-3.823302 6.77044,-3.911616 7.10156,-0.171875 7.08265,1.837743 12.35084,-4.597933 17.6045,-8.092462 7.41601,-3.772602 18.63869,2.465521 17.21386,11.281915 -1.07343,10.3986 -10.6082,16.58314 -17.81445,22.87109 -1.51543,0.37968 -1.67742,2.37045 0.16797,1.35547 13.13593,-5.246 26.47098,-13.17056 32.78983,-26.41438 4.85654,-8.997769 -1.21283,-20.099478 -9.46766,-24.673373 -9.3878,-5.736628 -20.9352,-1.436625 -30.94924,-4.659994 0.84433,-1.261528 5.42577,-1.757301 7.64362,-2.78872 23.15324,-7.401728 46.00923,-17.838784 63.75103,-34.842437 0.55632,-4.226354 -5.00603,-5.932309 -8.0461,-4.04752 -10.03328,0.651162 -21.40381,-0.369355 -31.44229,-0.434057 -4.09541,-4.845049 2.58158,-17.252577 4.67676,-20.7206805 C 220.09914,10.288436 207.433,23.005868 200.98438,26.488281 199.42239,19.258109 201.25245,11.826506 200.09375,4.5585938 193.11688,18.663809 185.97524,32.06876 171.81419,35.454426 Z m 93.76784,0.516277 c -8.38219,3.395791 -14.63375,10.328087 -22.6875,14.308594 -1.68601,3.366461 3.06115,5.414163 5.32271,6.863561 9.21467,4.108761 19.62489,2.616255 29.39409,2.40597 14.50454,-1.518212 28.48873,-6.714738 40.89062,-14.310547 C 301.52341,41.446969 284.5235,37.593165 267.25,35.386719 Z m -105.8545,9.372711 c 6.02685,0.83301 3.19515,8.459853 -1.66388,9.83524 -4.85903,1.375387 -9.6209,1.445216 -12.68581,0.05018 -2.32086,-4.36148 3.12055,-7.683959 6.16283,-8.578231 3.04227,-0.894272 5.66472,-1.258838 8.18686,-1.307187 z m -66.395499,3.133148 c -0.376461,2.226315 -2.532186,-1.402001 0,0 z m 225.246089,2.998047 c -7.63895,1.433736 -14.43629,5.67921 -22.12304,6.931641 1.96737,8.920651 11.87443,12.044097 19.62514,14.158228 19.14475,5.743628 39.03163,-1.012455 58.4677,0.909814 12.93975,2.876606 24.44127,10.560721 33.23333,20.336255 -12.3068,-7.455145 -24.70669,-17.64209 -39.92969,-16.998047 -3.97586,5.93e-4 -7.92124,0.639383 -11.77539,1.580078 0.64025,8.300533 9.20857,12.043266 14.58233,17.096373 15.40588,11.227449 35.07686,12.366489 53.0877,16.231079 6.75999,2.59579 12.82534,7.13087 16.95692,13.10614 -2.32585,2.44656 -6.7034,0.51295 -7.39648,-2.51367 -8.56773,-8.01034 -21.30933,-12.23013 -32.7832,-8.77539 -2.56115,3.20158 -0.96079,7.53408 0.40429,10.87891 -5.29066,-4.20051 -8.54024,-11.6977 -15.85742,-12.76954 -4.05936,2.50214 -0.97611,7.98656 2.18795,9.78006 7.44889,7.87803 16.17841,14.71409 26.1558,19.07932 2.7262,-3.91888 7.41792,-0.11977 10.9147,0.30966 10.2344,2.77937 20.48711,5.52462 30.54429,8.90323 -3.08059,5.08553 -10.02539,2.83125 -13.86424,-0.007 -4.01242,-1.16205 -7.06307,4.35419 -4.29781,7.32682 4.59768,15.33111 18.46575,25.47084 32.32806,32.01587 2.28016,2.53335 -2.38634,5.85087 -4.31836,3.22656 -4.72144,-0.35505 -5.57284,5.51007 -5.13471,9.05245 -0.12203,15.49277 10.63384,28.25991 21.75616,37.84401 8.76249,8.06755 15.03835,20.02356 12.95525,32.18544 -0.42514,2.73343 1.22313,6.52367 -1.0181,8.57435 -4.12468,0.92348 -3.5294,-4.26439 -3.68591,-6.81774 -1.20539,-11.1487 -3.0002,-22.8868 -9.88831,-32.10999 -5.21707,-3.35162 -12.40338,3.58384 -9.72852,9.0039 -0.11671,6.70171 0.11116,13.41609 -0.40429,20.10547 -5.339,-12.28721 1.23508,-26.47818 -4.88086,-38.57422 -2.57457,-2.58314 -7.41342,1.49533 -5.36329,4.48242 1.43389,25.11146 14.47779,47.78453 29.69336,67.13282 2.88334,4.72648 2.79342,11.24308 -0.6582,15.66015 -5.7992,-6.50272 -1.2533,-17.77145 -8.9668,-23.05469 -2.80414,-2.22148 -5.40559,0.61473 -7.5996,1.10938 -3.25077,-1.49019 0.86209,-4.92183 -0.0137,-7.42578 -0.21579,-2.12656 -1.66367,-5.45527 -3.98418,-5.28991 -6.80211,3.71989 -6.12744,12.63568 -6.19509,19.26508 -0.67828,11.67466 3.22003,23.21948 9.46894,32.95764 5.9872,14.51273 4.71746,32.40971 -5.14123,44.95391 -3.41621,1.22462 -4.30312,-4.43013 -1.85547,-5.95508 5.00485,-9.8565 5.83015,-21.53198 3.14453,-32.18164 -7.12827,-1.07743 -11.54237,6.02268 -14.84179,11.17969 -7.40672,9.6112 -8.41917,23.08497 -4.03234,34.19294 2.65905,11.90323 -1.42783,25.28954 -11.15023,32.90067 -4.00841,4.16569 -8.26303,8.09533 -12.10064,12.42396 -1.4412,-5.34561 4.83075,-7.91003 6.74439,-12.11454 7.84663,-10.2697 13.93064,-22.96992 12.69311,-36.19796 -2.26375,-4.73614 -9.15197,-2.48129 -11.16992,1.33399 -4.14457,3.73044 -7.24081,8.41658 -10.98828,12.51367 0.57854,-8.17386 9.05022,-12.08896 12.56624,-18.80355 2.02423,-3.14376 4.63594,-7.0181 4.12907,-10.74332 -1.94199,-2.21535 -6.37204,-0.82918 -6.5,2.18164 -13.29837,14.8783 -16.54228,35.69956 -16.46387,54.97492 -1.81373,14.43605 -10.06091,28.55099 -23.22558,35.34148 -1.08904,2.15659 -6.36359,3.43936 -5.93555,-0.22265 2.11028,-5.45413 8.36962,-7.40883 11.53946,-12.10348 7.43843,-7.59372 14.74401,-16.95619 15.27109,-27.9434 -1.89702,-4.80351 -8.52803,-3.49465 -11.5465,-0.57526 -15.01169,7.96142 -21.94462,25.15621 -24.09145,41.19608 -2.16045,9.72437 -10.67621,16.78653 -19.87876,19.61303 -1.66981,1.99186 -7.30301,1.72284 -5.07164,-1.67861 2.49599,-3.01803 7.06171,-3.13371 9.48538,-6.31684 7.30831,-5.95303 12.85865,-14.23572 14.91547,-23.4884 -3.75891,-1.88867 -5.44705,-8.44634 -0.77734,-10.32617 2.11315,-1.3112 2.44201,-6.20598 -1.01368,-5.25977 -9.97405,1.28597 -16.43614,9.89434 -23.49829,16.11815 -10.39138,11.07305 -17.00774,24.96761 -23.01733,38.74513 -6.85147,7.42287 -17.33096,9.14144 -26.81641,10.72461 -1.34472,3.51776 -7.90404,-0.57829 -4.51953,-2.97461 10.00285,-5.24719 23.20721,-6.12835 29.92969,-16.30468 2.77137,-5.73319 -4.86468,-12.03693 -10.20899,-9.16016 -18.2205,1.97825 -32.89076,14.42071 -45.49023,26.75391 -8.47209,6.9078 -20.05907,5.70654 -30.19531,5.04492 -2.41674,0.54436 -7.01573,-1.75836 -4.62179,-4.44471 4.08924,-2.84489 9.23245,-0.0603 13.77971,-1.05362 9.3094,-0.21866 20.3326,-2.72277 25.07841,-11.59737 1.57313,-5.70011 -5.19055,-9.52321 -10.14315,-8.72005 -15.22246,-0.54657 -27.75314,9.45983 -40.00263,17.07152 -8.9326,5.24021 -19.80792,4.43089 -29.31927,1.36811 -3.24268,-0.95432 -6.43254,-2.23005 -9.22831,-4.15708 -0.75975,-3.53755 4.37575,-4.05266 6.5711,-2.59131 13.64153,3.97127 30.37375,3.07955 40.7453,-7.71924 2.49193,-2.74458 -0.0323,-6.25912 -2.98047,-7.15625 -13.88706,-7.76876 -31.3622,-3.80459 -43.88672,4.82617 -8.65337,5.34434 -20.06298,7.57324 -29.33007,2.39453 -2.87178,-1.43195 -6.57773,-2.49451 -8.38477,-5.16211 0.0258,-3.99526 4.67136,-3.5057 6.85742,-1.69922 13.81728,4.29358 29.57594,1.75999 41.31641,-6.70898 -1.84996,-7.32286 -10.46795,-9.07667 -16.8318,-10.36919 -15.13037,-1.98435 -28.71736,7.46218 -43.58341,7.80491 -10.27365,-0.32387 -18.47771,-7.26468 -25.67527,-13.85807 -3.02357,-2.60678 -6.06991,-5.18822 -9.21811,-7.64406 1.41731,-4.39783 7.24261,-2.7445 9.67807,-0.23433 12.53295,6.184 24.55295,16.3959 39.34776,15.34754 5.6636,-0.71187 10.63832,-6.85912 8.64409,-12.55657 2.57341,-2.27552 3.39229,3.34571 5.7749,3.82203 2.40005,1.40177 7.25691,0.48504 6.30322,-3.10132 -2.01017,-6.74133 -9.71844,-8.78972 -15.48181,-11.20728 -18.57369,-5.20358 -37.81659,4.46274 -56.37725,-1.09667 -10.181059,-2.62492 -20.163049,-9.14328 -24.043281,-19.28785 0.511951,-4.45696 7.024506,-3.27856 8.728262,-0.20742 9.513878,10.4715 22.396329,20.35589 37.301189,19.41533 2.92513,-0.59691 6.47805,0.23248 9.00571,-1.2333 0.90139,-3.12305 -1.67587,-6.17787 -2.80312,-9.0127 -8.30215,-14.51629 -26.9514,-21.51187 -42.910404,-17.11766 -11.992735,0.92384 -24.225554,-6.56718 -28.360256,-17.9539 l -6.699662,-11.46261 c 11.727394,5.94937 16.059112,21.29547 29.285156,24.96093 4.157343,1.78635 8.718766,2.58984 13.236328,2.39063 3.748919,-6.2993 -1.394381,-13.11523 -4.831613,-18.26832 -8.59869,-11.95055 -22.918626,-18.08163 -36.925316,-20.85071 -9.562024,-5.24321 -14.205723,-15.98415 -16.635649,-26.11535 -3.248675,-0.11039 -0.186104,-6.13539 1.726562,-3.38281 3.724823,11.99745 9.952647,24.95402 22.29837,29.97151 3.844615,2.50167 10.846271,1.13792 10.752412,-4.35042 1.064243,-9.3412 -5.219954,-17.46798 -10.820001,-24.25172 -7.44599,-7.92612 -17.778586,-12.04956 -26.636871,-17.95601 -10.075872,-10.01434 -10.673167,-25.21038 -10.806631,-38.54843 -0.136049,-2.56003 -0.168725,-9.41956 1.999831,-3.94306 7.201796,13.71893 3.595361,31.53873 14.552734,43.54297 3.126316,3.87398 8.767903,7.85824 13.738281,4.86133 4.845174,-7.52042 -0.08901,-16.58604 1.960938,-24.6875 2.388367,3.13607 1.261353,7.4871 2.047427,11.15263 0.401652,6.59711 0.701138,13.71944 4.753354,19.26534 3.613317,1.12202 5.316902,-4.0179 3.802734,-6.62109 -0.03601,-19.46988 -11.936422,-37.61411 -28.439453,-47.40625 -9.414681,-6.6705 -14.721829,-18.22495 -13.993069,-29.70282 0.175591,-7.26108 1.919436,-14.35821 3.696194,-21.36359 2.788159,0.34393 2.480396,4.64234 2.686339,6.83386 -0.612953,7.87525 -2.138455,15.78051 -0.688052,23.67522 1.084835,7.00907 3.946298,14.74771 10.338473,18.45258 4.281208,0.9964 8.827221,-2.82876 8.772615,-7.18432 3.654667,1.91219 -0.105237,5.93622 0.02344,8.83399 -0.411391,2.73981 2.472622,7.21668 5.318582,4.64337 4.740578,-5.03837 3.179308,-12.54439 4.349387,-18.79376 0.174497,-12.35042 -7.137488,-23.12471 -14.996767,-32.00637 -7.063271,-9.6522 -9.745366,-22.96007 -4.759093,-34.1323 2.862497,-8.19904 7.21165,-15.75488 10.681641,-23.69336 3.158023,-1.99575 6.27589,3.43109 3.716797,5.65234 -5.663473,14.96252 -11.662403,31.05188 -8.351563,47.27344 3.129815,5.08032 10.715555,1.28593 11.720466,-3.59195 8.684842,-14.53086 8.043839,-33.15471 0.934189,-48.17635 -3.319779,-9.92939 0.267938,-21.50676 8.052376,-28.35084 5.077179,2.92022 2.845775,9.92549 -0.330834,13.41525 -2.99343,6.60902 -5.500881,14.01801 -3.852759,21.32694 5.336019,3.87698 12.678403,-1.42897 13.36914,-7.28907 1.168403,-3.28488 5.224332,-3.14968 2.266171,0.30761 -4.377065,7.53368 -9.6222,15.24361 -9.738256,24.28334 -2.920031,12.49748 -6.179844,25.0108 -11.520102,36.72546 0.654006,3.63213 7.044506,1.92166 6.064453,-1.51953 4.218927,-16.89744 7.895992,-34.10625 15.510732,-49.88563 4.900958,-12.64363 6.561466,-27.42237 0.366524,-39.93667 -1.292419,-3.05474 -1.271064,-6.73879 -2.937803,-9.52536 -2.784826,-1.91704 -5.801243,1.02802 -6.455954,3.6724 -12.974067,19.81072 -27.087955,39.55643 -33.762796,62.57955 1.323079,3.59765 -1.517965,8.03791 -5.371094,8.23829 -4.345611,8.10208 -2.129114,18.04524 -6.662275,26.0927 -2.748124,8.10152 -3.254868,16.75395 -2.905598,25.19601 -2.140577,12.63114 1.767537,25.40081 0.0083,38.04614 1.281294,9.16945 3.595062,18.19126 4.937551,27.33064 3.884707,11.70021 12.500522,21.11567 16.405687,32.82742 9.165086,20.59851 17.811265,42.09032 33.231426,58.96082 8.596245,12.29994 17.578404,25.20957 31.054021,32.57884 10.43584,8.32914 19.9958,18.24926 32.62162,23.29189 8.21867,4.14604 15.40443,10.18862 23.53507,14.35999 11.52897,3.22561 24.52428,3.06479 34.40319,10.65871 14.69304,6.50369 31.4282,3.7369 46.46003,9.01856 15.46093,3.28924 31.00644,-1.44936 46.39861,-2.88816 13.50451,-1.75008 27.0591,-3.84044 39.89184,-8.56191 9.4552,-3.1853 19.2941,-5.09957 28.75923,-8.18314 8.29976,-3.17106 14.94231,-9.24475 22.02477,-14.33675 11.27505,-6.19827 25.57417,-8.77717 33.17554,-20.14549 7.32485,-8.89784 16.95214,-15.4596 26.46967,-21.73388 11.44262,-11.78876 14.885,-29.2377 27.30581,-40.26207 6.49899,-7.94368 11.16766,-17.70279 11.79374,-28.05111 5.74151,-8.6087 6.14744,-19.36022 11.08756,-28.32164 4.20959,-8.27884 7.68,-17.29323 6.81699,-26.75635 -0.3515,-7.48239 0.86767,-14.86558 2.99763,-22.01325 2.24499,-8.60161 3.21153,-17.83257 0.33491,-26.39522 -0.95875,-7.41693 -0.82749,-15.20894 -4.20538,-22.05868 -2.81904,-13.86746 -4.01096,-28.15188 -9.07507,-41.47314 -4.23997,-15.34611 -12.13936,-29.4556 -22.08555,-41.81765 -5.94885,-8.0331 -10.42189,-16.99568 -15.28763,-25.67325 -7.98005,-11.73674 -20.35011,-19.42196 -29.23653,-30.386119 -8.64061,-9.677215 -18.53462,-19.030017 -31.25678,-22.846272 -22.22054,-8.915047 -42.7813,-25.066567 -67.79914,-24.4303 z m -82.64453,4.523438 c -4.47002,1.971354 -8.48327,4.798874 -12.40039,7.683594 l 11.94141,3.0625 c -7.74891,-0.201814 -15.83483,-1.504943 -23.28711,1.287109 5.59263,5.350758 13.9689,4.247287 21.02148,3.9375 3.9583,-3.165015 9.16346,-6.243401 14.31757,-4.1487 12.61248,0.80624 25.19549,-1.91406 37.00861,-6.175519 -16.21732,1.111495 -32.48475,-1.42683 -48.08008,-5.783203 z m 53.91797,6.814453 c -4.93737,1.304862 -9.80022,2.870615 -14.63672,4.505859 17.94695,8.108404 37.78189,13.212543 57.58008,11.28125 -14.58484,-2.149972 -28.76272,-7.402428 -40.98633,-15.685547 -0.64038,-0.16772 -1.30435,-0.0991 -1.95703,-0.101562 z m -19.82226,7.945312 c -3.71606,0.691852 -1.20934,7.213868 2,5.072266 2.93959,-0.42033 5.92384,-0.178533 8.87109,-0.507812 -0.4849,-5.278429 -7.20046,-4.312008 -10.87109,-4.564454 z m -37.94336,5.228516 c -2.87183,1.392453 -1.8922,6.162876 1.02148,6.88086 5.00935,9.755788 2.19862,22.682272 -6.16992,29.689452 6.42432,2.41153 11.95403,-3.27172 16.59914,-6.82545 7.37869,-5.36971 14.35039,-11.325562 20.58055,-18.002674 3.29743,8.464933 -3.84573,17.342964 -11.75196,19.818364 -2.29306,1.92405 -6.44509,1.01534 -7.76367,4.1582 1.04888,3.77692 5.97371,2.96966 8.4507,1.24817 13.78097,-3.53746 27.64976,-9.60177 36.93407,-20.777469 2.13556,-10.334627 -10.52415,-19.335867 -19.79883,-14.93164 -12.47621,1.446539 -25.39028,2.121776 -37.5957,-1.404297 z m -104.94727,3.816406 c -2.11712,0.962423 -0.26171,3.817007 -1.42112,5.473777 -1.63961,6.721345 -7.77916,10.710838 -12.98628,14.504423 -6.89516,7.024486 -11.73557,16.069016 -13.588692,25.742506 1.115552,2.90886 6.172122,2.21302 6.541012,-0.85742 13.89497,-13.96631 28.75306,-26.924245 43.82032,-39.601567 -3.52162,-5.89256 -11.34718,-5.071925 -17.20644,-4.753481 -1.72605,-0.107984 -3.41591,-0.642662 -5.1588,-0.508238 z m 214.12305,1.41211 c -3.16581,0.760684 -1.97967,6.474051 1.25781,5.835937 10.99043,7.872442 23.21359,14.102209 36.21289,17.882809 -12.84981,-6.745037 -21.75613,-20.021258 -36.27344,-23.722652 z m -45.48633,0.435547 c -2.9278,1.671981 0.36211,5.330271 -0.0616,7.903166 0.53658,9.132379 -7.18882,16.938263 -15.34458,19.782383 -2.60133,-0.16447 -3.5183,2.90817 -1.59968,4.44726 2.78809,2.48752 6.64637,0.71268 9.95305,1.46142 9.94923,0.2698 21.53966,-1.9917 27.4825,-10.74462 4.92952,-10.059508 -4.6564,-22.386947 -15.32167,-22.245339 -1.68882,-0.28257 -3.38249,-0.719221 -5.10802,-0.60427 z m 27.54883,2.86914 c 0.39499,4.135801 5.61553,4.56562 8.51562,6.359375 3.05263,1.197767 6.1989,2.132979 9.35352,3.019532 -1.3288,-6.924072 -9.3998,-8.439717 -15.19006,-9.694518 -0.75482,-0.05217 -2.92404,-1.231213 -2.67908,0.315611 z m -177.25195,7.44336 c -8.80437,6.487384 -17.59189,13.302719 -24.375,21.949219 0.67925,3.08981 5.91821,2.9714 6.49414,-0.13672 7.41613,-7.9311 15.77748,-15.194317 21.53515,-24.488281 -1.2181,0.891927 -2.4362,1.783855 -3.65429,2.675782 z m 177.92187,-0.06836 c -0.45285,4.428844 1.93835,9.266719 -0.99219,13.287109 -2.27147,5.11649 -7.0564,9.3393 -12.73633,9.99609 -2.47972,2.50954 1.51997,6.7283 4.34376,5.12305 8.4779,0.59468 18.91531,-0.0804 24.05273,-7.91601 3.94949,-9.58907 -5.00263,-20.004255 -14.51758,-21.00977 z m -120.67578,1.939453 c -1.66988,0.34252 -3.25373,1.051612 -4.67188,1.990235 3.4529,-0.8121 7.34151,-1.492693 10.68555,-0.01563 2.15483,10.701061 -5.3781,20.953211 -14.44336,25.835941 -5.95572,5.74366 -18.55125,20.59663 -14.27656,19.33095 5.11751,-3.85657 25.35675,-23.72907 32.90351,-36.60244 0.471,-5.461566 -4.31162,-11.667432 -10.19726,-10.539061 z m -0.10156,3.792969 c -5.48688,1.04679 -3.10614,11.191207 2.3164,9.566407 3.36691,-2.31497 2.60729,-10.022538 -2.3164,-9.566407 z m -10.22071,6.083987 c -3.18554,3.53641 1.0489,10.334 5.63868,8.80078 0.58638,-3.69192 -1.71205,-7.89323 -5.38868,-9.04102 z m 85.00977,2.67187 c -13.23304,4.98401 -27.95005,7.01093 -39.48633,15.73242 8.16967,2.7296 15.11749,-4.25413 22.48182,-6.49892 7.02856,-3.08351 13.97259,-6.42446 20.43615,-10.58506 z m 70.5625,-0.8164 c 2.95145,11.21014 -10.23182,22.30958 -20.83008,17.91015 -3.58882,0.76936 -1.57354,6.46392 1.57031,6.15039 8.46648,3.82671 18.41754,6.66986 27.52735,3.55664 6.56306,-3.66755 7.54168,-13.19101 2.95514,-18.81646 -2.61735,-4.25961 -6.75438,-7.4724 -11.3692,-9.32221 l 0.1463,0.52084 z m -169.45703,5.10742 c -0.9833,1.46727 -2.56565,3.32422 -2.90235,4.8164 2.54594,-0.64775 4.55267,-3.54592 3.8379,-6.15039 -0.31185,0.44467 -0.6237,0.88933 -0.93555,1.33399 z m 191.47656,1.25195 c 4.64867,6.07044 10.55107,11.01708 16.58984,15.64453 -3.87813,-7.25612 -9.98987,-13.36443 -17.43359,-16.92773 0.28125,0.42773 0.5625,0.85547 0.84375,1.2832 z m -272.722656,0.4043 c -9.932667,4.90305 -19.184794,14.16019 -19.817591,25.7389 0.702403,4.95729 3.134457,9.63593 6.729701,13.11266 10.180574,-6.29907 12.049819,-19.27393 12.89903,-30.20654 0.553781,-3.21687 1.722407,-6.30382 2.140032,-9.54737 -0.65039,0.30079 -1.300781,0.60157 -1.951172,0.90235 z m 71.830076,4.66211 c -12.19846,3.53858 -19.98916,14.71427 -31.14062,20.24023 9.62757,-0.4098 16.8566,-7.59112 24.41797,-12.57422 3.2123,-1.16935 8.03972,-0.37523 9.54296,-4.2539 -0.0402,-1.50704 -0.92489,-3.81484 -2.82031,-3.41211 z m 118.19922,0.0723 c -6.34449,0.69853 -12.28665,3.69173 -17.05078,7.87305 9.04557,-2.51497 18.09115,-5.02995 27.13672,-7.54492 -3.35261,-0.21784 -6.72656,-0.6532 -10.08594,-0.32813 z m -71.91992,3.15625 c -10.36561,5.50688 -21.48887,12.76432 -25.0293,24.63868 0.19016,2.49997 2.60009,-1.11981 3.26217,-1.84579 8.09477,-8.61459 17.30061,-16.09063 25.41947,-24.6757 -1.21744,0.6276 -2.43489,1.25521 -3.65234,1.88281 z m 154.5625,-1.23047 c 5.86912,9.07481 -3.42797,22.72051 -14.02539,20.59766 -2.9094,-2.22868 -5.72036,1.73785 -3.69922,4.22656 4.43273,2.91674 9.2643,6.3659 14.93209,6.63385 6.68919,0.97197 14.45878,-3.12146 15.04643,-10.39557 1.20307,-8.82307 -4.93855,-17.01718 -12.25391,-21.0625 z m -54.875,3.38086 c -4.73943,0.73796 -9.69867,1.76302 -13.52539,4.84766 5.60656,0.20164 10.74318,-2.39647 15.83789,-4.36914 -0.58804,-0.65413 -1.53711,-0.4447 -2.3125,-0.47852 z m 75.56836,18.05079 c 1.72463,10.91818 -11.3435,20.71502 -21.33203,15.95312 -2.88721,1.74372 -0.87179,6.68613 2.26953,6.57812 7.03035,4.62292 16.40927,7.2941 24.40625,3.5625 7.08198,-7.97587 3.54897,-21.63833 -5.43164,-26.62695 z m -296.250001,3.24804 c -4.241368,7.20296 -8.641411,14.62372 -9.998047,23.00196 6.639352,-7.05882 10.268837,-16.41932 11.960937,-25.8418 -0.654296,0.94661 -1.308593,1.89323 -1.96289,2.83984 z m 319.654301,-2.50195 c 1.10964,0.34108 -0.76085,-0.50835 0,0 z m -12.875,1.82812 c 3.51408,6.86107 8.85917,12.75395 15.29492,16.98829 -3.37284,-7.04414 -8.73233,-13.15662 -15.39649,-17.25391 z m 18.28906,4.71485 c -1.22068,8.10796 6.55514,13.19828 11.03869,18.73971 3.5181,3.83161 7.26236,7.48459 11.46717,10.56302 -7.74399,-8.82961 -9.86989,-21.97438 -20.08399,-28.71875 -0.82645,-0.10698 -1.54487,-0.90155 -2.42187,-0.58398 z m -13.22852,12.2207 c 2.27208,9.67025 -9.247,18.93774 -18.22979,14.75803 -2.26008,-3.00775 -6.63427,-0.38171 -4.04169,2.81033 4.77364,4.47194 10.13852,9.17461 16.93737,10.20319 4.43092,0.78016 10.38891,0.7505 12.33607,-4.19147 3.54715,-7.11715 -0.0601,-15.29391 -4.66967,-20.97134 -0.70169,-0.85143 -1.26824,-2.25931 -2.33229,-2.60874 z m -305.83398,21.99805 c -10.448984,14.03816 -18.468376,29.74766 -24.857424,46.00195 3.776465,-2.68896 5.166133,-7.95102 9.69336,-9.71094 2.557139,2.74706 2.116433,6.77445 3.267578,10.11524 3.987199,-15.47974 7.291988,-31.14427 12.019536,-46.42578 z m 330.38281,2.51367 c 0.50157,7.85184 4.89545,14.74236 9.65625,20.74219 1.43381,-8.47697 -2.61598,-17.44968 -9.62695,-22.32422 -0.01,0.52734 -0.0195,1.05469 -0.0293,1.58203 z m -9.86328,-0.24024 c 1.09473,10.47629 -13.57394,18.27605 -21.42383,11 -3.54082,-0.67919 -4.19006,4.94533 -1.5332,6.39844 4.55713,8.43174 16.61928,13.50692 25.03906,7.63672 6.79794,-7.127 4.59391,-19.18987 -2.14062,-25.57226 z m 26.4082,1.54297 c -4.23757,3.1942 -2.31678,9.57671 -0.009,13.46498 3.41228,5.96316 6.71511,11.99237 10.33859,17.83385 -2.35462,-9.59716 -2.72613,-19.62015 -5.8457,-29.03906 -1.5136,-0.66124 -2.66962,-2.52687 -4.48438,-2.25977 z M 83.052734,199.14648 c -10.982898,18.09898 -20.000972,37.95607 -22.326172,59.19922 1.319915,3.04182 6.757733,0.24925 4.992188,-2.59961 2.749987,-19.70298 7.901444,-39.32427 17.544922,-56.83984 z m 350.374996,9.56641 c -3.19191,7.39535 -12.06283,13.57001 -20.30664,10.5332 -1.50555,-3.52777 -7.52532,0.77171 -4.60351,3.3086 3.7515,7.74087 12.16355,14.25791 21.13086,12.69336 8.44296,-4.6778 9.12253,-16.42584 5.23242,-24.33399 -0.23022,-0.7589 -0.50589,-2.1016 -1.45313,-2.20117 z m -336.353511,4.19727 c -1.114304,7.67951 -1.667892,15.42449 -2.277344,23.15625 6.344205,-6.56303 9.624995,-15.30665 12.386715,-23.83399 -2.13086,3.33881 -3.7377,7.0006 -6.11132,10.18555 -3.192647,-2.64814 -3.74507,-7.12447 -3.617192,-11.01758 z m 352.041011,10.49218 c -0.26602,8.62485 1.60429,17.31995 5.49805,25.02735 1.87794,-8.75823 -1.24223,-17.67301 -5.48437,-25.25977 z m -365.761714,1.67188 c -8.600906,19.74461 -12.717994,41.32907 -12.650391,62.83594 3.803936,-4.90808 3.630309,-11.40358 4.830078,-17.20899 3.270008,0.17841 5.918748,3.37633 5.726563,6.59961 2.808913,1.58113 6.049897,-2.98029 3.59375,-5.09961 -1.015297,-16.30863 -0.805732,-32.65829 -0.53125,-48.98633 -0.322917,0.6198 -0.645834,1.23959 -0.96875,1.85938 z m 359.949214,5.32422 c 0.31587,10.1252 -12.50388,17.87145 -21.21679,12.49609 -1.02193,-2.45058 -5.32917,-4.61522 -7.04883,-1.78711 0.95117,9.49996 8.30565,18.39652 17.55795,20.66404 8.72397,-1.16892 12.52442,-11.03889 12.8684,-18.80694 0.25827,-4.46111 -0.5601,-8.95043 -2.1744,-13.1071 l 0.0137,0.54083 z M 92.570312,249.38281 c 0.646238,5.4393 1.730868,10.81299 2.808594,16.17969 -0.307412,-5.6341 -0.36348,-11.49479 -2.767578,-16.71875 z m -4.480468,5.30274 c 1.655423,14.54745 3.469338,29.07639 5.384765,43.59179 0.85765,-14.88182 -1.150534,-29.8671 -5.408203,-44.13281 l 0.02341,0.54049 z m 359.830076,4.55078 c -1.29429,11.49543 -19.76873,15.76292 -25.17969,5.13867 -2.06673,-3.3384 -5.58758,-0.34192 -4.56003,2.74325 -0.67267,9.85073 8.78825,20.69069 19.08389,17.85587 9.87699,-4.12144 13.41625,-16.57079 10.72419,-26.2749 l -0.0683,0.53667 z m 8.20313,11.51758 c -3.33706,6.39511 -2.44642,13.91841 -1.07813,20.71679 5.48346,-5.89021 5.08611,-15.07733 1.8125,-21.95898 -0.24479,0.41406 -0.48958,0.82812 -0.73437,1.24219 z m -379.146488,9.91992 c -1.631911,19.55496 1.368087,39.47722 8.722657,57.67187 3.286472,0.52168 4.893748,-4.3441 2.636719,-6.39062 -0.145112,-2.91117 -0.498822,-5.8562 0.01367,-8.75196 6.251942,2.22023 10.377861,7.73014 14.550782,12.56836 -6.679337,-19.21393 -16.472974,-37.11006 -25.777344,-55.13281 z m 342.240238,7.10351 c -5.38411,8.83919 1.74065,23.04875 12.47423,22.33416 8.26582,-2.55505 13.12613,-11.61829 12.62733,-19.9572 -3.85418,-1.4417 -3.35767,4.52063 -6.16211,5.67968 -6.18577,4.73607 -16.30625,0.52763 -17.22053,-7.23986 -0.23632,-0.77508 -1.16027,-2.60259 -1.71892,-0.81678 z m -354.517581,2.23828 c -2.681915,5.42246 -0.768403,11.68706 1.611328,16.8418 4.430342,0.92602 5.783464,-5.11802 4.316406,-8.26367 -0.565204,-3.6679 -2.187237,-7.39994 -5.285156,-9.61133 z M 415.18945,310.9082 c -2.85477,7.4816 -1.83742,16.31121 2.67383,22.93164 9.74173,2.44185 20.327,-6.07864 20.26563,-16.0664 -4.52667,-1.04558 -7.8548,5.7535 -12.39212,2.61346 -5.13534,-1.39145 -7.78806,-6.51386 -9.91648,-10.95331 -0.21028,0.49154 -0.42057,0.98308 -0.63086,1.47461 z m 35.02735,2.43555 c -4.64299,5.69101 -7.27482,12.86094 -7.96875,20.13672 6.27589,-4.94628 10.236,-13.17671 8.97656,-21.21485 -0.33594,0.35938 -0.67188,0.71875 -1.00781,1.07813 z m 7.94922,14.55664 c -8.02064,8.06531 -10.1518,19.72346 -12.09571,30.47656 4.26907,-9.46323 14.29063,-16.65035 14.05078,-27.84961 -0.22414,-1.04206 -0.53706,-2.76011 -1.95507,-2.62695 z m -50.0254,4.41406 c -3.05276,8.84494 -4.48114,18.41164 -2.98242,27.71094 9.36565,-0.36551 17.25725,-7.43078 20.91016,-15.71875 -4.06128,-2.74081 -11.013,0.78212 -13.40625,-4.68359 -2.07758,-2.62345 -3.00832,-5.89978 -3.88672,-9.07032 z m -314.464839,3.85743 c 3.07085,15.42665 10.236299,29.72615 18.925779,42.72265 3.8546,-2.56449 -0.23503,-9.14309 4.5293,-10.98437 1.90147,0.88196 6.87057,2.83434 6.30745,-0.9884 -4.10027,-11.65724 -14.07298,-19.74148 -22.8055,-27.92567 -2.237511,-1.55962 -5.937261,-5.35978 -7.371137,-5.39945 0.138036,0.85841 0.276072,1.71682 0.414108,2.57524 z m -32.191406,1.35937 c 8.295349,10.09455 9.080174,24.47935 18.306641,33.96289 4.139473,0.24243 5.926806,-6.05601 2.705078,-8.36914 -4.379813,-10.9178 -12.418401,-20.14795 -22.103516,-26.7207 z m 16.767578,3.36914 c 0.900511,8.62005 5.810043,16.52961 12.609375,21.78516 1.783899,-9.52633 -4.07015,-19.40349 -12.615234,-23.53907 z m 354.699217,9.83984 c -5.71919,5.8221 -9.49612,13.44631 -10.92773,21.46289 9.24181,-2.37997 15.11733,-13.34784 11.93164,-22.35351 -0.33464,0.29687 -0.66927,0.59375 -1.00391,0.89062 z m -37.24414,4.27344 c -5.60251,6.71162 -8.30417,15.52732 -8.96484,24.16992 4.72281,6.31464 14.69125,3.27924 18.59408,-2.43395 2.93041,-3.16007 5.43219,-6.71469 8.62662,-9.62855 -6.22575,2.94264 -16.08426,0.46117 -16.96552,-7.28316 -0.42721,-1.38064 0.20574,-4.23736 -1.29034,-4.82426 z M 77.482422,373.41406 c 10.665321,8.51489 15.954607,21.62557 25.259768,31.36524 4.11356,0.28002 5.28802,-6.50011 1.58593,-7.93946 -7.439094,-9.96343 -17.349032,-17.81508 -27.966792,-24.15625 z m 41.494138,1.92578 c 3.67178,13.65997 11.81698,25.93709 22.49414,35.14454 -0.48038,-4.7998 -2.0465,-9.80136 -0.3125,-14.52735 4.04791,-0.87403 8.09425,0.79103 12.16016,0.40625 -8.1045,-11.35223 -20.62734,-19.39385 -34.28125,-22.18359 -0.0202,0.38672 -0.0404,0.77344 -0.0605,1.16015 z m 261.4668,-0.61914 c -7.74693,6.80808 -12.84106,16.25549 -15.36133,26.17969 11.99361,2.91088 24.55036,-2.87813 32.66016,-11.62891 -3.52788,-3.32255 -7.84333,3.36852 -11.49824,-0.0108 -5.27863,-2.36796 -6.69771,-9.19342 -5.2752,-14.34855 -0.13283,-0.13136 -0.33198,-0.24205 -0.52539,-0.19141 z m -278.66992,3.73633 c 0.37049,8.29037 5.62415,15.94248 12.83203,19.88086 5.15457,-3.85472 2.03032,-12.28062 -3.29492,-14.36719 -2.71075,-2.57487 -5.94974,-4.53917 -9.36719,-6.02734 l -0.16991,0.51363 z m 305.49414,11.05859 c -6.85938,4.76923 -12.06778,11.84488 -14.60547,19.80274 8.71713,-3.01113 15.36205,-11.39454 16.03711,-20.62891 -0.47721,0.27539 -0.95443,0.55078 -1.43164,0.82617 z m -47.08008,2.89063 c -8.45597,6.87581 -14.56433,16.68821 -16.98633,27.3418 10.74023,3.65657 21.9884,-1.94098 30.10352,-8.8086 3.35175,1.03276 2.03618,-6.10827 -0.67383,-3.71093 -5.09528,1.90719 -13.25568,-0.95183 -12.53125,-7.3711 -0.67993,-2.29063 1.46163,-5.64699 0.0879,-7.45117 z m -211.48633,9.12109 c -5.24638,3.89513 -3.33328,13.147 2.55469,15.39258 6.64086,6.383 14.43498,11.4661 22.66211,15.56055 -3.3902,-4.45247 -6.19232,-11.90523 -1.32227,-16.3418 2.58493,-2.15472 7.26009,1.27747 8.88086,-2.14648 0.36553,-4.38373 -5.35054,-4.33704 -8.07912,-5.9988 -7.65287,-3.43343 -15.71801,-6.57069 -24.21775,-6.71995 l -0.47789,0.25357 z m 263.51563,0.50782 c -10.19432,8.01285 -18.29564,18.24471 -26.35157,28.30664 10.15011,-7.5546 22.52893,-13.77754 28.12891,-25.78516 0.12815,-1.06914 -0.46078,-2.67587 -1.77734,-2.52148 z m -297.50196,5.81054 c 10.21701,6.46832 15.52825,18.46608 26.24219,24.30469 4.16046,-1.35457 3.04448,-7.61469 -0.60229,-8.85686 -6.93524,-7.95106 -16.58378,-13.12902 -26.65357,-15.94783 0.33789,0.16667 0.67578,0.33334 1.01367,0.5 z m 221.7793,0.55469 c -9.19844,4.96649 -18.46604,10.88603 -24.05664,19.99023 2.05852,9.29933 14.52448,12.45561 21.87837,7.3668 6.51692,-1.8295 12.79537,-4.69391 18.16851,-8.84531 -5.94585,-2.19039 -12.52479,-0.29057 -18.47852,-2.44336 -1.43421,-5.61214 2.41611,-10.65871 2.87305,-16.11914 z m -203.77539,1.61133 c 0.28232,5.92535 6.58016,8.2148 10.5918,11.36719 3.98044,0.0225 2.2054,-5.61733 -0.25391,-6.78516 -2.84016,-2.66708 -6.67693,-3.78086 -10.24219,-5.11523 l -0.0956,0.53249 z m 244.62891,9.35547 c -8.82641,1.22573 -16.84412,6.81323 -21.28125,14.50781 4.87674,4.31934 11.79001,0.13462 15.17578,-4.10352 2.97101,-2.87649 5.10502,-6.52963 6.48242,-10.41015 z m -195.04688,1.76367 c -6.57991,0.57622 -5.96404,11.61261 0.13672,12.56836 8.29915,3.54074 15.85654,8.82247 24.62695,11.22851 -5.15871,-3.34827 -7.57614,-12.56233 -1.67383,-16.33398 1.78592,-0.61722 6.97218,-0.008 5.22809,-3.24765 -4.61937,-5.71318 -12.68469,-3.10044 -18.97191,-3.90497 -3.10647,-0.27885 -6.22752,-0.419 -9.34602,-0.31027 z m 124.78516,1.11328 c -9.4966,3.11622 -18.68814,8.37177 -24.60742,16.62109 1.30687,7.45003 11.15032,10.73704 17.28125,6.96485 7.50644,-1.39356 15.00839,-2.81088 22.50585,-4.25196 -6.21728,-1.10825 -13.10947,-1.94176 -17.83984,-6.58203 -0.38745,-4.39859 2.10702,-8.29548 4.15625,-11.97656 -0.27656,-0.51719 -0.89014,-0.95477 -1.49609,-0.77539 z m -25.10547,8.12109 c -11.71761,3.05275 -23.9299,5.94008 -33.85352,13.24805 2.02232,7.57054 11.28324,10.01569 18.17383,8.59766 8.57049,0.54149 17.18348,0.21092 25.70703,-0.80664 -6.5002,-2.01527 -13.35842,-3.57095 -18.99023,-7.58594 0.80421,-5.63693 5.37553,-9.7681 10.07031,-12.47266 -0.0353,-0.51591 -0.50656,-1.23545 -1.10742,-0.98047 z m -38.91992,0.31055 c -10.96943,0.33909 -22.35213,0.65084 -32.49024,5.34961 4.98967,10.86913 17.79848,14.23654 28.65373,15.67115 1.86152,0.16679 9.98025,2.52096 5.92986,-0.2421 -3.21409,-2.30173 -6.4625,-4.65569 -8.98788,-7.73374 1.60289,-4.88108 6.32224,-8.53138 11.4414,-8.89453 0.70524,-2.56043 -2.30668,-4.43808 -4.54687,-4.15039 z m -78.08789,4.25195 c 4.09335,4.39597 9.57369,7.50623 15.48046,8.64454 -4.05543,-4.68871 -9.73149,-7.95621 -15.83789,-9.05079 l 0.35736,0.40618 z m 177.99609,5.75196 c -8.72835,1.7213 -16.99818,5.93346 -23.32422,12.21679 9.52061,3.07106 20.04081,-2.90753 24.29688,-11.52734 -0.0809,-0.41812 -0.52358,-0.85628 -0.97266,-0.68945 z m -144.78906,8.34961 c 4.72341,2.73288 9.95801,4.57438 15.35742,5.37304 -4.67178,-3.14849 -10.22195,-4.5823 -15.68945,-5.62695 z m -14.32422,5.50976 c 7.57435,3.15361 15.45878,5.62065 23.35982,7.84009 2.69414,0.76137 7.53066,2.01308 3.36674,-1.23267 -6.34995,-5.15201 -15.06731,-4.66707 -22.66555,-6.37618 -1.34542,-0.16798 -2.70387,-0.29932 -4.06101,-0.23124 z m 117.85937,1.64844 c -7.07111,1.20313 -14.319,2.23846 -20.85156,5.36914 5.84531,3.84521 14.07166,3.36544 19.5332,-0.96094 2.77469,2.39706 4.89097,-4.81491 1.31836,-4.4082 z m -57.42187,1.70898 c -2.83162,3.03937 1.45228,7.68705 4.93517,6.44331 3.78623,0.70627 7.70563,0.61045 11.47303,-0.16791 -2.64492,-6.11906 -10.78072,-6.9317 -16.4082,-6.2754 z m 89.75976,0.10157 c -12.81094,3.85221 -26.04481,7.31481 -37.35937,14.73242 12.04875,-6.65921 27.7214,-1.55859 38.86914,-10.44727 1.11307,-1.33227 0.77434,-4.59406 -1.50977,-4.28515 z m -107.3789,9.38281 c 4.60223,4.74985 11.74499,3.43593 17.58008,5.07226 3.19133,-1.30993 -0.79602,-4.66479 -2.88477,-4.52539 -4.79565,-1.2479 -9.79012,-1.06536 -14.70117,-1.08789 l 0.006,0.54097 z m 55.15039,3.09766 c -9.26974,0.91253 -18.71641,1.48896 -27.58789,4.55859 10.73434,-0.89736 21.6432,0.22481 32.24805,-2.04688 0.36612,-2.60937 -2.90546,-2.66496 -4.66016,-2.51171 z" fill="url(#fill)" fill-opacity="0.12" stroke="url(#stroke)"/>
</svg>