<svg xmlns="http://www.w3.org/2000/svg" preserveAspectRatio="none" viewBox="0 0 23 25">
    <defs>
        <linearGradient id="3063" x1="18.87" x2="6.274" y1="3.941" y2="21.12" gradientUnits="userSpaceOnUse">
            <stop offset="0" stop-color="var(--border-accent-6)"/>
            <stop offset="1" stop-color="var(--border-accent-1)"/>
        </linearGradient>
        <linearGradient id="2e28" x1="23.023" x2="23.023" y1=".002" y2="18.009" gradientUnits="userSpaceOnUse">
            <stop offset="0" stop-color="var(--border-accent-7)"/>
            <stop offset="1" stop-color="var(--border-accent-10)"/>
        </linearGradient>
        <linearGradient id="5240" x2="16" y1="31.5" y2="31.5" gradientTransform="translate(0 -10)" gradientUnits="userSpaceOnUse">
            <stop offset="0" stop-color="var(--border-accent-2)"/>
            <stop offset="1" stop-color="var(--border-accent-4)"/>
        </linearGradient>
    </defs>
    <g>
        <path fill="url(#3063)" d="M0 18 17 0l6 18-7 7z" style="paint-order:markers stroke fill" transform="matrix(-1 0 0 1 23 0)"/>
        <path fill="url(#2e28)" d="M17 0h6v18z" style="paint-order:markers stroke fill" transform="matrix(-1 0 0 1 23 0)"/>
        <path fill="url(#5240)" d="M0 18v7h16z" style="paint-order:markers stroke fill" transform="matrix(-1 0 0 1 23 0)"/>
        <path fill="#fff" fill-opacity=".15" d="m17 0 .666 2H23V0z" style="paint-order:markers stroke fill" transform="matrix(-1 0 0 1 23 0)"/>
    </g>
    <path fill-opacity=".3" d="m23 18-7 7h4l3-3z" style="paint-order:markers stroke fill" transform="matrix(-1 0 0 1 23 0)"/>
</svg>
