<?xml version="1.0" encoding="UTF-8" standalone="no"?>
<!DOCTYPE svg PUBLIC "-//W3C//DTD SVG 1.1//EN" "http://www.w3.org/Graphics/SVG/1.1/DTD/svg11.dtd">
<svg version="1.1" xmlns="http://www.w3.org/2000/svg" xmlns:xlink="http://www.w3.org/1999/xlink" preserveAspectRatio="xMidYMid meet" viewBox="0 0 640 213.33" width="640" height="213"><defs><path d="M640 0C640 0 640 0 640 0C640 128 640 199.11 640 213.33C640 213.33 640 213.33 640 213.33C256 213.33 42.67 213.33 0 213.33C0 213.33 0 213.33 0 213.33C0 85.33 0 14.22 0 0C0 0 0 0 0 0C384 0 597.33 0 640 0Z" id="i7ctXWvmq"></path><linearGradient id="gradienta1MqUKwqEo" gradientUnits="userSpaceOnUse" x1="330.4" y1="213.4" x2="330.4" y2="0.06"><stop style="stop-color: #242424;stop-opacity: 1" offset="0%"></stop><stop style="stop-color: #292929;stop-opacity: 1" offset="100%"></stop></linearGradient><path d="M579.49 177.7C582.63 177.7 584.81 176.42 586.77 171.89C587.02 171.33 588.27 168.51 590.51 163.43L570.33 115.5L576.03 115.5L593.36 157.03L610.5 115.5L616.3 115.5C601.53 150.29 593.32 169.62 591.68 173.48C590.04 178.77 585.13 182.36 579.59 182.33C577.86 182.32 576.14 182.09 574.46 181.64C574.52 181.32 574.82 179.75 575.35 176.91C577.16 177.43 578.55 177.69 579.49 177.7Z" id="dbHG3FZSGY"></path><path d="M548.14 114.3L548.5 114.31L548.86 114.33L549.21 114.36L549.57 114.4L549.93 114.44L550.28 114.48L550.64 114.54L550.99 114.59L551.34 114.66L551.7 114.73L552.04 114.8L552.39 114.89L552.74 114.97L553.09 115.07L553.43 115.17L553.77 115.27L554.11 115.38L554.45 115.5L554.79 115.62L555.12 115.75L555.45 115.88L555.78 116.02L556.11 116.17L556.44 116.32L556.76 116.47L557.08 116.63L557.4 116.8L557.71 116.97L558.03 117.15L558.34 117.33L558.64 117.52L558.95 117.72L559.25 117.92L559.55 118.12L559.84 118.33L560.1 118.54L560.35 118.76L560.6 118.98L560.84 119.21L561.07 119.45L561.3 119.68L561.52 119.93L561.73 120.18L561.94 120.43L562.14 120.68L562.34 120.95L562.53 121.21L562.71 121.48L562.88 121.75L563.05 122.03L563.22 122.31L563.37 122.6L563.52 122.89L563.66 123.18L563.8 123.47L563.92 123.77L564.05 124.07L564.16 124.38L564.27 124.68L564.37 124.99L564.46 125.3L564.54 125.62L564.62 125.93L564.69 126.25L564.75 126.57L564.81 126.89L564.86 127.22L564.9 127.54L564.93 127.87L564.95 128.2L564.97 128.53L564.98 128.86L564.98 129.19L564.97 129.52L564.95 129.85L564.95 153.3L564.95 153.42L564.95 153.54L564.95 153.67L564.95 153.79L564.95 153.91L564.96 154.04L564.96 154.16L564.96 154.28L564.96 154.4L564.96 154.53L564.97 154.65L564.97 154.77L564.98 154.9L564.98 155.02L564.99 155.14L564.99 155.26L565 155.39L565 155.51L565.01 155.63L565.02 155.75L565.02 155.88L565.03 156L565.04 156.12L565.05 156.24L565.06 156.37L565.07 156.49L565.08 156.61L565.09 156.73L565.1 156.85L565.11 156.98L565.12 157.1L565.14 157.22L565.15 157.34L565.16 157.46L565.17 157.59L565.19 157.71L565.2 157.83L565.22 157.95L565.23 158.07L565.25 158.2L565.26 158.31L565.28 158.43L565.3 158.55L565.32 158.67L565.34 158.79L565.35 158.91L565.37 159.03L565.39 159.15L565.41 159.27L565.44 159.38L565.46 159.5L565.48 159.62L565.5 159.74L565.52 159.86L565.55 159.98L565.57 160.09L565.59 160.21L565.62 160.33L565.64 160.45L565.67 160.57L565.69 160.68L565.72 160.8L565.75 160.92L565.77 161.03L565.8 161.15L565.83 161.27L565.86 161.39L565.89 161.5L565.92 161.62L565.95 161.74L565.98 161.85L566.01 161.97L566.04 162.08L566.07 162.2L566.1 162.32L566.13 162.43L566.17 162.55L566.2 162.66L566.23 162.78L566.27 162.89L560.37 162.89L560.37 162.88L560.38 162.89L560.35 162.74L560.32 162.58L560.29 162.44L560.26 162.29L560.23 162.14L560.21 162L560.18 161.86L560.15 161.73L560.13 161.59L560.1 161.46L560.08 161.33L560.05 161.2L560.03 161.07L560.01 160.95L559.98 160.83L559.96 160.71L559.94 160.6L559.92 160.48L559.9 160.37L559.88 160.26L559.86 160.16L559.84 160.05L559.82 159.95L559.8 159.85L559.78 159.75L559.77 159.66L559.75 159.56L559.73 159.47L559.72 159.39L559.7 159.3L559.69 159.22L559.68 159.14L559.66 159.06L559.65 158.98L559.64 158.91L559.62 158.84L559.61 158.77L559.6 158.7L559.59 158.64L559.58 158.57L559.57 158.48L559.56 158.39L559.55 158.3L559.54 158.21L559.53 158.11L559.52 158.02L559.51 157.93L559.5 157.84L559.49 157.74L559.48 157.65L559.47 157.56L559.46 157.47L559.45 157.37L559.44 157.28L559.43 157.19L559.43 157.1L559.42 157L559.41 156.91L559.41 156.82L559.4 156.73L559.39 156.63L559.39 156.54L559.38 156.45L559.38 156.36L559.37 156.26L559.37 156.17L559.36 156.08L559.36 155.99L559.36 155.89L559.35 155.8L559.35 155.71L559.35 155.61L559.34 155.52L559.34 155.43L559.34 155.34L559.34 155.24L559.34 155.15L559.34 155.06L559.34 154.97L559.34 154.87L559.02 155.29L558.7 155.7L558.36 156.11L558.02 156.5L557.67 156.88L557.31 157.26L556.94 157.62L556.57 157.98L556.19 158.33L555.8 158.66L555.4 158.99L554.99 159.31L554.58 159.62L554.16 159.91L553.74 160.2L553.31 160.48L552.87 160.75L552.43 161L551.98 161.25L551.52 161.48L551.06 161.71L550.6 161.92L550.13 162.13L549.65 162.32L549.17 162.5L548.69 162.67L548.2 162.83L547.71 162.98L547.21 163.11L546.71 163.24L546.21 163.35L545.7 163.45L545.2 163.54L544.68 163.62L544.17 163.68L543.65 163.74L543.13 163.78L542.61 163.8L542.09 163.82L541.56 163.82L541.24 163.84L540.93 163.85L540.61 163.86L540.3 163.86L539.99 163.85L539.67 163.84L539.36 163.82L539.05 163.8L538.74 163.77L538.43 163.73L538.12 163.69L537.81 163.64L537.5 163.59L537.2 163.53L536.89 163.47L536.59 163.4L536.29 163.32L535.99 163.24L535.69 163.15L535.39 163.06L535.1 162.97L534.8 162.86L534.51 162.75L534.22 162.64L533.94 162.52L533.65 162.4L533.37 162.27L533.09 162.13L532.81 161.99L532.53 161.85L532.26 161.7L531.99 161.54L531.72 161.38L531.46 161.21L531.2 161.04L530.94 160.86L530.68 160.68L530.43 160.5L530.18 160.3L529.93 160.11L529.72 159.91L529.52 159.71L529.32 159.5L529.13 159.3L528.94 159.08L528.75 158.87L528.58 158.65L528.4 158.42L528.23 158.2L528.07 157.97L527.91 157.73L527.76 157.5L527.61 157.26L527.47 157.02L527.34 156.77L527.21 156.52L527.08 156.27L526.96 156.02L526.84 155.76L526.74 155.51L526.63 155.25L526.53 154.98L526.44 154.72L526.36 154.45L526.28 154.18L526.2 153.91L526.13 153.64L526.07 153.37L526.01 153.09L525.96 152.81L525.91 152.53L525.87 152.25L525.84 151.97L525.81 151.69L525.79 151.41L525.78 151.13L525.77 150.84L525.77 150.56L525.77 150.27L525.78 149.98L525.79 149.66L525.8 149.34L525.82 149.03L525.85 148.71L525.89 148.4L525.94 148.08L525.99 147.78L526.05 147.47L526.12 147.16L526.2 146.86L526.29 146.56L526.38 146.26L526.49 145.97L526.59 145.68L526.71 145.39L526.83 145.1L526.97 144.82L527.1 144.54L527.25 144.27L527.4 144L527.56 143.73L527.73 143.47L527.9 143.21L528.08 142.96L528.27 142.71L528.46 142.46L528.66 142.22L528.86 141.99L529.08 141.76L529.29 141.54L529.52 141.32L529.75 141.11L529.98 140.9L530.23 140.7L530.47 140.5L530.73 140.31L530.99 140.13L531.25 139.95L531.52 139.78L531.8 139.62L532.15 139.41L532.51 139.2L532.86 139L533.23 138.81L533.59 138.62L533.95 138.44L534.32 138.26L534.69 138.09L535.06 137.93L535.44 137.77L535.82 137.61L536.2 137.46L536.58 137.32L536.96 137.18L537.34 137.05L537.73 136.92L538.12 136.8L538.51 136.69L538.9 136.58L539.29 136.48L539.69 136.38L540.08 136.29L540.48 136.2L540.88 136.12L541.28 136.05L541.68 135.98L542.08 135.92L542.49 135.86L542.89 135.81L543.3 135.76L543.7 135.72L544.11 135.69L544.52 135.66L544.92 135.64L545.33 135.63L545.74 135.62L546.15 135.62L546.56 135.62L546.97 135.63L547.38 135.65L559.34 135.65L559.34 129.74L559.34 129.51L559.35 129.28L559.34 129.05L559.34 128.82L559.32 128.6L559.3 128.37L559.28 128.14L559.25 127.92L559.22 127.7L559.18 127.47L559.14 127.25L559.09 127.03L559.03 126.81L558.98 126.6L558.91 126.38L558.85 126.17L558.77 125.95L558.69 125.74L558.61 125.54L558.53 125.33L558.43 125.12L558.34 124.92L558.24 124.72L558.13 124.52L558.02 124.33L557.91 124.13L557.79 123.94L557.67 123.75L557.54 123.57L557.41 123.39L557.27 123.21L557.13 123.03L556.99 122.85L556.84 122.68L556.69 122.51L556.53 122.35L556.37 122.19L556.2 122.03L556.03 121.87L555.86 121.72L555.65 121.57L555.43 121.42L555.21 121.27L554.99 121.12L554.77 120.99L554.55 120.85L554.32 120.72L554.09 120.59L553.86 120.47L553.63 120.35L553.39 120.23L553.16 120.12L552.92 120.02L552.68 119.91L552.44 119.82L552.2 119.72L551.95 119.63L551.71 119.55L551.46 119.47L551.21 119.39L550.96 119.32L550.71 119.25L550.46 119.19L550.2 119.13L549.95 119.07L549.69 119.02L549.44 118.98L549.18 118.94L548.92 118.9L548.66 118.87L548.4 118.84L548.14 118.82L547.88 118.8L547.62 118.78L547.36 118.77L547.1 118.77L546.84 118.77L546.57 118.77L546.31 118.78L546.05 118.8L545.8 118.79L545.55 118.78L545.3 118.78L545.05 118.78L544.8 118.79L544.55 118.8L544.3 118.82L544.06 118.84L543.81 118.86L543.56 118.89L543.32 118.92L543.07 118.95L542.83 118.99L542.58 119.03L542.34 119.08L542.1 119.13L541.86 119.18L541.62 119.24L541.38 119.3L541.14 119.36L540.9 119.43L540.67 119.51L540.43 119.58L540.2 119.66L539.97 119.75L539.74 119.83L539.51 119.92L539.28 120.02L539.05 120.12L538.83 120.22L538.6 120.33L538.38 120.44L538.16 120.55L537.94 120.67L537.72 120.79L537.51 120.91L537.29 121.04L537.08 121.17L536.87 121.3L536.66 121.44L536.5 121.55L536.34 121.67L536.18 121.79L536.03 121.92L535.87 122.05L535.73 122.18L535.58 122.31L535.44 122.45L535.31 122.59L535.17 122.74L535.04 122.88L534.92 123.03L534.8 123.19L534.68 123.34L534.57 123.5L534.46 123.66L534.35 123.82L534.25 123.99L534.15 124.16L534.06 124.33L533.97 124.5L533.88 124.68L533.8 124.85L533.72 125.03L533.65 125.21L533.58 125.39L533.52 125.58L533.46 125.76L533.4 125.95L533.35 126.14L533.3 126.33L533.26 126.52L533.23 126.72L533.19 126.91L533.17 127.11L533.14 127.3L533.13 127.5L533.11 127.7L533.1 127.9L533.1 128.1L527.86 128.1L527.75 127.84L527.75 127.56L527.75 127.28L527.76 126.99L527.78 126.71L527.81 126.43L527.84 126.16L527.88 125.88L527.92 125.6L527.98 125.33L528.04 125.06L528.1 124.79L528.18 124.52L528.26 124.26L528.34 124L528.44 123.74L528.54 123.48L528.64 123.23L528.75 122.97L528.87 122.72L529 122.48L529.13 122.24L529.27 122L529.41 121.76L529.56 121.53L529.71 121.3L529.87 121.08L530.04 120.85L530.21 120.64L530.39 120.42L530.57 120.22L530.76 120.01L530.95 119.81L531.15 119.62L531.36 119.43L531.57 119.24L531.78 119.06L532 118.89L532.23 118.72L532.46 118.55L532.7 118.39L532.99 118.18L533.29 117.97L533.6 117.77L533.9 117.57L534.21 117.38L534.53 117.2L534.84 117.02L535.16 116.84L535.48 116.68L535.81 116.51L536.13 116.35L536.46 116.2L536.79 116.06L537.12 115.92L537.46 115.78L537.8 115.65L538.13 115.53L538.48 115.41L538.82 115.3L539.16 115.19L539.51 115.09L539.86 114.99L540.21 114.91L540.56 114.82L540.91 114.74L541.27 114.67L541.62 114.61L541.98 114.55L542.34 114.49L542.7 114.45L543.06 114.41L543.42 114.37L543.78 114.34L544.14 114.32L544.5 114.3L544.87 114.29L545.23 114.28L545.6 114.29L545.96 114.29L546.33 114.31L546.69 114.29L547.05 114.28L547.41 114.28L547.78 114.29L548.14 114.3ZM544.94 139.75L544.15 139.83L543.36 139.94L542.58 140.09L541.8 140.26L541.03 140.47L540.28 140.71L539.53 140.97L538.79 141.27L538.06 141.6L537.35 141.96L536.65 142.35L535.96 142.76L535.44 143.08L534.94 143.44L534.48 143.82L534.04 144.23L533.63 144.67L533.25 145.13L532.91 145.62L532.6 146.13L532.32 146.66L532.08 147.21L531.88 147.77L531.71 148.35L531.59 148.94L531.5 149.54L531.46 150.15L531.45 150.65L531.48 151.15L531.54 151.64L531.62 152.12L531.73 152.6L531.88 153.06L532.05 153.52L532.24 153.97L532.47 154.4L532.71 154.82L532.99 155.22L533.29 155.61L533.61 155.99L533.96 156.34L534.33 156.67L534.78 157.01L535.25 157.33L535.73 157.62L536.22 157.89L536.73 158.14L537.24 158.35L537.77 158.55L538.3 158.72L538.84 158.86L539.39 158.97L539.94 159.06L540.5 159.13L541.06 159.16L541.63 159.17L542.2 159.15L542.95 159.16L543.7 159.13L544.44 159.08L545.19 159L545.93 158.89L546.66 158.75L547.39 158.58L548.1 158.39L548.82 158.16L549.52 157.91L550.21 157.64L550.9 157.33L551.57 157L552.23 156.64L552.88 156.26L553.46 155.91L554.02 155.54L554.56 155.15L555.08 154.73L555.59 154.29L556.07 153.83L556.53 153.35L556.97 152.85L557.38 152.32L557.77 151.78L558.14 151.22L558.48 150.65L558.8 150.05L559.09 149.45L559.35 148.82L559.35 139.7L547.34 139.7L546.54 139.68L545.74 139.7L544.94 139.75Z" id="e3mgI9Wd5n"></path><path d="M512.72 97.38L517.85 97.38L517.85 163.03L512.72 163.03L512.72 163.03L512.72 97.38Z" id="ab3OwKeBB"></path><path d="M486.33 114.39L487.25 114.48L488.14 114.6L489.02 114.76L489.88 114.95L490.73 115.18L491.55 115.44L492.36 115.74L493.14 116.06L493.91 116.42L494.66 116.81L495.38 117.23L496.09 117.69L496.77 118.17L497.43 118.69L498.07 119.23L498.69 119.81L499.28 120.41L499.86 121.04L500.4 121.71L500.93 122.4L501.42 123.11L501.9 123.86L502.35 124.63L502.77 125.43L503.16 126.26L503.53 127.11L503.87 127.98L504.19 128.89L504.47 129.81L504.73 130.76L504.96 131.74L505.16 132.74L505.33 133.76L505.47 134.81L505.58 135.88L505.66 136.97L505.71 138.08L505.72 139.21L505.71 140.34L505.66 141.44L505.58 142.53L505.47 143.59L505.33 144.64L505.16 145.66L504.96 146.66L504.73 147.63L504.47 148.58L504.19 149.51L503.87 150.42L503.53 151.29L503.16 152.15L502.77 152.98L502.35 153.78L501.9 154.56L501.42 155.31L500.93 156.03L500.4 156.73L499.86 157.39L499.28 158.03L498.69 158.64L498.07 159.22L497.43 159.77L496.77 160.3L496.09 160.79L495.38 161.25L494.66 161.67L493.91 162.07L493.14 162.43L492.36 162.77L491.55 163.06L490.73 163.33L489.88 163.56L489.02 163.76L488.14 163.92L487.25 164.04L486.33 164.14L485.41 164.19L484.46 164.21L483.96 164.2L483.47 164.17L482.98 164.14L482.49 164.09L482 164.03L481.52 163.96L481.04 163.88L480.56 163.78L480.08 163.68L479.61 163.56L479.14 163.44L478.68 163.3L478.22 163.15L477.76 162.99L477.31 162.82L476.86 162.64L476.42 162.44L475.98 162.24L475.54 162.03L475.12 161.81L474.69 161.57L474.28 161.33L473.86 161.08L473.46 160.82L473.06 160.54L472.67 160.26L472.28 159.97L471.9 159.67L471.53 159.36L471.16 159.04L470.81 158.71L470.45 158.37L470.11 158.03L469.78 157.67L469.45 157.31L469.13 156.93L468.82 156.55L468.52 156.16L468.22 155.77L467.94 155.36L467.94 181.17L462.81 181.17L462.81 115.5L467.94 115.5L467.94 122.98L468.23 122.58L468.52 122.19L468.83 121.8L469.14 121.43L469.47 121.06L469.8 120.7L470.13 120.35L470.48 120.01L470.83 119.68L471.19 119.36L471.56 119.05L471.93 118.74L472.31 118.45L472.7 118.16L473.09 117.88L473.49 117.62L473.9 117.36L474.31 117.11L474.73 116.87L475.15 116.65L475.58 116.43L476.01 116.22L476.45 116.02L476.89 115.84L477.34 115.66L477.79 115.49L478.24 115.34L478.7 115.19L479.17 115.06L479.63 114.93L480.1 114.82L480.58 114.72L481.05 114.63L481.53 114.55L482.02 114.48L482.5 114.43L482.99 114.38L483.48 114.35L483.97 114.33L484.46 114.32L485.41 114.34L486.33 114.39ZM481.92 119.16L481.1 119.32L480.29 119.51L479.49 119.73L478.7 119.98L477.92 120.27L477.16 120.58L476.41 120.93L475.67 121.31L474.96 121.71L474.26 122.15L473.57 122.61L472.91 123.1L472.27 123.62L471.64 124.16L471.04 124.73L470.46 125.32L469.91 125.94L469.38 126.59L468.87 127.25L468.39 127.94L467.94 128.66L467.94 149.67L468.39 150.39L468.87 151.09L469.37 151.77L469.9 152.42L470.45 153.04L471.03 153.65L471.63 154.22L472.25 154.78L472.89 155.3L473.55 155.8L474.24 156.27L474.94 156.71L475.65 157.13L476.39 157.51L477.14 157.87L477.9 158.2L478.68 158.49L479.47 158.75L480.28 158.99L481.09 159.19L481.92 159.35L482.75 159.49L483.6 159.58L484.95 159.53L486.26 159.39L487.51 159.15L488.71 158.81L489.85 158.39L490.94 157.89L491.97 157.3L492.95 156.63L493.86 155.89L494.72 155.07L495.52 154.19L496.25 153.23L496.93 152.22L497.55 151.14L498.1 150.01L498.59 148.82L499.02 147.57L499.38 146.29L499.68 144.95L499.92 143.57L500.08 142.16L500.18 140.7L500.22 139.22L500.22 139.22L499.69 137.49L499.14 135.85L498.58 134.27L498 132.78L497.4 131.36L496.78 130.02L496.14 128.76L495.49 127.57L494.82 126.46L494.13 125.42L493.42 124.46L492.7 123.58L491.96 122.78L491.2 122.05L490.43 121.4L489.64 120.82L488.82 120.33L488 119.9L487.15 119.56L486.29 119.29L485.41 119.1L484.51 118.99L483.6 118.95L482.75 119.04L481.92 119.16Z" id="bjheZ9Y1Y"></path><path d="M420.97 114.53L421.25 114.54L421.53 114.56L421.81 114.58L422.09 114.6L422.37 114.63L422.65 114.66L422.93 114.69L423.2 114.73L423.48 114.77L423.76 114.82L424.03 114.87L424.31 114.93L424.58 114.98L424.86 115.05L425.13 115.11L425.4 115.18L425.67 115.25L425.94 115.33L426.21 115.41L426.47 115.5L426.74 115.59L427.01 115.68L427.27 115.78L427.53 115.88L427.79 115.98L428.05 116.09L428.31 116.2L428.56 116.31L428.82 116.43L429.07 116.55L429.33 116.68L429.58 116.81L429.82 116.94L430.07 117.08L430.32 117.22L430.56 117.37L430.83 117.55L431.09 117.74L431.36 117.93L431.61 118.12L431.87 118.32L432.12 118.53L432.36 118.74L432.6 118.95L432.84 119.17L433.07 119.39L433.3 119.62L433.52 119.85L433.74 120.09L433.96 120.33L434.17 120.57L434.37 120.82L434.57 121.07L434.76 121.32L434.95 121.58L435.14 121.84L435.32 122.11L435.5 122.38L435.67 122.65L435.83 122.92L435.99 123.2L436.14 123.48L436.29 123.77L436.44 124.05L436.58 124.34L436.71 124.64L436.84 124.93L436.96 125.23L437.07 125.53L437.18 125.84L437.29 126.14L437.39 126.45L437.48 126.76L437.57 127.07L437.65 127.39L413.83 137.01L406.04 137.62L406.24 138.6L406.47 139.55L406.73 140.49L407 141.4L407.3 142.3L407.62 143.17L407.96 144.02L408.32 144.84L408.71 145.64L409.11 146.42L409.53 147.18L409.97 147.91L410.43 148.62L410.9 149.3L411.39 149.96L411.9 150.6L412.43 151.21L412.96 151.79L413.52 152.36L414.09 152.89L414.67 153.4L415.27 153.89L415.87 154.34L416.49 154.78L417.13 155.18L417.77 155.56L418.42 155.92L419.09 156.24L419.76 156.54L420.44 156.81L421.13 157.05L421.83 157.27L422.54 157.46L423.25 157.62L423.97 157.75L424.69 157.85L425.42 157.92L426.16 157.97L426.9 157.98L427.21 157.97L427.52 157.96L427.84 157.94L428.15 157.92L428.46 157.9L428.78 157.87L429.09 157.83L429.4 157.8L429.71 157.76L430.02 157.71L430.33 157.66L430.64 157.61L430.94 157.56L431.25 157.5L431.56 157.43L431.86 157.37L432.16 157.3L432.47 157.22L432.77 157.14L433.07 157.06L433.37 156.97L433.67 156.88L433.97 156.79L434.26 156.69L434.56 156.59L434.85 156.49L435.15 156.38L435.44 156.27L435.73 156.15L436.02 156.03L436.31 155.91L436.59 155.78L436.88 155.65L437.16 155.52L437.44 155.38L437.72 155.24L438 155.09L438.28 154.95L438.55 154.79L438.55 154.79L438.56 154.79L438.58 154.78L438.59 154.78L438.6 154.77L438.62 154.76L438.63 154.76L438.65 154.75L438.67 154.74L438.68 154.73L438.7 154.73L438.72 154.72L438.74 154.71L438.76 154.71L438.78 154.7L438.79 154.69L438.81 154.69L438.83 154.68L438.84 154.68L438.86 154.68L438.87 154.68L438.88 154.68L438.89 154.68L438.9 154.69L438.9 154.69L438.91 154.7L438.91 154.71L438.9 154.72L438.9 154.73L438.89 154.75L438.88 154.76L438.87 154.78L438.85 154.81L438.83 154.83L438.8 154.86L438.77 154.89L438.74 154.93L433.89 159.49L433.81 159.54L433.72 159.59L433.63 159.64L433.55 159.68L433.46 159.73L433.38 159.78L433.29 159.83L433.2 159.88L433.12 159.93L433.03 159.98L432.95 160.03L432.86 160.08L432.69 160.18L432.61 160.23L432.52 160.28L432.43 160.33L432.35 160.38L432.26 160.43L432.18 160.48L432.09 160.53L432.01 160.57L431.92 160.62L431.83 160.67L431.75 160.72L431.66 160.76L431.58 160.81L431.49 160.86L431.41 160.9L431.32 160.95L431.23 160.99L431.15 161.04L431.06 161.08L430.98 161.13L430.89 161.17L430.81 161.21L430.72 161.25L430.63 161.29L430.55 161.33L430.31 161.43L430.07 161.53L429.83 161.63L429.59 161.72L429.34 161.81L429.1 161.9L428.86 161.98L428.61 162.07L428.37 162.15L428.12 162.22L427.87 162.3L427.62 162.37L427.37 162.44L427.12 162.5L426.87 162.57L426.62 162.63L426.37 162.68L426.12 162.74L425.87 162.79L425.61 162.84L425.36 162.89L425.1 162.93L424.85 162.97L424.59 163.01L424.34 163.05L424.08 163.08L423.83 163.11L423.57 163.14L423.31 163.16L423.05 163.18L422.79 163.2L422.54 163.21L422.28 163.23L422.02 163.24L421.76 163.24L421.5 163.25L421.24 163.25L420.98 163.25L420.72 163.24L420.35 163.26L419.98 163.26L419.62 163.26L419.25 163.26L418.88 163.25L418.51 163.23L418.15 163.21L417.78 163.17L417.41 163.14L417.05 163.1L416.69 163.05L416.33 162.99L415.97 162.93L415.61 162.86L415.25 162.79L414.89 162.71L414.54 162.63L414.18 162.54L413.83 162.44L413.48 162.34L413.13 162.23L412.78 162.11L412.44 161.99L412.1 161.87L411.76 161.74L411.42 161.6L411.08 161.45L410.75 161.3L410.42 161.15L410.09 160.99L409.76 160.82L409.44 160.65L409.11 160.47L408.79 160.29L408.48 160.1L408.17 159.91L407.86 159.71L407.55 159.5L407.24 159.29L406.74 158.9L406.24 158.49L405.76 158.07L405.29 157.65L404.83 157.21L404.38 156.76L403.94 156.3L403.51 155.84L403.1 155.36L402.7 154.87L402.31 154.38L401.93 153.88L401.57 153.36L401.22 152.85L400.88 152.32L400.55 151.78L400.24 151.24L399.94 150.69L399.66 150.13L399.38 149.57L399.12 149L398.88 148.42L398.65 147.84L398.43 147.26L398.23 146.66L398.04 146.06L397.86 145.46L397.7 144.85L397.55 144.24L397.42 143.63L397.3 143.01L397.2 142.38L397.11 141.76L397.04 141.13L396.98 140.49L396.94 139.86L396.91 139.22L396.9 138.58L396.91 137.94L396.9 137.46L396.91 136.98L396.93 136.51L396.95 136.03L396.99 135.56L397.03 135.09L397.09 134.62L397.15 134.16L397.22 133.69L397.31 133.23L397.4 132.77L397.5 132.31L397.61 131.85L397.73 131.4L397.86 130.95L398 130.5L398.15 130.06L398.3 129.62L398.47 129.18L398.64 128.74L398.83 128.31L399.02 127.88L399.22 127.46L399.43 127.04L399.65 126.63L399.87 126.22L400.11 125.81L400.35 125.41L400.6 125.01L400.86 124.62L401.13 124.23L401.41 123.85L401.69 123.47L401.98 123.1L402.28 122.73L402.59 122.37L402.91 122.02L403.23 121.67L403.57 121.33L403.91 120.99L404.25 120.67L404.6 120.35L404.96 120.03L405.32 119.73L405.69 119.43L406.07 119.15L406.45 118.87L406.83 118.59L407.22 118.33L407.62 118.08L408.02 117.83L408.42 117.59L408.83 117.36L409.24 117.14L409.66 116.93L410.08 116.72L410.51 116.53L410.94 116.34L411.37 116.16L411.81 115.99L412.25 115.83L412.69 115.68L413.14 115.54L413.59 115.41L414.04 115.28L414.49 115.17L414.95 115.06L415.41 114.97L415.87 114.88L416.34 114.8L416.81 114.73L417.27 114.67L417.75 114.63L418.22 114.59L418.69 114.56L419.17 114.54L419.64 114.53L420.12 114.53L420.4 114.52L420.68 114.53L420.97 114.53ZM415.56 118.09L414.73 118.29L413.91 118.54L413.12 118.84L412.35 119.2L411.61 119.61L410.89 120.07L410.21 120.58L409.56 121.14L408.95 121.74L408.38 122.39L407.85 123.07L407.37 123.79L406.95 124.53L406.58 125.29L406.26 126.08L406 126.89L405.8 127.71L405.65 128.55L405.55 129.39L405.52 130.25L405.54 131.11L405.62 131.97L405.63 132.4L405.64 132.83L405.65 133.27L405.68 133.71L405.7 134.15L405.73 134.6L405.77 135.05L405.8 135.5L405.83 135.95L405.87 136.4L405.9 136.86L405.93 137.31L424.37 129.31L424.84 129.09L425.27 128.87L425.65 128.65L426 128.42L426.31 128.2L426.57 127.97L426.8 127.74L426.98 127.52L427.12 127.29L427.23 127.05L427.29 126.82L427.31 126.59L427.06 125.36L426.68 124.2L426.16 123.11L425.52 122.09L424.78 121.17L423.93 120.34L422.99 119.61L421.97 119L420.87 118.52L419.72 118.16L418.51 117.94L417.27 117.87L416.41 117.95L415.56 118.09Z" id="a16fT1MneZ"></path><path d="M392.98 158.99C394.71 159.2 396.44 159.3 398.16 159.49C397.91 159.64 396.66 160.38 394.41 161.72C383.7 161.72 377.75 161.72 376.56 161.72C378.9 158.69 379.3 158.38 379.3 156.36C379.3 156.21 379.3 155.46 379.3 154.1L379.26 93.87L371.38 93.87L378.96 90.22C387.65 90.22 392.48 90.22 393.45 90.22C390.77 91.25 388.99 93.82 388.97 96.68C388.96 100.52 388.96 119.67 388.94 154.14C389.41 157.17 390.76 158.79 392.98 158.99Z" id="b6d4bmeUAA"></path><path d="M352.68 115.82L353.17 115.84L374.05 115.84L367.56 119.5L361.26 119.5L361.62 119.93L361.98 120.36L362.33 120.79L362.67 121.21L363 121.63L363.31 122.04L363.62 122.45L363.92 122.85L364.21 123.26L364.49 123.66L364.76 124.05L365.02 124.44L365.28 124.83L365.52 125.21L365.75 125.59L365.97 125.97L366.18 126.34L366.39 126.71L366.58 127.08L366.77 127.44L366.94 127.8L367.1 128.15L367.26 128.5L367.4 128.85L367.54 129.19L367.67 129.53L367.78 129.87L367.89 130.2L367.99 130.53L368.08 130.85L368.15 131.17L368.22 131.49L368.28 131.8L368.33 132.11L368.37 132.42L368.4 132.72L368.42 133.02L368.43 133.31L368.43 133.61L368.42 133.89L368.4 134.32L368.36 134.75L368.31 135.17L368.26 135.59L368.19 136.01L368.11 136.42L368.02 136.83L367.92 137.24L367.81 137.65L367.69 138.05L367.56 138.45L367.42 138.84L367.27 139.23L367.11 139.61L366.94 139.99L366.76 140.37L366.58 140.74L366.38 141.11L366.17 141.47L365.96 141.82L365.74 142.17L365.5 142.52L365.26 142.86L365.01 143.19L364.76 143.52L364.49 143.84L364.22 144.15L363.93 144.46L363.64 144.76L363.34 145.05L363.04 145.34L362.72 145.61L362.4 145.89L362.07 146.15L361.74 146.4L361.39 146.65L361.04 146.89L360.69 147.12L360.32 147.34L359.95 147.55L359.83 147.64L359.71 147.74L359.6 147.83L359.49 147.93L359.38 148.03L359.27 148.13L359.16 148.23L359.06 148.33L358.96 148.44L358.86 148.55L358.77 148.66L358.67 148.77L358.58 148.89L358.49 149L358.41 149.12L358.32 149.24L358.24 149.36L358.16 149.48L358.09 149.61L358.01 149.73L357.94 149.86L357.87 149.99L357.81 150.12L357.74 150.25L357.68 150.38L357.62 150.52L357.57 150.65L357.52 150.79L357.47 150.93L357.42 151.07L357.38 151.21L357.33 151.35L357.3 151.49L357.26 151.63L357.23 151.78L357.2 151.92L357.17 152.07L357.15 152.21L357.13 152.36L357.11 152.51L357.12 152.64L357.13 152.78L357.15 152.91L357.17 153.04L357.19 153.17L357.22 153.3L357.25 153.43L357.28 153.56L357.32 153.69L357.36 153.81L357.4 153.94L357.44 154.06L357.49 154.19L357.54 154.31L357.59 154.43L357.65 154.55L357.71 154.66L357.77 154.78L357.83 154.9L357.9 155.01L357.97 155.12L358.04 155.23L358.11 155.34L358.19 155.44L358.27 155.55L358.35 155.65L358.44 155.75L358.52 155.85L358.61 155.95L358.7 156.04L358.8 156.14L358.89 156.23L358.99 156.32L359.09 156.4L359.19 156.49L359.3 156.57L359.41 156.65L359.52 156.72L359.63 156.8L359.74 156.87L363.4 159.69L363.78 159.92L364.14 160.16L364.5 160.41L364.85 160.67L365.19 160.93L365.53 161.2L365.86 161.48L366.18 161.77L366.5 162.06L366.8 162.37L367.1 162.67L367.39 162.99L367.67 163.31L367.95 163.64L368.21 163.97L368.47 164.31L368.72 164.66L368.96 165.01L369.19 165.37L369.42 165.73L369.63 166.1L369.84 166.47L370.03 166.85L370.22 167.24L370.4 167.62L370.57 168.02L370.73 168.41L370.88 168.81L371.02 169.22L371.15 169.63L371.27 170.04L371.38 170.45L371.48 170.87L371.58 171.29L371.66 171.72L371.73 172.15L371.79 172.58L371.84 173.01L371.88 173.45L371.91 173.88L371.89 174.6L371.84 175.31L371.75 176.03L371.63 176.74L371.47 177.44L371.29 178.15L371.06 178.85L370.81 179.54L370.52 180.22L370.19 180.9L369.83 181.57L369.44 182.22L369.02 182.87L368.56 183.51L368.07 184.13L367.54 184.74L366.99 185.34L366.4 185.92L365.77 186.48L365.12 187.03L364.43 187.56L363.71 188.07L362.95 188.56L362.17 189.03L361.35 189.48L360.5 189.91L359.61 190.31L358.7 190.69L357.75 191.05L356.77 191.37L355.76 191.67L354.72 191.95L353.65 192.19L352.54 192.41L351.41 192.59L350.24 192.74L349.04 192.86L347.81 192.95L346.55 193L345.26 193.02L344.17 193.01L343.11 192.97L342.08 192.91L341.08 192.82L340.11 192.71L339.16 192.57L338.25 192.42L337.36 192.24L336.5 192.03L335.66 191.81L334.86 191.57L334.08 191.31L333.33 191.03L332.61 190.73L331.92 190.42L331.25 190.08L330.61 189.73L330 189.37L329.42 188.99L328.87 188.59L328.34 188.18L327.84 187.76L327.37 187.32L326.92 186.87L326.5 186.42L326.11 185.94L325.75 185.46L325.41 184.97L325.1 184.47L324.82 183.96L324.57 183.45L324.34 182.92L324.14 182.39L323.96 181.86L323.82 181.31L323.7 180.77L323.6 180.22L323.54 179.66L323.5 179.1L323.48 178.54L323.5 178.15L323.53 177.76L323.57 177.37L323.62 176.99L323.68 176.61L323.75 176.23L323.83 175.86L323.92 175.48L324.02 175.11L324.13 174.75L324.25 174.38L324.38 174.03L324.51 173.67L324.66 173.32L324.82 172.97L324.98 172.63L325.15 172.29L325.33 171.96L325.52 171.63L325.72 171.31L325.93 170.99L326.14 170.68L326.36 170.38L326.59 170.08L326.83 169.78L327.08 169.49L327.33 169.21L327.6 168.93L327.86 168.67L328.14 168.4L328.43 168.15L328.72 167.9L329.01 167.66L329.32 167.42L329.63 167.2L329.95 166.98L330.28 166.77L330.61 166.57L330.94 166.37L331.29 166.19L331.74 165.97L332.19 165.75L332.65 165.53L333.11 165.33L333.57 165.12L334.03 164.93L334.49 164.73L334.96 164.55L335.43 164.37L335.9 164.19L336.37 164.02L336.84 163.86L337.32 163.7L337.8 163.55L338.28 163.4L338.76 163.26L339.24 163.12L339.72 162.99L340.21 162.86L340.69 162.74L341.18 162.63L341.67 162.52L342.16 162.42L342.65 162.32L343.14 162.23L343.64 162.14L344.13 162.06L344.63 161.99L345.12 161.92L345.62 161.85L346.12 161.8L346.62 161.74L347.12 161.7L347.62 161.66L348.12 161.62L348.62 161.59L349.13 161.57L349.63 161.55L350.13 161.54L350.64 161.53L350.5 161.39L350.37 161.25L350.24 161.11L350.11 160.96L349.99 160.81L349.87 160.66L349.75 160.51L349.63 160.35L349.52 160.2L349.41 160.04L349.31 159.88L349.2 159.72L349.1 159.55L349 159.39L348.91 159.22L348.82 159.05L348.73 158.88L348.64 158.71L348.56 158.53L348.48 158.36L348.41 158.18L348.33 158.01L348.27 157.83L348.2 157.65L348.14 157.47L348.08 157.28L348.02 157.1L347.97 156.92L347.92 156.73L347.87 156.54L347.83 156.36L347.79 156.17L347.75 155.98L347.72 155.79L347.69 155.6L347.66 155.41L347.64 155.21L347.62 155.02L347.6 154.83L347.59 154.63L347.6 154.53L347.6 154.43L347.61 154.32L347.61 154.22L347.62 154.12L347.63 154.02L347.64 153.91L347.65 153.81L347.66 153.71L347.68 153.61L347.69 153.51L347.71 153.4L347.73 153.3L347.74 153.2L347.76 153.1L347.78 153L347.81 152.9L347.83 152.8L347.85 152.7L347.88 152.6L347.9 152.5L347.93 152.4L347.96 152.31L347.99 152.21L348.02 152.11L348.05 152.01L348.08 151.92L348.12 151.82L348.15 151.72L348.19 151.63L348.22 151.53L348.26 151.44L348.3 151.34L348.34 151.25L348.38 151.15L348.43 151.06L348.47 150.96L348.51 150.87L348.56 150.78L348.61 150.69L348.52 150.7L348.44 150.7L348.36 150.71L348.27 150.72L348.19 150.73L348.11 150.73L348.02 150.74L347.94 150.75L347.86 150.76L347.77 150.77L347.69 150.77L347.61 150.78L347.52 150.79L347.44 150.79L347.36 150.8L347.28 150.81L347.19 150.81L347.11 150.82L347.03 150.83L346.95 150.83L346.87 150.84L346.78 150.84L346.7 150.85L346.62 150.85L346.54 150.86L346.46 150.86L346.38 150.87L346.3 150.87L346.22 150.87L346.14 150.88L346.06 150.88L345.98 150.88L345.9 150.89L345.82 150.89L345.75 150.89L345.67 150.89L345.59 150.89L345.51 150.9L345.44 150.9L345.36 150.9L345.03 150.91L344.71 150.92L344.38 150.91L344.06 150.91L343.73 150.89L343.41 150.87L343.08 150.85L342.76 150.81L342.44 150.78L342.12 150.73L341.8 150.68L341.49 150.62L341.17 150.55L340.86 150.48L340.55 150.4L340.23 150.32L339.93 150.23L339.62 150.13L339.31 150.03L339.01 149.92L338.71 149.81L338.41 149.69L338.12 149.56L337.83 149.43L337.54 149.29L337.25 149.15L336.96 149L336.68 148.84L336.4 148.68L336.13 148.51L335.85 148.34L335.58 148.16L335.32 147.98L335.05 147.79L334.79 147.59L334.54 147.39L334.29 147.19L334.04 146.97L333.79 146.76L333.55 146.53L333.32 146.31L333.09 146.07L332.86 145.84L332.64 145.6L332.43 145.35L332.22 145.1L332.02 144.85L331.82 144.6L331.62 144.34L331.44 144.08L331.25 143.81L331.08 143.54L330.91 143.27L330.74 142.99L330.58 142.71L330.43 142.43L330.28 142.14L330.14 141.85L330 141.56L329.87 141.27L329.74 140.97L329.63 140.68L329.51 140.38L329.41 140.07L329.3 139.77L329.21 139.46L329.12 139.15L329.04 138.84L328.96 138.52L328.89 138.21L328.83 137.89L328.77 137.57L328.72 137.26L328.68 136.93L328.64 136.61L328.61 136.29L328.58 135.96L328.56 135.64L328.55 135.31L328.54 134.98L328.56 134.59L328.58 134.2L328.61 133.81L328.64 133.42L328.69 133.03L328.74 132.65L328.8 132.26L328.87 131.88L328.95 131.5L329.04 131.12L329.13 130.75L329.23 130.37L329.34 130L329.46 129.64L329.58 129.27L329.71 128.91L329.85 128.55L330 128.2L330.16 127.84L330.32 127.5L330.49 127.15L330.67 126.81L330.85 126.47L331.04 126.14L331.24 125.81L331.45 125.48L331.66 125.16L331.88 124.84L332.1 124.53L332.34 124.22L332.58 123.92L332.82 123.62L333.08 123.32L333.34 123.03L333.6 122.75L333.88 122.47L334.16 122.2L334.44 121.93L334.73 121.67L335.03 121.41L335.43 121.12L335.82 120.84L336.22 120.56L336.63 120.29L337.04 120.03L337.45 119.77L337.87 119.53L338.29 119.29L338.72 119.06L339.14 118.83L339.58 118.62L340.01 118.41L340.45 118.21L340.89 118.01L341.34 117.83L341.79 117.65L342.24 117.48L342.69 117.32L343.15 117.17L343.61 117.02L344.07 116.88L344.53 116.75L345 116.63L345.47 116.52L345.94 116.41L346.41 116.32L346.88 116.23L347.36 116.15L347.84 116.08L348.32 116.01L348.8 115.96L349.28 115.91L349.76 115.87L350.25 115.84L350.73 115.82L351.22 115.81L351.7 115.8L352.19 115.81L352.68 115.82ZM352.01 164.36L351.88 164.36L351.75 164.36L351.15 164.38L350.55 164.4L349.95 164.44L349.35 164.48L348.76 164.53L348.16 164.59L347.57 164.66L346.97 164.73L346.38 164.82L345.79 164.91L345.2 165.02L344.61 165.13L344.02 165.25L343.44 165.38L342.86 165.52L342.28 165.67L341.7 165.82L341.12 165.99L340.32 166.21L339.54 166.49L338.79 166.82L338.08 167.2L337.39 167.62L336.74 168.1L336.13 168.61L335.56 169.17L335.03 169.76L334.54 170.39L334.09 171.05L333.69 171.75L333.34 172.47L333.05 173.22L332.8 173.99L332.61 174.78L332.47 175.6L332.39 176.43L332.46 177.6L332.65 178.74L332.96 179.84L333.4 180.88L333.95 181.88L334.61 182.82L335.38 183.71L336.26 184.53L337.25 185.3L338.33 185.99L339.51 186.62L340.79 187.18L342.15 187.65L343.61 188.05L345.14 188.37L346.76 188.6L348.46 188.74L350.22 188.78L351.8 188.74L353.3 188.61L354.7 188.41L356.02 188.13L357.26 187.77L358.4 187.34L359.46 186.85L360.43 186.29L361.31 185.67L362.1 184.99L362.8 184.25L363.41 183.47L363.93 182.63L364.35 181.75L364.68 180.83L364.92 179.87L365.06 178.87L365.11 177.84L365.08 177L364.98 176.2L364.83 175.44L364.6 174.7L364.31 173.99L363.96 173.29L363.53 172.61L363.04 171.94L362.47 171.27L361.84 170.6L361.13 169.92L360.35 169.22L359.5 168.51L358.57 167.77L357.56 167L356.48 166.2L355.32 165.36L354.08 164.47L353.95 164.45L353.82 164.44L353.69 164.43L353.56 164.42L353.43 164.4L353.3 164.39L353.17 164.39L353.05 164.38L352.92 164.37L352.79 164.37L352.66 164.36L352.53 164.36L352.4 164.36L352.27 164.36L352.14 164.36L352.01 164.36ZM345.76 119.26L345.26 119.33L344.76 119.44L344.27 119.56L343.79 119.72L343.32 119.89L342.87 120.1L342.42 120.32L341.98 120.57L341.56 120.85L341.15 121.14L340.76 121.46L340.39 121.8L340.03 122.16L339.69 122.55L339.4 122.96L339.14 123.38L338.89 123.81L338.66 124.25L338.45 124.7L338.26 125.16L338.08 125.62L337.93 126.09L337.8 126.57L337.69 127.05L337.6 127.54L337.53 128.03L337.48 128.53L337.45 129.03L337.45 129.53L337.46 130.03L337.51 131.35L337.65 132.75L337.88 134.21L338.22 135.71L338.64 137.22L339.17 138.72L339.8 140.18L340.53 141.59L341.36 142.92L342.29 144.15L343.33 145.25L344.47 146.2L345.72 146.98L347.08 147.57L348.55 147.94L350.12 148.07L350.6 148.04L351.08 148L351.55 147.93L352.02 147.84L352.48 147.73L352.93 147.6L353.38 147.45L353.82 147.28L354.25 147.09L354.68 146.88L355.09 146.65L355.49 146.4L355.89 146.14L356.27 145.85L356.64 145.55L356.99 145.22L356.99 145.22L357.32 144.64L357.62 144.08L357.91 143.53L358.17 143L358.41 142.48L358.62 141.98L358.82 141.5L358.99 141.03L359.13 140.57L359.26 140.13L359.36 139.71L359.44 139.3L359.5 138.91L359.54 138.53L359.55 138.17L359.54 137.82L359.49 136.41L359.33 134.93L359.08 133.4L358.73 131.84L358.27 130.28L357.72 128.73L357.07 127.22L356.32 125.78L355.47 124.42L354.52 123.17L353.47 122.05L352.32 121.08L351.08 120.29L349.74 119.69L348.31 119.32L346.78 119.19L346.26 119.21L345.76 119.26Z" id="h38GBH9HTw"></path><path d="M299.97 114.53L300.59 114.53L301.2 114.54L301.82 114.56L302.43 114.6L303.05 114.66L303.65 114.74L304.26 114.83L304.86 114.93L305.46 115.05L306.06 115.19L306.65 115.34L307.23 115.5L307.81 115.68L308.39 115.88L308.96 116.09L309.53 116.31L310.09 116.55L310.64 116.81L311.19 117.07L311.73 117.36L312.26 117.65L312.78 117.96L313.3 118.28L313.81 118.62L314.31 118.97L314.81 119.34L315.29 119.71L315.77 120.1L316.24 120.51L316.69 120.93L317.14 121.36L317.57 121.8L318 122.25L318.41 122.71L318.8 123.18L319.19 123.66L319.56 124.15L319.91 124.64L320.26 125.15L320.59 125.66L320.9 126.18L321.21 126.71L321.5 127.25L321.77 127.79L322.03 128.34L322.28 128.9L322.51 129.46L322.73 130.03L322.93 130.6L323.12 131.18L323.29 131.76L323.45 132.35L323.59 132.94L323.72 133.54L323.84 134.14L323.93 134.75L324.01 135.35L324.08 135.97L324.13 136.58L324.17 137.19L324.18 137.81L324.19 138.43L324.18 139.08L324.15 139.73L324.1 140.37L324.04 141.01L323.96 141.65L323.87 142.29L323.76 142.92L323.63 143.54L323.49 144.17L323.33 144.79L323.15 145.4L322.96 146.01L322.75 146.61L322.53 147.21L322.3 147.8L322.04 148.38L321.78 148.96L321.5 149.53L321.2 150.1L320.89 150.65L320.56 151.2L320.22 151.74L319.87 152.28L319.5 152.8L319.12 153.32L318.72 153.82L318.31 154.32L317.89 154.8L317.45 155.28L317 155.74L316.54 156.2L316.07 156.64L315.58 157.07L315.09 157.48L314.58 157.88L314.07 158.27L313.54 158.64L313.01 159L312.47 159.34L311.93 159.67L311.37 159.99L310.81 160.29L310.24 160.58L309.66 160.85L309.08 161.1L308.49 161.34L307.89 161.57L307.29 161.78L306.68 161.97L306.07 162.15L305.45 162.31L304.83 162.46L304.21 162.59L303.58 162.71L302.95 162.8L302.31 162.89L301.67 162.95L301.03 163L300.39 163.04L299.74 163.05L299.1 163.05L298.45 163.03L297.63 162.89L296.84 162.74L296.05 162.59L295.29 162.43L294.54 162.27L293.81 162.1L293.1 161.92L292.4 161.75L291.72 161.56L291.06 161.38L290.41 161.18L289.78 160.99L289.17 160.79L288.57 160.58L287.99 160.37L287.43 160.15L286.88 159.93L286.35 159.71L285.84 159.47L285.35 159.24L284.87 159L284.41 158.75L283.97 158.5L283.54 158.25L283.13 157.99L282.73 157.73L282.36 157.46L282 157.18L281.65 156.9L281.33 156.62L281.02 156.33L280.57 155.89L280.14 155.44L279.72 154.98L279.32 154.51L278.92 154.03L278.54 153.54L278.18 153.04L277.83 152.53L277.49 152.02L277.16 151.49L276.85 150.96L276.55 150.42L276.27 149.88L276 149.32L275.75 148.76L275.51 148.2L275.28 147.62L275.07 147.05L274.87 146.46L274.69 145.87L274.53 145.28L274.38 144.68L274.24 144.08L274.12 143.48L274.02 142.87L273.93 142.25L273.86 141.64L273.8 141.02L273.76 140.39L273.74 139.77L273.73 139.14L273.75 138.49L273.79 137.84L273.84 137.19L273.91 136.54L274 135.9L274.11 135.26L274.23 134.62L274.36 133.99L274.52 133.36L274.68 132.74L274.87 132.12L275.07 131.51L275.28 130.91L275.51 130.31L275.76 129.71L276.02 129.12L276.3 128.54L276.59 127.97L276.89 127.4L277.21 126.85L277.55 126.29L277.9 125.75L278.26 125.22L278.63 124.69L279.03 124.18L279.43 123.67L279.85 123.18L280.28 122.69L280.72 122.22L281.18 121.75L281.65 121.3L282.14 120.85L282.63 120.43L283.13 120.01L283.65 119.61L284.17 119.23L284.7 118.86L285.24 118.5L285.79 118.16L286.34 117.83L286.9 117.51L287.47 117.22L288.05 116.93L288.64 116.66L289.23 116.41L289.82 116.17L290.43 115.95L291.04 115.74L291.65 115.55L292.27 115.38L292.89 115.22L293.52 115.07L294.15 114.94L294.79 114.83L295.42 114.74L296.07 114.66L296.71 114.59L297.36 114.55L298.01 114.52L298.66 114.51L299.31 114.51L299.97 114.53ZM296.48 117.7L296.04 117.74L295.61 117.79L295.18 117.85L294.76 117.93L294.33 118.02L293.91 118.12L293.5 118.24L293.08 118.36L292.68 118.5L292.27 118.66L291.88 118.82L291.48 119L291.09 119.18L290.71 119.39L290.34 119.6L289.97 119.82L289.6 120.06L289.24 120.3L288.89 120.56L288.55 120.83L288.22 121.12L287.79 121.54L287.38 121.98L286.99 122.43L286.62 122.9L286.27 123.38L285.94 123.87L285.63 124.38L285.34 124.89L285.07 125.42L284.82 125.95L284.59 126.49L284.38 127.04L284.19 127.6L284.03 128.17L283.89 128.74L283.76 129.32L283.67 129.9L283.59 130.49L283.54 131.08L283.51 131.68L283.5 132.28L283.52 132.88L283.56 133.48L283.58 134.82L283.67 136.22L283.81 137.67L284.02 139.17L284.28 140.69L284.61 142.23L285 143.77L285.45 145.31L285.97 146.83L286.55 148.33L287.21 149.78L287.93 151.18L288.72 152.52L289.59 153.79L290.53 154.97L291.54 156.06L292.62 157.03L293.78 157.89L295.02 158.62L296.34 159.2L297.74 159.64L299.22 159.9L300.78 160L301.31 159.98L301.83 159.95L302.35 159.9L302.87 159.83L303.38 159.73L303.89 159.62L304.39 159.48L304.88 159.33L305.37 159.15L305.85 158.96L306.32 158.75L306.78 158.52L307.24 158.27L307.68 158L308.11 157.72L308.53 157.42L308.94 157.1L309.34 156.76L309.72 156.41L310.09 156.04L310.45 155.66L310.79 155.26L311.12 154.84L311.4 154.41L311.67 153.96L311.92 153.52L312.17 153.06L312.4 152.6L312.61 152.13L312.82 151.66L313.01 151.18L313.18 150.7L313.34 150.21L313.49 149.72L313.63 149.23L313.75 148.73L313.85 148.23L313.94 147.72L314.02 147.22L314.09 146.71L314.13 146.19L314.17 145.68L314.19 145.16L314.19 144.65L314.18 144.13L314.16 143.61L314.13 142.4L314.06 141.12L313.93 139.76L313.75 138.35L313.51 136.9L313.22 135.42L312.86 133.92L312.45 132.42L311.96 130.92L311.41 129.45L310.8 128L310.11 126.6L309.35 125.26L308.52 123.98L307.61 122.79L306.62 121.69L305.55 120.7L304.4 119.83L303.17 119.08L301.85 118.48L300.44 118.04L298.94 117.77L297.35 117.67L296.91 117.68L296.48 117.7Z" id="g2NSzOQqMe"></path><path d="M246.06 114.53L246.68 114.53L247.3 114.54L247.92 114.56L248.53 114.6L249.14 114.66L249.75 114.74L250.36 114.83L250.96 114.93L251.56 115.05L252.15 115.19L252.74 115.34L253.33 115.5L253.91 115.68L254.48 115.88L255.05 116.09L255.62 116.32L256.18 116.55L256.73 116.81L257.28 117.08L257.82 117.36L258.35 117.65L258.87 117.96L259.39 118.29L259.9 118.62L260.4 118.97L260.9 119.34L261.38 119.72L261.86 120.11L262.32 120.51L262.78 120.93L263.23 121.36L263.66 121.8L264.08 122.25L264.49 122.71L264.89 123.18L265.27 123.66L265.64 124.15L266 124.64L266.34 125.15L266.67 125.66L266.99 126.19L267.29 126.71L267.58 127.25L267.85 127.79L268.11 128.34L268.36 128.9L268.59 129.46L268.81 130.03L269.01 130.6L269.2 131.18L269.37 131.76L269.53 132.35L269.67 132.95L269.8 133.54L269.91 134.14L270.01 134.75L270.09 135.36L270.16 135.97L270.21 136.58L270.24 137.19L270.26 137.81L270.26 138.43L270.25 139.08L270.22 139.73L270.18 140.37L270.12 141.01L270.04 141.65L269.94 142.29L269.83 142.92L269.71 143.54L269.56 144.17L269.4 144.79L269.23 145.4L269.04 146.01L268.83 146.61L268.61 147.21L268.38 147.8L268.12 148.38L267.86 148.96L267.58 149.53L267.28 150.1L266.97 150.65L266.64 151.2L266.31 151.74L265.95 152.27L265.58 152.8L265.2 153.31L264.81 153.82L264.4 154.31L263.97 154.8L263.54 155.27L263.09 155.74L262.62 156.19L262.15 156.64L261.66 157.06L261.17 157.48L260.67 157.88L260.15 158.27L259.63 158.64L259.1 159L258.56 159.34L258.01 159.67L257.46 159.99L256.89 160.29L256.32 160.57L255.75 160.84L255.16 161.1L254.57 161.34L253.98 161.56L253.38 161.77L252.77 161.97L252.16 162.15L251.54 162.31L250.92 162.46L250.3 162.59L249.67 162.7L249.04 162.8L248.4 162.89L247.76 162.95L247.12 163L246.48 163.03L245.83 163.05L245.19 163.05L244.54 163.03L243.72 162.89L242.92 162.74L242.14 162.59L241.38 162.43L240.63 162.27L239.9 162.1L239.18 161.92L238.49 161.75L237.81 161.56L237.14 161.38L236.5 161.18L235.87 160.99L235.25 160.79L234.66 160.58L234.08 160.37L233.52 160.15L232.97 159.93L232.44 159.71L231.93 159.47L231.44 159.24L230.96 159L230.5 158.75L230.06 158.5L229.63 158.25L229.22 157.99L228.83 157.73L228.45 157.46L228.09 157.18L227.75 156.9L227.42 156.62L227.11 156.33L226.67 155.89L226.24 155.44L225.82 154.98L225.41 154.51L225.02 154.03L224.64 153.54L224.27 153.04L223.92 152.53L223.58 152.02L223.26 151.49L222.95 150.96L222.65 150.42L222.37 149.88L222.1 149.32L221.84 148.76L221.6 148.2L221.38 147.62L221.17 147.05L220.97 146.46L220.79 145.87L220.63 145.28L220.48 144.68L220.34 144.08L220.22 143.48L220.12 142.87L220.03 142.25L219.96 141.64L219.9 141.02L219.86 140.39L219.84 139.77L219.83 139.14L219.85 138.49L219.89 137.84L219.94 137.19L220.01 136.54L220.1 135.9L220.21 135.26L220.33 134.62L220.46 133.99L220.61 133.36L220.78 132.74L220.97 132.12L221.17 131.51L221.38 130.91L221.61 130.31L221.86 129.71L222.12 129.12L222.4 128.54L222.69 127.97L222.99 127.4L223.31 126.85L223.65 126.3L223.99 125.75L224.36 125.22L224.73 124.7L225.12 124.18L225.53 123.68L225.95 123.18L226.38 122.7L226.82 122.22L227.28 121.76L227.75 121.3L228.24 120.86L228.73 120.43L229.23 120.02L229.75 119.62L230.27 119.23L230.8 118.86L231.34 118.5L231.88 118.16L232.44 117.83L233 117.52L233.57 117.22L234.15 116.94L234.74 116.67L235.33 116.41L235.92 116.18L236.53 115.95L237.13 115.75L237.75 115.55L238.37 115.38L238.99 115.22L239.62 115.07L240.25 114.94L240.88 114.83L241.52 114.74L242.16 114.66L242.81 114.59L243.46 114.55L244.11 114.52L244.76 114.51L245.41 114.51L246.06 114.53ZM242.56 117.7L242.13 117.74L241.7 117.79L241.27 117.85L240.84 117.93L240.42 118.02L240 118.12L239.59 118.24L239.18 118.36L238.77 118.5L238.37 118.65L237.97 118.82L237.58 118.99L237.19 119.18L236.81 119.38L236.43 119.6L236.06 119.82L235.7 120.05L235.34 120.3L234.99 120.56L234.65 120.83L234.32 121.11L233.89 121.54L233.48 121.98L233.09 122.43L232.72 122.9L232.37 123.38L232.04 123.87L231.73 124.37L231.44 124.89L231.17 125.41L230.92 125.95L230.69 126.49L230.48 127.04L230.29 127.6L230.13 128.17L229.99 128.74L229.86 129.32L229.77 129.9L229.69 130.49L229.64 131.08L229.6 131.68L229.6 132.28L229.61 132.88L229.65 133.48L229.68 134.82L229.77 136.22L229.91 137.67L230.12 139.17L230.38 140.69L230.71 142.23L231.1 143.77L231.55 145.31L232.07 146.83L232.66 148.33L233.32 149.78L234.04 151.18L234.83 152.52L235.7 153.79L236.64 154.97L237.65 156.06L238.73 157.03L239.89 157.89L241.13 158.62L242.45 159.2L243.84 159.64L245.32 159.9L246.88 160L247.4 159.98L247.93 159.95L248.45 159.9L248.97 159.82L249.48 159.73L249.99 159.61L250.49 159.48L250.98 159.32L251.47 159.15L251.95 158.96L252.42 158.74L252.88 158.51L253.33 158.27L253.77 158L254.2 157.72L254.62 157.41L255.03 157.1L255.43 156.76L255.81 156.41L256.18 156.04L256.54 155.66L256.88 155.26L257.21 154.84L257.49 154.41L257.76 153.96L258.01 153.51L258.26 153.06L258.48 152.6L258.7 152.13L258.9 151.66L259.09 151.18L259.27 150.7L259.43 150.21L259.57 149.72L259.71 149.23L259.83 148.73L259.93 148.23L260.03 147.72L260.1 147.21L260.17 146.7L260.22 146.19L260.25 145.68L260.27 145.16L260.28 144.65L260.27 144.13L260.25 143.61L260.22 142.4L260.15 141.12L260.02 139.76L259.84 138.35L259.6 136.9L259.31 135.42L258.95 133.92L258.53 132.42L258.05 130.92L257.5 129.45L256.88 128L256.19 126.6L255.43 125.26L254.6 123.98L253.69 122.79L252.7 121.69L251.64 120.7L250.48 119.83L249.25 119.08L247.93 118.48L246.52 118.04L245.02 117.77L243.43 117.67L243 117.68L242.56 117.7Z" id="a1P8hxPhwT"></path><path d="M199.81 162.63C194.64 163.59 189.4 164.13 184.14 164.26C157.94 164.26 147.96 144.97 147.96 129.89C147.96 111.46 162.1 94.37 186.32 94.37C191.23 94.38 196.13 95.05 200.87 96.35C205.38 97.5 209.63 99.51 213.39 102.26C212.87 102.76 210.24 105.26 205.5 109.75L202.18 110.5C203.6 108.23 204.39 106.97 204.55 106.71C199.36 100.97 191.97 97.72 184.23 97.78C176.94 97.75 169.96 100.75 164.98 106.06C159.99 111.38 157.44 118.53 157.94 125.8C157.65 134.9 161.06 143.72 167.39 150.26C173.72 156.79 182.44 160.47 191.54 160.46C195.69 160.57 199.8 159.76 203.6 158.09C203.6 157.07 203.6 151.97 203.6 142.78L189.26 143.56L196.86 139.47L216.98 139.47C215.51 140.9 214.69 141.69 214.53 141.84C214.01 142.19 213.67 142.74 213.59 143.36C213.49 144.22 213.4 146.97 213.4 147.94C213.4 148.71 213.4 152.57 213.39 159.52L213.39 159.52C205.24 161.38 200.72 162.42 199.81 162.63Z" id="c57nzJtbSd"></path><path d="M356.87 36.6L356.87 59.52L351.25 59.52L351.25 27.47L357.01 27.47L373.4 49.67L373.4 27.47L379.02 27.47L379.02 59.52L373.59 59.52L356.87 36.6Z" id="iy5IlBc5B"></path><path d="M330 27.03L330.85 27.15L331.69 27.3L332.53 27.5L333.35 27.75L334.17 28.04L334.98 28.37L335.77 28.75L336.54 29.17L337.29 29.64L338.01 30.14L338.7 30.67L339.35 31.24L339.97 31.84L340.56 32.47L341.11 33.12L341.63 33.81L342.11 34.51L342.55 35.25L342.95 36L343.31 36.78L343.63 37.57L343.91 38.38L344.15 39.21L344.35 40.05L344.5 40.9L344.6 41.77L344.66 42.64L344.68 43.52L344.66 44.4L344.6 45.28L344.5 46.14L344.35 46.99L344.15 47.83L343.91 48.66L343.63 49.47L343.31 50.27L342.95 51.04L342.55 51.79L342.11 52.53L341.63 53.23L341.11 53.92L340.56 54.58L339.97 55.2L339.35 55.8L338.7 56.37L338.01 56.9L337.29 57.4L336.54 57.87L335.77 58.29L334.98 58.67L334.17 59L333.35 59.29L332.53 59.54L331.69 59.74L330.85 59.9L330 60.01L329.15 60.07L328.29 60.1L327.44 60.07L326.58 60.01L325.74 59.9L324.89 59.74L324.06 59.54L323.23 59.29L322.41 59L321.61 58.67L320.82 58.29L320.04 57.87L319.29 57.4L318.57 56.9L317.89 56.37L317.23 55.8L316.61 55.2L316.02 54.58L315.47 53.92L314.96 53.23L314.48 52.53L314.04 51.79L313.63 51.04L313.27 50.27L312.95 49.47L312.67 48.66L312.43 47.83L312.24 46.99L312.08 46.14L311.98 45.28L311.92 44.4L311.91 43.52L312.21 42.4L312.53 41.33L312.86 40.3L313.2 39.31L313.55 38.36L313.91 37.45L314.28 36.59L314.67 35.76L315.06 34.98L315.46 34.24L315.87 33.55L316.29 32.89L316.73 32.28L317.17 31.71L317.62 31.18L318.09 30.7L318.56 30.25L319.04 29.85L319.54 29.49L320.04 29.17L320.82 28.75L321.61 28.37L322.41 28.04L323.23 27.75L324.06 27.5L324.89 27.3L325.74 27.15L326.58 27.03L327.44 26.97L328.29 26.95L329.15 26.97L330 27.03ZM326.63 32.07L325.81 32.23L325.01 32.46L324.22 32.75L323.45 33.1L322.7 33.52L321.99 34L321.32 34.53L320.71 35.11L320.14 35.73L319.63 36.39L319.17 37.08L318.77 37.81L318.43 38.57L318.14 39.35L317.92 40.15L317.76 40.98L317.66 41.81L317.63 42.66L317.67 43.52L317.63 44.38L317.66 45.23L317.76 46.07L317.92 46.89L318.14 47.69L318.43 48.47L318.77 49.23L319.17 49.96L319.63 50.65L320.14 51.31L320.71 51.93L321.32 52.51L321.99 53.04L322.7 53.52L323.45 53.94L324.22 54.29L325.01 54.58L325.81 54.81L326.63 54.97L327.46 55.07L328.29 55.1L329.12 55.07L329.95 54.97L330.77 54.81L331.57 54.58L332.37 54.29L333.14 53.94L333.88 53.52L334.6 53.04L335.26 52.51L335.88 51.93L336.44 51.31L336.95 50.65L337.41 49.96L337.81 49.23L338.16 48.47L338.44 47.69L338.66 46.89L338.83 46.07L338.92 45.23L338.95 44.38L338.91 43.52L338.95 42.66L338.92 41.81L338.83 40.98L338.66 40.15L338.44 39.35L338.16 38.57L337.81 37.81L337.41 37.08L336.95 36.39L336.44 35.73L335.88 35.11L335.26 34.53L334.6 34L333.88 33.52L333.14 33.1L332.37 32.75L331.57 32.46L330.77 32.23L329.95 32.07L329.12 31.97L328.29 31.94L327.46 31.97L326.63 32.07Z" id="e1uufzg3TR"></path><path d="M278.43 32.42L268.73 32.42L268.73 27.47L293.76 27.47L293.76 32.42L284.06 32.42L284.06 59.52L278.43 59.52L278.43 32.42Z" id="c3dHVkznjY"></path><path d="M257.16 27.47L262.77 27.47L262.77 59.52L257.16 59.52L257.16 27.47Z" id="a1Kd4lB7i"></path><path d="M222.29 32.42L212.58 32.42L212.58 27.47L237.62 27.47L237.62 32.42L227.91 32.42L227.91 59.52L222.29 59.52L222.29 32.42Z" id="f7LkbiiOcx"></path><path d="M184.77 27.47L206.73 27.47L206.73 32.42L190.39 32.42L190.39 40.68L206.39 40.68L206.39 45.63L190.39 45.63L190.39 54.57L206.73 54.57L206.73 59.52L184.77 59.52L184.77 59.52L184.77 27.47Z" id="bubpr252w"></path><path d="M152.63 31.56C155.82 28.42 160.18 26.74 164.65 26.95C169.8 26.8 174.66 29.3 177.53 33.58C177.07 33.84 173.42 35.96 172.97 36.22C171.03 33.55 167.95 31.96 164.65 31.94C161.62 31.91 158.7 33.14 156.61 35.33C154.52 37.52 153.42 40.49 153.6 43.52C153.44 46.55 154.54 49.5 156.63 51.69C158.72 53.89 161.62 55.12 164.65 55.1C167.45 55.09 170.15 54.07 172.24 52.21C172.24 51.88 172.24 50.23 172.24 47.26L162.63 47.26L162.63 42.32L177.81 42.32C177.81 49.5 177.81 53.48 177.81 54.28C174.49 58.06 169.68 60.2 164.65 60.14C160.17 60.32 155.82 58.63 152.63 55.48C149.44 52.33 147.71 48 147.83 43.52C147.7 39.04 149.44 34.71 152.63 31.56Z" id="c105Y5AoaL"></path><path d="M33.43 84.88C31.99 83.97 30.24 83.68 28.58 84.08C32.08 87.57 49.57 105.06 81.05 136.54L97.48 120.1C59.05 98.97 37.7 87.23 33.43 84.88Z" id="h4L9ZiXIc"></path><linearGradient id="gradientj2IuR24VGq" gradientUnits="userSpaceOnUse" x1="70.07" y1="132.3" x2="51.74" y2="71.46"><stop style="stop-color: #d6ffa1;stop-opacity: 1" offset="0%"></stop><stop style="stop-color: #93e2a7;stop-opacity: 1" offset="32.64%"></stop><stop style="stop-color: #00a3b5;stop-opacity: 1" offset="100%"></stop></linearGradient><path d="M119.43 141.04C123.86 138.59 123.86 134.6 119.43 132.17C117.96 131.36 110.65 127.34 97.48 120.1L81.04 136.54L97.57 153.06C110.68 145.85 117.97 141.84 119.43 141.04Z" id="b12nZMAeXI"></path><linearGradient id="gradientd1uEbUKAqC" gradientUnits="userSpaceOnUse" x1="67.77" y1="77.63" x2="114.68" y2="140.94"><stop style="stop-color: #ff177b;stop-opacity: 1" offset="0%"></stop><stop style="stop-color: #ffa976;stop-opacity: 1" offset="67.21000000000001%"></stop><stop style="stop-color: #ffec73;stop-opacity: 1" offset="100%"></stop></linearGradient><path d="M25.37 89.65C25.37 99.04 25.38 174.16 25.38 183.55C25.08 185.89 26.35 188.15 28.5 189.1C32 185.59 49.52 168.08 81.05 136.55L28.58 84.08C26.23 86.21 25.16 88.07 25.37 89.65Z" id="avVX7YXP3"></path><linearGradient id="gradienthcGeORDzD" gradientUnits="userSpaceOnUse" x1="53.79" y1="162.52" x2="37.58" y2="44.68"><stop style="stop-color: #63ffd4;stop-opacity: 1" offset="0%"></stop><stop style="stop-color: #32a0ba;stop-opacity: 1" offset="48.54%"></stop><stop style="stop-color: #1262a9;stop-opacity: 1" offset="83.49%"></stop><stop style="stop-color: #064aa2;stop-opacity: 1" offset="100%"></stop></linearGradient><path d="M33.43 188.32C37.7 185.97 59.08 174.22 97.56 153.06L81.05 136.55L28.5 189.1C30.81 189.21 32.45 188.95 33.43 188.32Z" id="bkKPQXXgL"></path><linearGradient id="gradienta3J3L3i5j1" gradientUnits="userSpaceOnUse" x1="110.96" y1="155.36" x2="12.69" y2="165.64"><stop style="stop-color: #ff4521;stop-opacity: 1" offset="0%"></stop><stop style="stop-color: #d43e65;stop-opacity: 1" offset="34.11%"></stop><stop style="stop-color: #9f36b9;stop-opacity: 1" offset="79.35%"></stop><stop style="stop-color: #8a33db;stop-opacity: 1" offset="100%"></stop></linearGradient></defs><g><g><use xlink:href="#i7ctXWvmq" opacity="1" fill="url(#gradienta1MqUKwqEo)"></use><g><use xlink:href="#i7ctXWvmq" opacity="1" fill-opacity="0" stroke="#000000" stroke-width="1" stroke-opacity="0"></use></g></g><g><use xlink:href="#dbHG3FZSGY" opacity="1" fill="#ffffff" fill-opacity="1"></use><g><use xlink:href="#dbHG3FZSGY" opacity="1" fill-opacity="0" stroke="#000000" stroke-width="1" stroke-opacity="0"></use></g></g><g><use xlink:href="#e3mgI9Wd5n" opacity="1" fill="#ffffff" fill-opacity="1"></use><g><use xlink:href="#e3mgI9Wd5n" opacity="1" fill-opacity="0" stroke="#000000" stroke-width="1" stroke-opacity="0"></use></g></g><g><use xlink:href="#ab3OwKeBB" opacity="1" fill="#ffffff" fill-opacity="1"></use><g><use xlink:href="#ab3OwKeBB" opacity="1" fill-opacity="0" stroke="#000000" stroke-width="1" stroke-opacity="0"></use></g></g><g><use xlink:href="#bjheZ9Y1Y" opacity="1" fill="#ffffff" fill-opacity="1"></use><g><use xlink:href="#bjheZ9Y1Y" opacity="1" fill-opacity="0" stroke="#000000" stroke-width="1" stroke-opacity="0"></use></g></g><g><use xlink:href="#a16fT1MneZ" opacity="1" fill="#ffffff" fill-opacity="1"></use><g><use xlink:href="#a16fT1MneZ" opacity="1" fill-opacity="0" stroke="#000000" stroke-width="1" stroke-opacity="0"></use></g></g><g><use xlink:href="#b6d4bmeUAA" opacity="1" fill="#ffffff" fill-opacity="1"></use><g><use xlink:href="#b6d4bmeUAA" opacity="1" fill-opacity="0" stroke="#000000" stroke-width="1" stroke-opacity="0"></use></g></g><g><use xlink:href="#h38GBH9HTw" opacity="1" fill="#ffffff" fill-opacity="1"></use><g><use xlink:href="#h38GBH9HTw" opacity="1" fill-opacity="0" stroke="#000000" stroke-width="1" stroke-opacity="0"></use></g></g><g><use xlink:href="#g2NSzOQqMe" opacity="1" fill="#ffffff" fill-opacity="1"></use><g><use xlink:href="#g2NSzOQqMe" opacity="1" fill-opacity="0" stroke="#000000" stroke-width="1" stroke-opacity="0"></use></g></g><g><use xlink:href="#a1P8hxPhwT" opacity="1" fill="#ffffff" fill-opacity="1"></use><g><use xlink:href="#a1P8hxPhwT" opacity="1" fill-opacity="0" stroke="#000000" stroke-width="1" stroke-opacity="0"></use></g></g><g><use xlink:href="#c57nzJtbSd" opacity="1" fill="#ffffff" fill-opacity="1"></use><g><use xlink:href="#c57nzJtbSd" opacity="1" fill-opacity="0" stroke="#000000" stroke-width="1" stroke-opacity="0"></use></g></g><g><use xlink:href="#iy5IlBc5B" opacity="1" fill="#ffffff" fill-opacity="1"></use><g><use xlink:href="#iy5IlBc5B" opacity="1" fill-opacity="0" stroke="#000000" stroke-width="1" stroke-opacity="0"></use></g></g><g><use xlink:href="#e1uufzg3TR" opacity="1" fill="#ffffff" fill-opacity="1"></use><g><use xlink:href="#e1uufzg3TR" opacity="1" fill-opacity="0" stroke="#000000" stroke-width="1" stroke-opacity="0"></use></g></g><g><use xlink:href="#c3dHVkznjY" opacity="1" fill="#ffffff" fill-opacity="1"></use><g><use xlink:href="#c3dHVkznjY" opacity="1" fill-opacity="0" stroke="#000000" stroke-width="1" stroke-opacity="0"></use></g></g><g><use xlink:href="#a1Kd4lB7i" opacity="1" fill="#ffffff" fill-opacity="1"></use><g><use xlink:href="#a1Kd4lB7i" opacity="1" fill-opacity="0" stroke="#000000" stroke-width="1" stroke-opacity="0"></use></g></g><g><use xlink:href="#f7LkbiiOcx" opacity="1" fill="#ffffff" fill-opacity="1"></use><g><use xlink:href="#f7LkbiiOcx" opacity="1" fill-opacity="0" stroke="#000000" stroke-width="1" stroke-opacity="0"></use></g></g><g><use xlink:href="#bubpr252w" opacity="1" fill="#ffffff" fill-opacity="1"></use><g><use xlink:href="#bubpr252w" opacity="1" fill-opacity="0" stroke="#000000" stroke-width="1" stroke-opacity="0"></use></g></g><g><use xlink:href="#c105Y5AoaL" opacity="1" fill="#ffffff" fill-opacity="1"></use><g><use xlink:href="#c105Y5AoaL" opacity="1" fill-opacity="0" stroke="#000000" stroke-width="1" stroke-opacity="0"></use></g></g><g><use xlink:href="#h4L9ZiXIc" opacity="1" fill="url(#gradientj2IuR24VGq)"></use><g><use xlink:href="#h4L9ZiXIc" opacity="1" fill-opacity="0" stroke="#000000" stroke-width="1" stroke-opacity="0"></use></g></g><g><use xlink:href="#b12nZMAeXI" opacity="1" fill="url(#gradientd1uEbUKAqC)"></use><g><use xlink:href="#b12nZMAeXI" opacity="1" fill-opacity="0" stroke="#000000" stroke-width="1" stroke-opacity="0"></use></g></g><g><use xlink:href="#avVX7YXP3" opacity="1" fill="url(#gradienthcGeORDzD)"></use><g><use xlink:href="#avVX7YXP3" opacity="1" fill-opacity="0" stroke="#000000" stroke-width="1" stroke-opacity="0"></use></g></g><g><use xlink:href="#bkKPQXXgL" opacity="1" fill="url(#gradienta3J3L3i5j1)"></use><g><use xlink:href="#bkKPQXXgL" opacity="1" fill-opacity="0" stroke="#000000" stroke-width="1" stroke-opacity="0"></use></g></g></g></svg>